<svg width="392" height="308" viewBox="0 0 392 308" fill="none" xmlns="http://www.w3.org/2000/svg">
<path d="M328 101L299 27L134 130L143 31.5L66 22L17 103L92 111L22 297L151 280L113 226L300 242L376 172L233 150L328 101Z" stroke="#EF5F00" stroke-width="6"/>
<circle cx="143" cy="32" r="13" fill="#FDFDFC" stroke="#EF5F00" stroke-width="6"/>
<circle cx="298" cy="26" r="13" fill="#FDFDFC" stroke="#EF5F00" stroke-width="6"/>
<circle cx="329" cy="98" r="13" fill="#FDFDFC" stroke="#EF5F00" stroke-width="6"/>
<circle cx="229" cy="151" r="13" fill="#FDFDFC" stroke="#EF5F00" stroke-width="6"/>
<circle cx="376" cy="175" r="13" fill="#FDFDFC" stroke="#EF5F00" stroke-width="6"/>
<circle cx="303" cy="241" r="13" fill="#FDFDFC" stroke="#EF5F00" stroke-width="6"/>
<circle cx="152" cy="282" r="13" fill="#FDFDFC" stroke="#EF5F00" stroke-width="6"/>
<circle cx="113" cy="226" r="13" fill="#FDFDFC" stroke="#EF5F00" stroke-width="6"/>
<circle cx="16" cy="102" r="13" fill="#FDFDFC" stroke="#EF5F00" stroke-width="6"/>
<circle cx="133" cy="130" r="13" fill="#FDFDFC" stroke="#EF5F00" stroke-width="6"/>
<circle cx="93" cy="110" r="13" fill="#FDFDFC" stroke="#EF5F00" stroke-width="6"/>
<circle cx="65" cy="16" r="13" fill="#FDFDFC" stroke="#EF5F00" stroke-width="6"/>
<circle cx="24" cy="292" r="13" fill="#FDFDFC" stroke="#EF5F00" stroke-width="6"/>
</svg>
