<svg width="306" height="307" viewBox="0 0 306 307" fill="none" xmlns="http://www.w3.org/2000/svg">
<circle cx="148.5" cy="158.5" r="57.5" fill="#E35F00" fill-opacity="0.666667"/>
<circle cx="74" cy="159" r="74" fill="#FF9C00" fill-opacity="0.160784"/>
<circle cx="148" cy="74" r="74" fill="#FF9C00" fill-opacity="0.160784"/>
<circle cx="232" cy="159" r="74" fill="#FF9C00" fill-opacity="0.160784"/>
<circle cx="94" cy="213" r="74" fill="#FF9C00" fill-opacity="0.160784"/>
<circle cx="202" cy="213" r="74" fill="#FF9C00" fill-opacity="0.160784"/>
<circle cx="148" cy="233" r="74" fill="#F3000D" fill-opacity="0.0784314"/>
<circle cx="94" cy="105" r="74" fill="#00C2D1" fill-opacity="0.129412"/>
<circle cx="202" cy="105" r="74" fill="#4400EE" fill-opacity="0.0588235"/>
<path d="M181.104 167.511C179.706 167.511 178.501 167.244 177.49 166.71C176.484 166.17 175.709 165.398 175.163 164.392C174.623 163.381 174.354 162.17 174.354 160.761C174.354 159.409 174.626 158.227 175.172 157.216C175.717 156.205 176.487 155.418 177.481 154.855C178.476 154.293 179.649 154.011 181.001 154.011C181.99 154.011 182.885 154.165 183.686 154.472C184.487 154.778 185.172 155.224 185.74 155.81C186.308 156.389 186.746 157.094 187.052 157.923C187.359 158.753 187.513 159.687 187.513 160.727V161.818H175.819V159.227H183.183C183.177 158.852 183.081 158.523 182.893 158.239C182.711 157.949 182.464 157.724 182.152 157.565C181.845 157.401 181.496 157.318 181.104 157.318C180.723 157.318 180.373 157.401 180.055 157.565C179.737 157.724 179.481 157.946 179.288 158.23C179.101 158.514 179.001 158.847 178.99 159.227V162.023C178.99 162.443 179.078 162.818 179.254 163.148C179.43 163.477 179.683 163.736 180.013 163.923C180.342 164.111 180.74 164.205 181.206 164.205C181.53 164.205 181.825 164.159 182.092 164.068C182.365 163.977 182.598 163.847 182.791 163.676C182.984 163.5 183.126 163.29 183.217 163.045H187.513C187.365 163.955 187.015 164.744 186.464 165.415C185.913 166.08 185.183 166.597 184.274 166.966C183.371 167.33 182.314 167.511 181.104 167.511Z" fill="#FEFCFB"/>
<path d="M173.488 158.443H169.158C169.136 158.176 169.042 157.946 168.877 157.753C168.712 157.56 168.499 157.412 168.238 157.31C167.982 157.202 167.698 157.148 167.386 157.148C166.982 157.148 166.636 157.222 166.346 157.369C166.056 157.517 165.914 157.727 165.92 158C165.914 158.193 165.996 158.372 166.167 158.537C166.343 158.702 166.681 158.83 167.181 158.92L169.84 159.398C171.181 159.642 172.178 160.054 172.832 160.634C173.491 161.207 173.823 161.977 173.829 162.943C173.823 163.875 173.545 164.685 172.994 165.372C172.448 166.054 171.701 166.582 170.752 166.957C169.809 167.327 168.732 167.511 167.522 167.511C165.522 167.511 163.957 167.102 162.826 166.284C161.701 165.466 161.073 164.386 160.942 163.045H165.613C165.675 163.46 165.88 163.781 166.226 164.009C166.579 164.23 167.022 164.341 167.556 164.341C167.988 164.341 168.343 164.267 168.621 164.119C168.905 163.972 169.05 163.761 169.056 163.489C169.05 163.239 168.925 163.04 168.681 162.892C168.442 162.744 168.067 162.625 167.556 162.534L165.238 162.125C163.903 161.892 162.903 161.449 162.238 160.795C161.573 160.142 161.244 159.301 161.249 158.273C161.244 157.364 161.482 156.594 161.965 155.963C162.454 155.327 163.15 154.844 164.053 154.514C164.962 154.179 166.039 154.011 167.283 154.011C169.175 154.011 170.667 154.403 171.758 155.187C172.854 155.972 173.431 157.057 173.488 158.443Z" fill="#FEFCFB"/>
<path d="M155.224 161.545V154.182H159.929V167.273H155.463V164.784H155.326C155.042 165.619 154.545 166.273 153.835 166.744C153.125 167.21 152.281 167.443 151.304 167.443C150.389 167.443 149.588 167.233 148.9 166.812C148.218 166.392 147.687 165.812 147.306 165.074C146.931 164.335 146.741 163.489 146.735 162.534V154.182H151.44V161.545C151.446 162.193 151.61 162.702 151.934 163.071C152.264 163.44 152.724 163.625 153.315 163.625C153.707 163.625 154.045 163.543 154.329 163.378C154.619 163.207 154.84 162.969 154.994 162.662C155.153 162.349 155.23 161.977 155.224 161.545Z" fill="#FEFCFB"/>
<path d="M145.72 154.182V157.591H136.959V154.182H145.72ZM138.629 167.273V153.807C138.629 152.727 138.823 151.832 139.209 151.122C139.595 150.412 140.141 149.881 140.845 149.528C141.55 149.176 142.379 149 143.334 149C143.931 149 144.51 149.045 145.073 149.136C145.641 149.227 146.061 149.307 146.334 149.375L145.652 152.75C145.482 152.699 145.283 152.659 145.056 152.631C144.828 152.597 144.629 152.58 144.459 152.58C144.016 152.58 143.718 152.673 143.564 152.861C143.411 153.048 143.334 153.295 143.334 153.602V167.273H138.629Z" fill="#FEFCFB"/>
<path d="M130.351 167.511C128.953 167.511 127.748 167.244 126.737 166.71C125.731 166.17 124.956 165.398 124.41 164.392C123.87 163.381 123.601 162.17 123.601 160.761C123.601 159.409 123.873 158.227 124.419 157.216C124.964 156.205 125.734 155.418 126.728 154.855C127.723 154.293 128.896 154.011 130.248 154.011C131.237 154.011 132.132 154.165 132.933 154.472C133.734 154.778 134.419 155.224 134.987 155.81C135.555 156.389 135.993 157.094 136.299 157.923C136.606 158.753 136.76 159.687 136.76 160.727V161.818H125.066V159.227H132.43C132.424 158.852 132.328 158.523 132.14 158.239C131.959 157.949 131.711 157.724 131.399 157.565C131.092 157.401 130.743 157.318 130.351 157.318C129.97 157.318 129.62 157.401 129.302 157.565C128.984 157.724 128.728 157.946 128.535 158.23C128.348 158.514 128.248 158.847 128.237 159.227V162.023C128.237 162.443 128.325 162.818 128.501 163.148C128.677 163.477 128.93 163.736 129.26 163.923C129.589 164.111 129.987 164.205 130.453 164.205C130.777 164.205 131.072 164.159 131.339 164.068C131.612 163.977 131.845 163.847 132.038 163.676C132.231 163.5 132.373 163.29 132.464 163.045H136.76C136.612 163.955 136.263 164.744 135.711 165.415C135.16 166.08 134.43 166.597 133.521 166.966C132.618 167.33 131.561 167.511 130.351 167.511Z" fill="#FEFCFB"/>
<path d="M114.148 167.443C113.216 167.443 112.358 167.199 111.574 166.71C110.795 166.222 110.17 165.48 109.699 164.486C109.233 163.492 109 162.239 109 160.727C109 159.148 109.244 157.864 109.733 156.875C110.227 155.886 110.864 155.162 111.642 154.702C112.426 154.242 113.25 154.011 114.114 154.011C114.761 154.011 115.33 154.125 115.818 154.352C116.307 154.574 116.716 154.872 117.045 155.247C117.375 155.617 117.625 156.023 117.795 156.466H117.864V149.818H122.568V167.273H117.898V165.125H117.795C117.614 165.568 117.352 165.966 117.011 166.318C116.676 166.665 116.267 166.94 115.784 167.145C115.307 167.344 114.761 167.443 114.148 167.443ZM115.886 163.83C116.318 163.83 116.688 163.705 116.994 163.455C117.307 163.199 117.545 162.841 117.71 162.381C117.881 161.915 117.966 161.364 117.966 160.727C117.966 160.08 117.881 159.526 117.71 159.065C117.545 158.599 117.307 158.244 116.994 158C116.688 157.75 116.318 157.625 115.886 157.625C115.455 157.625 115.085 157.75 114.778 158C114.477 158.244 114.244 158.599 114.08 159.065C113.92 159.526 113.841 160.08 113.841 160.727C113.841 161.375 113.92 161.932 114.08 162.398C114.244 162.858 114.477 163.213 114.778 163.463C115.085 163.707 115.455 163.83 115.886 163.83Z" fill="#FEFCFB"/>
</svg>
