<svg width="828" height="364" viewBox="0 0 828 364" fill="none" xmlns="http://www.w3.org/2000/svg">
<rect x="-4" y="52" width="64" height="64" transform="rotate(-90 -4 52)" fill="#FF8E00" fill-opacity="0.0705882"/>
<rect x="124" y="52" width="64" height="64" transform="rotate(-90 124 52)" fill="#FF8E00" fill-opacity="0.0705882"/>
<rect x="60" y="116" width="64" height="64" transform="rotate(-90 60 116)" fill="#FF8E00" fill-opacity="0.0705882"/>
<rect x="188" y="116" width="64" height="64" transform="rotate(-90 188 116)" fill="#FF8E00" fill-opacity="0.0705882"/>
<rect x="-4" y="180" width="64" height="64" transform="rotate(-90 -4 180)" fill="#FF8E00" fill-opacity="0.0705882"/>
<rect x="124" y="180" width="64" height="64" transform="rotate(-90 124 180)" fill="#FF8E00" fill-opacity="0.0705882"/>
<rect x="252" y="180" width="64" height="64" transform="rotate(-90 252 180)" fill="#FF8E00" fill-opacity="0.0705882"/>
<rect x="60" y="244" width="64" height="64" transform="rotate(-90 60 244)" fill="#FF8E00" fill-opacity="0.0705882"/>
<rect x="188" y="244" width="64" height="64" transform="rotate(-90 188 244)" fill="#FF8E00" fill-opacity="0.0705882"/>
<rect x="316" y="244" width="64" height="64" transform="rotate(-90 316 244)" fill="#FF8E00" fill-opacity="0.0705882"/>
<rect x="-4" y="308" width="64" height="64" transform="rotate(-90 -4 308)" fill="#FF8E00" fill-opacity="0.0705882"/>
<rect x="124" y="308" width="64" height="64" transform="rotate(-90 124 308)" fill="#FF8E00" fill-opacity="0.0705882"/>
<rect x="252" y="308" width="64" height="64" transform="rotate(-90 252 308)" fill="#FF8E00" fill-opacity="0.0705882"/>
<rect x="380" y="308" width="64" height="64" transform="rotate(-90 380 308)" fill="#FF8E00" fill-opacity="0.0705882"/>
<rect x="60" y="372" width="64" height="64" transform="rotate(-90 60 372)" fill="#FF8E00" fill-opacity="0.0705882"/>
<rect x="188" y="372" width="64" height="64" transform="rotate(-90 188 372)" fill="#FF8E00" fill-opacity="0.0705882"/>
<rect x="316" y="372" width="64" height="64" transform="rotate(-90 316 372)" fill="#FF8E00" fill-opacity="0.0705882"/>
<rect x="444" y="372" width="64" height="64" transform="rotate(-90 444 372)" fill="#FF8E00" fill-opacity="0.0705882"/>
</svg>
