<svg fill="none" height="32" viewBox="0 0 126 32" width="126" xmlns="http://www.w3.org/2000/svg"><path d="m115.546 25.6818v-13.5h2.685v1.6492h.121c.119-.2642.292-.5327.518-.8054.23-.277.528-.5071.895-.6904.371-.1875.831-.2812 1.38-.2812.716 0 1.377.1875 1.982.5625.605.3707 1.089.9311 1.451 1.6811.362.7457.543 1.6811.543 2.8061 0 1.0952-.177 2.0199-.53 2.7741-.35.75-.827 1.3189-1.432 1.7067-.601.3835-1.274.5753-2.02.5753-.528 0-.978-.0873-1.349-.2621-.366-.1747-.667-.3941-.901-.6583-.234-.2685-.413-.5391-.537-.8118h-.083v5.2542zm2.666-8.5909c0 .5838.08 1.0931.242 1.5277.162.4347.397.7735.704 1.0164.306.2386.679.3579 1.118.3579.443 0 .818-.1214 1.125-.3643.307-.2472.539-.5881.697-1.0228.162-.4389.243-.9439.243-1.5149 0-.5667-.079-1.0653-.237-1.4957-.157-.4304-.39-.7671-.696-1.01-.307-.2429-.684-.3643-1.132-.3643-.443 0-.818.1172-1.125.3516-.302.2343-.535.5667-.697.9971s-.242.9375-.242 1.5213z" fill="#21201c"/><path d="m108.704 22.1854c-.626 0-1.184-.1087-1.674-.326-.49-.2216-.878-.5476-1.164-.978-.281-.4347-.422-.9759-.422-1.6236 0-.5454.101-1.0035.301-1.3743.2-.3707.473-.669.818-.8949.345-.2258.737-.3963 1.176-.5113.443-.1151.908-.196 1.394-.2429.571-.0597 1.031-.1151 1.38-.1662.35-.0554.603-.1364.761-.2429s.236-.2642.236-.473v-.0384c0-.4048-.127-.718-.383-.9396-.251-.2216-.609-.3324-1.074-.3324-.49 0-.88.1087-1.17.326-.289.2131-.481.4815-.575.8054l-2.518-.2045c.127-.5966.379-1.1123.754-1.5469.375-.4389.858-.7756 1.451-1.01.596-.2386 1.287-.3579 2.071-.3579.545 0 1.067.0639 1.566.1917.503.1279.948.326 1.336.5945.392.2685.701.6136.927 1.0355.226.4176.338.9183.338 1.5021v6.6222h-2.582v-1.3615h-.077c-.157.3068-.368.5774-.632.8118-.265.2301-.582.4112-.953.5433-.371.1279-.799.1918-1.285.1918zm.78-1.8793c.401 0 .754-.0788 1.061-.2365.307-.1619.548-.3793.723-.652.174-.2727.262-.5817.262-.9268v-1.0419c-.086.0554-.203.1065-.352.1534-.145.0426-.309.0831-.492.1214-.183.0341-.367.0661-.55.0959-.183.0256-.349.049-.498.0703-.32.0469-.599.1215-.838.2237-.238.1023-.424.2408-.556.4155-.132.1705-.198.3836-.198.6392 0 .3708.134.6542.403.8502.272.1917.618.2876 1.035.2876z" fill="#21201c"/><path d="m93.3309 22-2.6719-9.8182h2.755l1.5213 6.5966h.0895l1.5852-6.5966h2.7038l1.6112 6.5583h.083l1.495-6.5583h2.749l-2.665 9.8182h-2.8833l-1.6875-6.1747h-.1214l-1.6875 6.1747z" fill="#21201c"/><path d="m90.2557 14.9815-2.4929.1535c-.0426-.2131-.1343-.4049-.2749-.5753-.1406-.1747-.326-.3132-.5561-.4155-.2258-.1065-.4964-.1598-.8118-.1598-.4219 0-.7777.0895-1.0675.2684-.2897.1748-.4346.4091-.4346.7032 0 .2343.0937.4325.2812.5944.1875.162.5093.2919.9652.3899l1.777.358c.9546.196 1.6662.5114 2.135.946.4687.4347.7031 1.0057.7031 1.7131 0 .6435-.1896 1.2081-.5689 1.6939-.375.4858-.8906.865-1.5469 1.1378-.652.2684-1.4041.4027-2.2564.4027-1.2997 0-2.3352-.2706-3.1065-.8118-.767-.5455-1.2166-1.287-1.3487-2.2245l2.6782-.1406c.081.3963.277.6989.5881.9077.3111.2045.7095.3068 1.1953.3068.4773 0 .8608-.0916 1.1506-.2748.294-.1875.4432-.4283.4474-.7223-.0042-.2472-.1086-.4496-.3132-.6073-.2045-.1619-.5199-.2855-.946-.3707l-1.7003-.3388c-.9588-.1918-1.6726-.5242-2.1413-.9972-.4645-.473-.6967-1.076-.6967-1.8089 0-.6307.1704-1.174.5113-1.63.3452-.456.8289-.8075 1.451-1.0547.6264-.2471 1.3594-.3707 2.1989-.3707 1.24 0 2.2159.2621 2.9275.7862.7159.5242 1.1336 1.2379 1.2529 2.1413z" fill="#21201c"/><path d="m0 10c0-5.52285 4.47715-10 10-10h50.4575c3.4479 0 6.6526 1.7762 8.48 4.70001l7.0625 11.29999-7.0625 11.3c-1.8274 2.9238-5.0321 4.7-8.48 4.7h-50.4575c-5.52285 0-10-4.4772-10-10z" fill="#e54d2e"/><g fill="#fff"><path d="m49.8632 25.6818v-13.5h2.6847v1.6492h.1214c.1193-.2642.2919-.5327.5178-.8054.2301-.277.5284-.5071.8949-.6904.3707-.1875.8309-.2812 1.3807-.2812.7159 0 1.3764.1875 1.9815.5625.6051.3707 1.0888.9311 1.451 1.6811.3622.7457.5433 1.6811.5433 2.8061 0 1.0952-.1768 2.0199-.5305 2.7741-.3495.75-.8267 1.3189-1.4319 1.7067-.6008.3835-1.2741.5753-2.0198.5753-.5284 0-.978-.0873-1.3488-.2621-.3664-.1747-.6669-.3941-.9012-.6583-.2344-.2685-.4134-.5391-.537-.8118h-.0831v5.2542zm2.6655-8.5909c0 .5838.081 1.0931.2429 1.5277.1619.4347.3963.7735.7031 1.0164.3068.2386.6797.3579 1.1186.3579.4432 0 .8182-.1214 1.125-.3643.3069-.2472.5391-.5881.6968-1.0228.1619-.4389.2429-.9439.2429-1.5149 0-.5667-.0789-1.0653-.2365-1.4957-.1577-.4304-.39-.7671-.6968-1.01s-.6839-.3643-1.1314-.3643c-.4431 0-.8181.1172-1.125.3516-.3025.2343-.5348.5667-.6967.9971s-.2429.9375-.2429 1.5213z"/><path d="m34.2452 22v-9.8182h2.5952v1.7323h.1151c.2045-.5753.5454-1.0291 1.0227-1.3615s1.0483-.4986 1.7131-.4986c.6733 0 1.2464.1683 1.7194.505.473.3323.7884.784.946 1.3551h.1023c.2003-.5625.5625-1.0121 1.0867-1.3488.5284-.3409 1.1527-.5113 1.8728-.5113.9162 0 1.6598.2919 2.2309.8757.5752.5795.8629 1.402.8629 2.4673v6.603h-2.7166v-6.066c0-.5455-.1449-.9546-.4347-1.2273s-.652-.4091-1.0866-.4091c-.4944 0-.88.1577-1.157.473-.277.3111-.4155.7223-.4155 1.2337v5.9957h-2.6399v-6.1236c0-.4815-.1385-.865-.4155-1.1505-.2727-.2856-.6328-.4283-1.0802-.4283-.3026 0-.5753.0767-.8182.2301-.2387.1492-.4283.3601-.5689.6328-.1406.2685-.2109.5838-.2109.946v5.8935z"/><path d="m30.1441 17.8196v-5.6378h2.723v9.8182h-2.6143v-1.7834h-.1023c-.2216.5753-.5902 1.0377-1.1058 1.3871-.5114.3494-1.1357.5241-1.8729.5241-.6562 0-1.2336-.1491-1.7322-.4474s-.8885-.7223-1.1698-1.272c-.277-.5497-.4176-1.2081-.4218-1.9752v-6.2514h2.723v5.7656c.0042.5796.1598 1.0377.4666 1.3743.3068.3367.718.505 1.2337.505.3281 0 .6349-.0746.9204-.2237.2855-.1534.5156-.3793.6904-.6776.1789-.2983.2663-.6669.262-1.1058z"/><path d="m17.2827 22v-9.8182h2.6399v1.7131h.1023c.179-.6094.4794-1.0696.9013-1.3807.4219-.3153.9077-.473 1.4574-.473.1363 0 .2833.0085.441.0256.1577.017.2962.0405.4155.0703v2.4162c-.1278-.0384-.3047-.0725-.5305-.1023-.2259-.0298-.4326-.0447-.6201-.0447-.4005 0-.7585.0873-1.0738.262-.3111.1705-.5583.4091-.7415.7159-.179.3069-.2685.6606-.2685 1.0611v5.5547z"/><path d="m16.3089 12.1818v2.0455h-5.9126v-2.0455zm-4.5703-2.35224h2.723v9.15344c0 .2514.0384.4474.1151.588.0767.1364.1832.2323.3196.2877.1406.0554.3026.0831.4858.0831.1278 0 .2557-.0107.3835-.032.1279-.0256.2259-.0447.2941-.0575l.4282 2.0263c-.1363.0426-.3281.0916-.5753.147-.2471.0596-.5475.0959-.9012.1086-.6563.0256-1.2316-.0617-1.7259-.262-.4901-.2003-.8714-.5114-1.1442-.9333-.2727-.4218-.4069-.9545-.4027-1.598z"/></g></svg>