<svg width="36" height="36" viewBox="0 0 36 36" fill="none" xmlns="http://www.w3.org/2000/svg">
<path d="M0 12C0 5.37258 5.37258 0 12 0H24C30.6274 0 36 5.37258 36 12V24C36 30.6274 30.6274 36 24 36H12C5.37258 36 0 30.6274 0 24V12Z" fill="#041417"/>
<path d="M22.6692 11.0703L19.4433 15.8582C19.409 15.9097 19.3893 15.9696 19.3862 16.0316C19.3832 16.0935 19.3969 16.1551 19.426 16.2098C19.4551 16.2644 19.4983 16.3101 19.5512 16.3419C19.6041 16.3737 19.6646 16.3904 19.7262 16.3902C19.809 16.3909 19.8894 16.3615 19.9524 16.3074L23.1282 13.5542C23.1468 13.5377 23.1698 13.527 23.1943 13.5234C23.2189 13.5198 23.244 13.5234 23.2665 13.5338C23.2891 13.5442 23.3082 13.5609 23.3215 13.582C23.3348 13.6031 23.3418 13.6276 23.3416 13.6526V22.2706C23.342 22.2973 23.334 22.3234 23.3187 22.3452C23.3035 22.3671 23.2818 22.3835 23.2567 22.3922C23.232 22.4011 23.2053 22.4021 23.18 22.3951C23.1547 22.3882 23.1321 22.3736 23.1153 22.3534L13.5174 10.871C13.3628 10.688 13.1705 10.5411 12.9538 10.4405C12.7371 10.3399 12.5012 10.288 12.2626 10.2885H11.9283C11.4912 10.2885 11.0733 10.462 10.7647 10.77C10.4562 11.0781 10.2852 11.4949 10.2852 11.9311V24.0698C10.2852 24.506 10.4587 24.9241 10.766 25.2321C10.942 25.4081 11.1551 25.5419 11.3896 25.6235C11.624 25.7051 11.8737 25.7325 12.1201 25.7035C12.3665 25.6745 12.6032 25.5899 12.8126 25.4561C13.022 25.3223 13.1988 25.1426 13.3297 24.9305L16.5556 20.1426C16.5902 20.0911 16.6102 20.031 16.6135 19.9689C16.6167 19.9068 16.603 19.845 16.5739 19.7901C16.5448 19.7352 16.5014 19.6894 16.4483 19.6575C16.3952 19.6257 16.3345 19.609 16.2727 19.6093C16.1899 19.6087 16.1095 19.6381 16.0464 19.6922L12.8707 22.4453C12.8569 22.4576 12.8406 22.4668 12.823 22.4723C12.8053 22.4777 12.7867 22.4792 12.7684 22.4768C12.7501 22.4743 12.7326 22.4679 12.7169 22.458C12.7013 22.4481 12.688 22.435 12.6779 22.4194C12.6643 22.3982 12.6571 22.3735 12.6573 22.3482V13.7277C12.6571 13.701 12.6652 13.675 12.6804 13.6532C12.6956 13.6314 12.7172 13.6149 12.7422 13.606C12.7669 13.5972 12.7936 13.5962 12.8189 13.6031C12.8442 13.6101 12.8667 13.6246 12.8836 13.6448L22.4789 25.1312C22.6334 25.3142 22.8258 25.4612 23.0425 25.5618C23.2592 25.6624 23.4951 25.7142 23.7337 25.7136H24.068C24.3925 25.7135 24.7098 25.6173 24.9803 25.4368C25.2508 25.2563 25.4625 24.9997 25.589 24.6988C25.6712 24.4994 25.7136 24.2857 25.7137 24.0698V11.9311C25.7137 11.4949 25.5402 11.0768 25.2329 10.7687C25.0569 10.5927 24.8438 10.4589 24.6093 10.3773C24.3749 10.2957 24.1252 10.2684 23.8788 10.2974C23.6324 10.3263 23.3957 10.4109 23.1863 10.5447C22.9768 10.6785 22.8001 10.8582 22.6692 11.0703Z" fill="white"/>
</svg>
