<svg width="156" height="36" viewBox="0 0 156 36" fill="none" xmlns="http://www.w3.org/2000/svg">
<g id="Group">
<path id="Vector" d="M17.4115 3.17352C18.8657 3.17352 20.1728 3.99735 20.823 5.32332L31.5489 27.198C32.1442 28.4121 32.0817 29.8264 31.3825 30.9817C30.6823 32.137 29.4695 32.8265 28.1384 32.8265H6.68562C5.3545 32.8265 4.14168 32.137 3.44149 30.9817C2.74131 29.8264 2.67879 28.4121 3.27414 27.198L14 5.32332C14.6502 3.99735 15.9573 3.17352 17.4115 3.17352ZM17.4115 0.5C14.9734 0.5 12.7459 1.90443 11.6552 4.12779L0.929293 26.0024C-0.0680843 28.0365 0.0386738 30.4531 1.2111 32.3871C2.38352 34.3221 4.45522 35.5 6.68562 35.5H28.1374C30.3678 35.5 32.4395 34.3221 33.6119 32.3871C34.7844 30.4521 34.8911 28.0365 33.8937 26.0024L23.1678 4.12779C22.0781 1.90443 19.8497 0.5 17.4115 0.5Z" fill="#5DEB5A"/>
<g id="Group_2">
<path id="Vector_2" d="M77.0422 9.44442C77.1711 9.44442 77.275 9.55034 77.275 9.68176V19.7364C77.275 24.5038 74.3502 26.8498 70.4905 26.8498C66.6309 26.8498 63.7061 24.5029 63.7061 19.7364V9.68176C63.7061 9.55034 63.8099 9.44442 63.9388 9.44442H66.2298C66.3587 9.44442 66.4625 9.55034 66.4625 9.68176V19.5648C66.4625 22.8895 68.1649 24.2096 70.4905 24.2096C72.8161 24.2096 74.5185 22.8895 74.5185 19.5648V9.68176C74.5185 9.55034 74.6224 9.44442 74.7513 9.44442H77.0422Z" fill="#111827"/>
<path id="Vector_3" d="M117.211 18.0006C117.187 23.0367 113.424 26.8499 108.509 26.8499C103.594 26.8499 99.8066 23.0367 99.8066 18.0006C99.8066 12.9644 103.594 9.15127 108.509 9.15127C113.424 9.15127 117.187 12.9644 117.211 18.0006ZM102.539 18.0006C102.539 21.5695 105.104 24.2097 108.509 24.2097C111.914 24.2097 114.455 21.5695 114.455 18.0006C114.455 14.4316 111.89 11.7914 108.509 11.7914C105.128 11.7914 102.539 14.4316 102.539 18.0006Z" fill="#111827"/>
<path id="Vector_4" d="M141.644 26.5565H139.271C139.108 26.5565 138.995 26.3888 139.054 26.2339L145.333 9.6955C145.385 9.5582 145.515 9.46797 145.659 9.46797H148.628C148.773 9.46797 148.902 9.5582 148.955 9.6955L155.234 26.2339C155.293 26.3898 155.18 26.5565 155.017 26.5565H152.644C152.547 26.5565 152.46 26.4957 152.427 26.4035L147.363 12.7868C147.287 12.5828 147.003 12.5828 146.927 12.7868L141.862 26.4035C141.828 26.4957 141.741 26.5565 141.645 26.5565H141.644Z" fill="#111827"/>
<path id="Vector_5" d="M45.7592 26.5565H43.3864C43.2229 26.5565 43.1104 26.3888 43.1691 26.2339L49.4486 9.6955C49.5005 9.5582 49.6304 9.46797 49.7746 9.46797H52.7437C52.888 9.46797 53.0168 9.5582 53.0697 9.6955L59.3493 26.2339C59.4079 26.3898 59.2954 26.5565 59.1319 26.5565H56.7592C56.662 26.5565 56.5755 26.4957 56.5418 26.4035L51.478 12.7868C51.402 12.5828 51.1183 12.5828 51.0423 12.7868L45.9775 26.4035C45.9429 26.4957 45.8563 26.5565 45.7601 26.5565H45.7592Z" fill="#111827"/>
<path id="Vector_6" d="M134.974 26.1732L130.265 20.0387C132.922 19.5257 134.478 17.6947 134.478 14.8878C134.478 11.665 132.419 9.46814 128.78 9.46814H122.21C122.018 9.46814 121.861 9.62801 121.861 9.82416C121.861 11.0834 122.863 12.1044 124.097 12.1044H128.493C130.695 12.1044 131.749 13.2519 131.749 14.9123C131.749 16.5727 130.718 17.7447 128.493 17.7447H122.21C122.018 17.7447 121.861 17.9045 121.861 18.1007V26.3204C121.861 26.4518 121.965 26.5577 122.094 26.5577H124.334C124.463 26.5577 124.567 26.4518 124.567 26.3204V20.1858H127.152L131.242 25.6279C131.682 26.2144 132.365 26.5577 133.089 26.5577H134.791C134.985 26.5577 135.094 26.3302 134.974 26.1742V26.1732Z" fill="#111827"/>
<path id="Vector_7" d="M96.031 26.1732L91.3211 20.0387C93.9786 19.5257 95.5347 17.6947 95.5347 14.8878C95.5347 11.665 93.4756 9.46814 89.8371 9.46814H83.2671C83.0747 9.46814 82.918 9.62801 82.918 9.82416C82.918 11.0834 83.9192 12.1044 85.1541 12.1044H89.5495C91.752 12.1044 92.8052 13.2519 92.8052 14.9123C92.8052 16.5727 91.7751 17.7447 89.5495 17.7447H83.2671C83.0747 17.7447 82.918 17.9045 82.918 18.1007V26.3204C82.918 26.4518 83.0218 26.5577 83.1507 26.5577H85.3907C85.5196 26.5577 85.6235 26.4518 85.6235 26.3204V20.1858H88.2088L92.2983 25.6279C92.7388 26.2144 93.4217 26.5577 94.1459 26.5577H95.8473C96.0416 26.5577 96.1503 26.3302 96.031 26.1742V26.1732Z" fill="#111827"/>
</g>
</g>
</svg>
