<svg width="24" height="24" viewBox="0 0 24 24" fill="none" xmlns="http://www.w3.org/2000/svg">
<g id="ClipboardText">
<path id="Vector" d="M18.75 3.00011H15.3506C14.9292 2.52829 14.4129 2.15079 13.8355 1.89232C13.2581 1.63385 12.6326 1.50024 12 1.50024C11.3674 1.50024 10.7419 1.63385 10.1645 1.89232C9.58709 2.15079 9.07079 2.52829 8.64937 3.00011H5.25C4.85218 3.00011 4.47064 3.15814 4.18934 3.43945C3.90804 3.72075 3.75 4.10228 3.75 4.50011V20.2501C3.75 20.6479 3.90804 21.0295 4.18934 21.3108C4.47064 21.5921 4.85218 21.7501 5.25 21.7501H18.75C19.1478 21.7501 19.5294 21.5921 19.8107 21.3108C20.092 21.0295 20.25 20.6479 20.25 20.2501V4.50011C20.25 4.10228 20.092 3.72075 19.8107 3.43945C19.5294 3.15814 19.1478 3.00011 18.75 3.00011ZM12 3.00011C12.7956 3.00011 13.5587 3.31618 14.1213 3.87879C14.6839 4.4414 15 5.20446 15 6.00011H9C9 5.20446 9.31607 4.4414 9.87868 3.87879C10.4413 3.31618 11.2044 3.00011 12 3.00011ZM15 15.0001H9C8.80109 15.0001 8.61032 14.9211 8.46967 14.7804C8.32902 14.6398 8.25 14.449 8.25 14.2501C8.25 14.0512 8.32902 13.8604 8.46967 13.7198C8.61032 13.5791 8.80109 13.5001 9 13.5001H15C15.1989 13.5001 15.3897 13.5791 15.5303 13.7198C15.671 13.8604 15.75 14.0512 15.75 14.2501C15.75 14.449 15.671 14.6398 15.5303 14.7804C15.3897 14.9211 15.1989 15.0001 15 15.0001ZM15 12.0001H9C8.80109 12.0001 8.61032 11.9211 8.46967 11.7804C8.32902 11.6398 8.25 11.449 8.25 11.2501C8.25 11.0512 8.32902 10.8604 8.46967 10.7198C8.61032 10.5791 8.80109 10.5001 9 10.5001H15C15.1989 10.5001 15.3897 10.5791 15.5303 10.7198C15.671 10.8604 15.75 11.0512 15.75 11.2501C15.75 11.449 15.671 11.6398 15.5303 11.7804C15.3897 11.9211 15.1989 12.0001 15 12.0001Z" fill="#F76B15"/>
</g>
</svg>
