<svg width="24" height="24" viewBox="0 0 24 24" fill="none" xmlns="http://www.w3.org/2000/svg">
<path d="M22.5 14.9999V17.2499C22.5 17.6477 22.342 18.0293 22.0607 18.3106C21.7794 18.5919 21.3978 18.7499 21 18.7499H10.8684C10.7993 18.75 10.7314 18.7309 10.6724 18.6948C10.6134 18.6587 10.5656 18.607 10.5341 18.5453C10.5027 18.4837 10.4889 18.4146 10.4943 18.3457C10.4997 18.2767 10.524 18.2106 10.5647 18.1546L16.3378 10.2187C16.4575 10.0597 16.5109 9.86061 16.487 9.6631C16.463 9.46559 16.3635 9.28503 16.2094 9.15928C16.1301 9.09774 16.0392 9.05275 15.9421 9.02698C15.8451 9.0012 15.7439 8.99518 15.6445 9.00926C15.5451 9.02333 15.4495 9.05722 15.3634 9.10892C15.2774 9.16062 15.2026 9.22907 15.1434 9.31022L8.39344 18.5971C8.35806 18.6452 8.31169 18.6842 8.25821 18.7108C8.20472 18.7373 8.14566 18.7508 8.08594 18.7499H3C2.60218 18.7499 2.22064 18.5919 1.93934 18.3106C1.65804 18.0293 1.5 17.6477 1.5 17.2499V15.1058C1.5 14.938 1.5 14.7712 1.51219 14.6062C1.517 14.51 1.55863 14.4194 1.62844 14.353C1.69825 14.2867 1.7909 14.2498 1.88719 14.2499H4.5C4.60282 14.2501 4.70458 14.2292 4.79897 14.1885C4.89336 14.1477 4.97837 14.088 5.0487 14.013C5.11904 13.938 5.1732 13.8493 5.20783 13.7525C5.24246 13.6557 5.25681 13.5528 5.25 13.4502C5.23341 13.257 5.14417 13.0773 5.00028 12.9474C4.85639 12.8174 4.66856 12.7468 4.47469 12.7499H2.2425C2.18529 12.7499 2.12885 12.7367 2.0775 12.7115C2.02615 12.6863 1.98125 12.6497 1.94623 12.6044C1.91121 12.5592 1.88701 12.5065 1.87548 12.4505C1.86395 12.3945 1.86539 12.3366 1.87969 12.2812C3.00469 8.17116 6.53531 5.05022 10.8347 4.56741C10.8872 4.56173 10.9403 4.56721 10.9906 4.5835C11.0409 4.59978 11.0871 4.6265 11.1263 4.66191C11.1655 4.69731 11.1968 4.7406 11.2181 4.78894C11.2394 4.83728 11.2503 4.88958 11.25 4.94241V7.49991C11.2498 7.60272 11.2707 7.70449 11.3115 7.79888C11.3522 7.89327 11.4119 7.97827 11.4869 8.04861C11.5619 8.11894 11.6506 8.17311 11.7474 8.20774C11.8442 8.24237 11.9471 8.25672 12.0497 8.24991C12.2429 8.23332 12.4226 8.14408 12.5526 8.00019C12.6825 7.8563 12.7531 7.66847 12.75 7.4746V4.93772C12.7497 4.88489 12.7606 4.83259 12.7819 4.78425C12.8032 4.73591 12.8345 4.69262 12.8737 4.65722C12.9129 4.62181 12.9591 4.59509 13.0094 4.57881C13.0597 4.56252 13.1128 4.55704 13.1653 4.56272C15.2643 4.79859 17.2436 5.66101 18.8456 7.03769C20.4475 8.41437 21.5977 10.2415 22.1466 12.2812C22.1609 12.3366 22.1623 12.3946 22.1507 12.4507C22.1391 12.5068 22.1149 12.5596 22.0797 12.6048C22.0446 12.6501 21.9996 12.6867 21.9481 12.7118C21.8966 12.737 21.8401 12.75 21.7828 12.7499H19.5253C19.3318 12.7473 19.1444 12.8181 19.0009 12.948C18.8574 13.0779 18.7684 13.2574 18.7519 13.4502C18.7451 13.5528 18.7594 13.6557 18.794 13.7525C18.8287 13.8493 18.8828 13.938 18.9532 14.013C19.0235 14.088 19.1085 14.1477 19.2029 14.1885C19.2973 14.2292 19.3991 14.2501 19.5019 14.2499H22.1194C22.2166 14.2498 22.31 14.2876 22.38 14.3551C22.45 14.4226 22.491 14.5146 22.4944 14.6118C22.5 14.7402 22.5 14.8696 22.5 14.9999Z" fill="#F76B15"/>
</svg>
