<svg width="24" height="24" viewBox="0 0 24 24" fill="none" xmlns="http://www.w3.org/2000/svg">
<g id="LightbulbFilament">
<path id="Vector" d="M16.5001 21.75C16.5001 21.9489 16.4211 22.1396 16.2805 22.2803C16.1398 22.4209 15.949 22.5 15.7501 22.5H8.25012C8.05121 22.5 7.86044 22.4209 7.71979 22.2803C7.57914 22.1396 7.50012 21.9489 7.50012 21.75C7.50012 21.551 7.57914 21.3603 7.71979 21.2196C7.86044 21.079 8.05121 21 8.25012 21H15.7501C15.949 21 16.1398 21.079 16.2805 21.2196C16.4211 21.3603 16.5001 21.551 16.5001 21.75ZM20.2501 9.74995C20.2534 11.0002 19.9709 12.2347 19.4243 13.3592C18.8778 14.4837 18.0815 15.4685 17.0964 16.2384C16.9122 16.3796 16.7627 16.561 16.6593 16.7688C16.556 16.9767 16.5015 17.2054 16.5001 17.4375V18C16.5001 18.3978 16.3421 18.7793 16.0608 19.0606C15.7795 19.3419 15.3979 19.5 15.0001 19.5H9.00012C8.6023 19.5 8.22077 19.3419 7.93946 19.0606C7.65816 18.7793 7.50012 18.3978 7.50012 18V17.4375C7.49997 17.2081 7.44724 16.9819 7.34599 16.7762C7.24474 16.5704 7.09766 16.3906 6.91606 16.2506C5.93337 15.4852 5.13767 14.5064 4.58916 13.3881C4.04066 12.2698 3.75374 11.0414 3.75012 9.79589C3.72575 5.32777 7.337 1.60683 11.8014 1.49995C12.9014 1.47345 13.9956 1.66725 15.0196 2.06997C16.0436 2.47269 16.9767 3.07617 17.7639 3.84491C18.5512 4.61365 19.1767 5.53211 19.6037 6.54622C20.0306 7.56034 20.2504 8.64962 20.2501 9.74995ZM15.5307 9.96933C15.4611 9.8996 15.3784 9.84428 15.2873 9.80653C15.1963 9.76879 15.0987 9.74936 15.0001 9.74936C14.9016 9.74936 14.804 9.76879 14.7129 9.80653C14.6219 9.84428 14.5392 9.8996 14.4695 9.96933L12.0001 12.4396L9.53075 9.96933C9.39002 9.8286 9.19915 9.74954 9.00012 9.74954C8.8011 9.74954 8.61023 9.8286 8.4695 9.96933C8.32877 10.1101 8.24971 10.3009 8.24971 10.5C8.24971 10.699 8.32877 10.8898 8.4695 11.0306L11.2501 13.8103V17.25C11.2501 17.4489 11.3291 17.6396 11.4698 17.7803C11.6104 17.9209 11.8012 18 12.0001 18C12.199 18 12.3898 17.9209 12.5305 17.7803C12.6711 17.6396 12.7501 17.4489 12.7501 17.25V13.8103L15.5307 11.0306C15.6005 10.9609 15.6558 10.8782 15.6935 10.7872C15.7313 10.6961 15.7507 10.5985 15.7507 10.5C15.7507 10.4014 15.7313 10.3038 15.6935 10.2127C15.6558 10.1217 15.6005 10.039 15.5307 9.96933Z" fill="#F76B15"/>
</g>
</svg>
