<svg fill="none" height="32" viewBox="0 0 118 32" width="118" xmlns="http://www.w3.org/2000/svg"><g fill="#21201c"><path d="m107.546 25.6818v-13.5h2.685v1.6492h.121c.119-.2642.292-.5327.518-.8054.23-.277.528-.5071.895-.6904.371-.1875.831-.2812 1.38-.2812.716 0 1.377.1875 1.982.5625.605.3707 1.089.9311 1.451 1.6811.362.7457.543 1.6811.543 2.8061 0 1.0952-.177 2.0199-.53 2.7741-.35.75-.827 1.3189-1.432 1.7067-.601.3835-1.274.5753-2.02.5753-.528 0-.978-.0873-1.349-.2621-.366-.1747-.667-.3941-.901-.6583-.234-.2685-.413-.5391-.537-.8118h-.083v5.2542zm2.666-8.5909c0 .5838.08 1.0931.242 1.5277.162.4347.397.7735.704 1.0164.306.2386.679.3579 1.118.3579.443 0 .818-.1214 1.125-.3643.307-.2472.539-.5881.697-1.0228.162-.4389.243-.9439.243-1.5149 0-.5667-.079-1.0653-.237-1.4957-.157-.4304-.39-.7671-.696-1.01-.307-.2429-.684-.3643-1.132-.3643-.443 0-.818.1172-1.125.3516-.302.2343-.535.5667-.697.9971s-.242.9375-.242 1.5213z"/><path d="m100.704 22.1854c-.626 0-1.1843-.1087-1.6744-.326-.49-.2216-.8778-.5476-1.1633-.978-.2813-.4347-.4219-.9759-.4219-1.6236 0-.5454.1001-1.0035.3004-1.3743.2003-.3707.473-.669.8182-.8949.3452-.2258.7372-.3963 1.1761-.5113.4429-.1151.9079-.196 1.3939-.2429.571-.0597 1.031-.1151 1.38-.1662.35-.0554.603-.1364.761-.2429s.236-.2642.236-.473v-.0384c0-.4048-.127-.718-.383-.9396-.251-.2216-.609-.3324-1.074-.3324-.49 0-.88.1087-1.17.326-.289.2131-.481.4815-.575.8054l-2.5184-.2045c.1278-.5966.3792-1.1123.7542-1.5469.375-.4389.8587-.7756 1.451-1.01.5962-.2386 1.2872-.3579 2.0712-.3579.545 0 1.067.0639 1.566.1917.503.1279.948.326 1.336.5945.392.2685.701.6136.927 1.0355.226.4176.338.9183.338 1.5021v6.6222h-2.582v-1.3615h-.077c-.157.3068-.368.5774-.632.8118-.265.2301-.582.4112-.953.5433-.371.1279-.799.1918-1.285.1918zm.78-1.8793c.401 0 .754-.0788 1.061-.2365.307-.1619.548-.3793.723-.652.174-.2727.262-.5817.262-.9268v-1.0419c-.086.0554-.203.1065-.352.1534-.145.0426-.309.0831-.492.1214-.183.0341-.367.0661-.55.0959-.183.0256-.349.049-.498.0703-.32.0469-.599.1215-.838.2237-.238.1023-.424.2408-.556.4155-.132.1705-.198.3836-.198.6392 0 .3708.134.6542.403.8502.272.1917.618.2876 1.035.2876z"/><path d="m85.3309 22-2.6719-9.8182h2.755l1.5213 6.5966h.0895l1.5852-6.5966h2.7038l1.6108 6.5583h.0831l1.4958-6.5583h2.7485l-2.6654 9.8182h-2.8829l-1.6875-6.1747h-.1214l-1.6875 6.1747z"/><path d="m82.2557 14.9815-2.4929.1535c-.0426-.2131-.1343-.4049-.2749-.5753-.1406-.1747-.326-.3132-.5561-.4155-.2258-.1065-.4964-.1598-.8118-.1598-.4219 0-.7777.0895-1.0675.2684-.2897.1748-.4346.4091-.4346.7032 0 .2343.0937.4325.2812.5944.1875.162.5093.2919.9652.3899l1.777.358c.9546.196 1.6662.5114 2.135.946.4687.4347.7031 1.0057.7031 1.7131 0 .6435-.1896 1.2081-.5689 1.6939-.375.4858-.8906.865-1.5469 1.1378-.652.2684-1.4041.4027-2.2564.4027-1.2997 0-2.3352-.2706-3.1065-.8118-.767-.5455-1.2166-1.287-1.3487-2.2245l2.6782-.1406c.081.3963.277.6989.5881.9077.3111.2045.7095.3068 1.1953.3068.4773 0 .8608-.0916 1.1506-.2748.294-.1875.4432-.4283.4474-.7223-.0042-.2472-.1086-.4496-.3132-.6073-.2045-.1619-.5199-.2855-.946-.3707l-1.7003-.3388c-.9588-.1918-1.6726-.5242-2.1413-.9972-.4645-.473-.6967-1.076-.6967-1.8089 0-.6307.1704-1.174.5113-1.63.3452-.456.8289-.8075 1.451-1.0547.6264-.2471 1.3594-.3707 2.1989-.3707 1.24 0 2.2159.2621 2.9275.7862.7159.5242 1.1336 1.2379 1.2529 2.1413z"/></g><path d="m0 10c0-5.52285 4.47715-10 10-10h42.4575c3.4479 0 6.6526 1.7762 8.48 4.70001l7.0625 11.29999-7.0625 11.3c-1.8274 2.9238-5.0321 4.7-8.48 4.7h-42.4575c-5.52285 0-10-4.4772-10-10z" fill="#c2a633"/><path d="m47.0341 22.1918c-1.0099 0-1.8792-.2046-2.6079-.6137-.7245-.4133-1.2827-.9971-1.6747-1.7514-.3921-.7585-.5881-1.6555-.5881-2.691 0-1.01.196-1.8963.5881-2.6591.392-.7628.9439-1.3573 1.6555-1.7834.7159-.4261 1.5554-.6392 2.5185-.6392.6477 0 1.2507.1044 1.8089.3132.5625.2045 1.0526.5135 1.4702.9268.4219.4134.75.9333.9844 1.5597.2343.6222.3515 1.3509.3515 2.1861v.7479h-8.2905v-1.6875h5.7273c0-.3921-.0852-.7394-.2557-1.042-.1704-.3025-.4069-.539-.7095-.7095-.2983-.1747-.6456-.262-1.0419-.262-.4133 0-.7798.0958-1.0994.2876-.3154.1875-.5625.441-.7415.7607-.179.3153-.2706.6669-.2749 1.0546v1.6044c0 .4858.0895.9056.2685 1.2593.1832.3537.4411.6264.7734.8182.3324.1917.7266.2876 1.1826.2876.3025 0 .5795-.0426.8309-.1278.2515-.0853.4667-.2131.6456-.3836.179-.1704.3154-.3792.4091-.6264l2.5185.1662c-.1278.6051-.3899 1.1335-.7862 1.5852-.3921.4475-.8992.7969-1.5213 1.0483-.6179.2472-1.3317.3708-2.1414.3708z" fill="#fff"/><path d="m36.3923 25.8864c-.8821 0-1.6384-.1215-2.2691-.3644-.6264-.2386-1.125-.5646-1.4958-.978-.3707-.4133-.6115-.8778-.7223-1.3934l2.5185-.3388c.0767.196.1982.3793.3643.5497.1662.1705.3857.3068.6584.4091.277.1065.6137.1598 1.01.1598.5923 0 1.0802-.1449 1.4637-.4347.3878-.2855.5817-.7649.5817-1.4382v-1.7961h-.115c-.1194.2727-.2983.5305-.537.7734-.2386.2429-.5454.4411-.9204.5945s-.8225.2301-1.3423.2301c-.7373 0-1.4084-.1705-2.0135-.5114-.6009-.3452-1.0803-.8714-1.4383-1.5788-.3536-.7117-.5305-1.6108-.5305-2.6975 0-1.1122.1811-2.0412.5433-2.7869s.8438-1.304 1.4446-1.6747c.6051-.3707 1.2678-.5561 1.988-.5561.5497 0 1.0099.0937 1.3806.2812.3708.1833.6691.4134.8949.6904.2301.2727.407.5412.5306.8054h.1022v-1.6492h2.7039v9.9141c0 .8352-.2046 1.5341-.6137 2.0966s-.9758.9844-1.7002 1.2656c-.7202.2855-1.5491.4283-2.4866.4283zm.0576-6.0725c.4389 0 .8096-.1086 1.1122-.326.3068-.2216.5412-.5369.7031-.946.1662-.4133.2493-.9077.2493-1.4829 0-.5753-.081-1.0739-.2429-1.4958-.1619-.4261-.3963-.7564-.7031-.9907-.3068-.2344-.6797-.3516-1.1186-.3516-.4475 0-.8246.1214-1.1314.3643-.3068.2387-.5391.5711-.6967.9972-.1577.4261-.2366.9183-.2366 1.4766 0 .5667.0789 1.0568.2366 1.4701.1619.4091.3941.7266.6967.9524.3068.2216.6839.3324 1.1314.3324z" fill="#fff"/><path d="m26.1661 22.1918c-.9929 0-1.8516-.211-2.576-.6328-.7202-.4262-1.2763-1.0185-1.6684-1.777-.392-.7628-.588-1.647-.588-2.6527 0-1.0142.196-1.9006.588-2.6591.3921-.7628.9482-1.3551 1.6684-1.777.7244-.4261 1.5831-.6392 2.576-.6392s1.8494.2131 2.5696.6392c.7244.4219 1.2826 1.0142 1.6747 1.777.392.7585.5881 1.6449.5881 2.6591 0 1.0057-.1961 1.8899-.5881 2.6527-.3921.7585-.9503 1.3508-1.6747 1.777-.7202.4218-1.5767.6328-2.5696.6328zm.0128-2.1094c.4517 0 .8288-.1278 1.1313-.3835.3026-.26.5306-.6137.684-1.0611.1577-.4475.2365-.9567.2365-1.5277s-.0788-1.0803-.2365-1.5277c-.1534-.4474-.3814-.8011-.684-1.0611-.3025-.2599-.6796-.3899-1.1313-.3899-.456 0-.8395.13-1.1506.3899-.3068.26-.5391.6137-.6968 1.0611-.1534.4474-.2301.9567-.2301 1.5277s.0767 1.0802.2301 1.5277c.1577.4474.39.8011.6968 1.0611.3111.2557.6946.3835 1.1506.3835z" fill="#fff"/><path d="m14.7045 22.1598c-.7457 0-1.4211-.1918-2.0262-.5753-.6009-.3878-1.0782-.9567-1.4319-1.7067-.3494-.7542-.5241-1.6789-.5241-2.7741 0-1.125.1811-2.0604.5433-2.8061.3622-.75.8438-1.3104 1.4446-1.6811.6051-.375 1.2678-.5625 1.9879-.5625.5498 0 1.0079.0937 1.3743.2812.3708.1833.6691.4134.8949.6904.2301.2727.4048.5412.5242.8054h.0831v-4.92191h2.7166v13.09091h-2.6847v-1.5724h-.115c-.1279.2727-.309.5433-.5434.8117-.2301.2643-.5305.4837-.9012.6584-.3665.1747-.814.2621-1.3424.2621zm.863-2.1669c.4389 0 .8096-.1193 1.1122-.358.3068-.2429.5412-.5816.7031-1.0163.1662-.4347.2493-.9439.2493-1.5277s-.081-1.0909-.2429-1.5213-.3963-.7628-.7031-.9972c-.3068-.2343-.6797-.3515-1.1186-.3515-.4475 0-.8246.1214-1.1314.3643s-.5391.5796-.6968 1.01c-.1576.4304-.2365.9289-.2365 1.4957 0 .571.0789 1.076.2365 1.5149.162.4347.3942.7756.6968 1.0227.3068.2429.6839.3644 1.1314.3644z" fill="#fff"/></svg>