<svg width="18" height="18" viewBox="0 0 18 18" fill="none" xmlns="http://www.w3.org/2000/svg">
<rect width="18" height="18" fill="white" fill-opacity="0.01"/>
<path fill-rule="evenodd" clip-rule="evenodd" d="M9 2.40002C9.33137 2.40002 9.6 2.66866 9.6 3.00002V13.5515L13.3757 9.77576C13.61 9.54144 13.99 9.54144 14.2243 9.77576C14.4586 10.0101 14.4586 10.39 14.2243 10.6243L9.42426 15.4243C9.31175 15.5368 9.15913 15.6 9 15.6C8.84087 15.6 8.68825 15.5368 8.57574 15.4243L3.77574 10.6243C3.54142 10.39 3.54142 10.0101 3.77574 9.77576C4.01005 9.54144 4.38995 9.54144 4.62426 9.77576L8.4 13.5515V3.00002C8.4 2.66866 8.66863 2.40002 9 2.40002Z" fill="white"/>
</svg>
