<svg width="28" height="28" viewBox="0 0 28 28" fill="none" xmlns="http://www.w3.org/2000/svg">
<g id="CheckCircle">
<path id="Vector" d="M14 2.625C11.7502 2.625 9.551 3.29213 7.68039 4.54203C5.80978 5.79193 4.35182 7.56847 3.49088 9.64698C2.62993 11.7255 2.40467 14.0126 2.84357 16.2192C3.28248 18.4257 4.36584 20.4525 5.95667 22.0433C7.54749 23.6342 9.57432 24.7175 11.7809 25.1564C13.9874 25.5953 16.2745 25.3701 18.353 24.5091C20.4315 23.6482 22.2081 22.1902 23.458 20.3196C24.7079 18.449 25.375 16.2498 25.375 14C25.3718 10.9841 24.1724 8.09271 22.0398 5.96018C19.9073 3.82764 17.0159 2.62818 14 2.625ZM18.9941 11.9941L12.8691 18.1191C12.7878 18.2004 12.6913 18.265 12.5851 18.309C12.4789 18.353 12.365 18.3757 12.25 18.3757C12.135 18.3757 12.0212 18.353 11.9149 18.309C11.8087 18.265 11.7122 18.2004 11.6309 18.1191L9.00594 15.4941C8.84176 15.3299 8.74952 15.1072 8.74952 14.875C8.74952 14.6428 8.84176 14.4201 9.00594 14.2559C9.17013 14.0918 9.39281 13.9995 9.625 13.9995C9.8572 13.9995 10.0799 14.0918 10.2441 14.2559L12.25 16.263L17.7559 10.7559C17.8372 10.6746 17.9338 10.6102 18.04 10.5662C18.1462 10.5222 18.26 10.4995 18.375 10.4995C18.49 10.4995 18.6038 10.5222 18.71 10.5662C18.8163 10.6102 18.9128 10.6746 18.9941 10.7559C19.0754 10.8372 19.1399 10.9337 19.1838 11.04C19.2278 11.1462 19.2505 11.26 19.2505 11.375C19.2505 11.49 19.2278 11.6038 19.1838 11.71C19.1399 11.8163 19.0754 11.9128 18.9941 11.9941Z" fill="#2B9A66"/>
</g>
</svg>
