<svg width="26" height="26" viewBox="0 0 26 26" fill="none" xmlns="http://www.w3.org/2000/svg">
<path fill-rule="evenodd" clip-rule="evenodd" d="M23.5467 13C23.5467 7.70722 19.4217 2.4533 13.0001 2.4533C7.81382 2.4533 5.25055 6.29195 4.15829 8.33334H7.40003C7.91549 8.33334 8.33337 8.75121 8.33337 9.26667C8.33337 9.78213 7.91549 10.2 7.40003 10.2H1.80003C1.28457 10.2 0.866699 9.78213 0.866699 9.26667V3.66667C0.866699 3.15121 1.28457 2.73334 1.80003 2.73334C2.31549 2.73334 2.73337 3.15121 2.73337 3.66667V7.05127C4.04849 4.73302 7.09028 0.586624 13.0001 0.586624C20.5839 0.586624 25.4134 6.81269 25.4134 13C25.4134 19.1873 20.5839 25.4133 13.0001 25.4133C9.37157 25.4133 6.35056 23.9775 4.1996 21.789C3.04794 20.6171 2.1485 19.2328 1.53526 17.7426C1.33908 17.266 1.56648 16.7205 2.04315 16.5244C2.51982 16.3282 3.06528 16.5556 3.26145 17.0323C3.78568 18.306 4.55327 19.4857 5.53094 20.4805C7.345 22.3264 9.89196 23.5467 13.0001 23.5467C19.4217 23.5467 23.5467 18.2927 23.5467 13ZM13 6.46669C13.5155 6.46669 13.9334 6.88456 13.9334 7.40002V12.6134L17.3933 16.0734C17.7578 16.4379 17.7578 17.0288 17.3933 17.3933C17.0288 17.7578 16.4379 17.7578 16.0734 17.3933L12.3401 13.66C12.165 13.485 12.0667 13.2476 12.0667 13V7.40002C12.0667 6.88456 12.4846 6.46669 13 6.46669Z" fill="white"/>
</svg>
