<svg width="16" height="16" viewBox="0 0 16 16" fill="none" xmlns="http://www.w3.org/2000/svg">
<g id="Abstract / copy">
<rect width="16" height="16" fill="white" fill-opacity="0.01"/>
<path id="Vector" fill-rule="evenodd" clip-rule="evenodd" d="M1.06665 10.1333C1.06665 11.017 1.78299 11.7334 2.66665 11.7334H4.26665V10.6667H2.66665C2.3721 10.6667 2.13332 10.4279 2.13332 10.1333V2.66665C2.13332 2.3721 2.3721 2.13332 2.66665 2.13332H10.1333C10.4279 2.13332 10.6667 2.3721 10.6667 2.66665V4.26661H5.86665C4.983 4.26661 4.26665 4.98295 4.26665 5.86661V13.3333C4.26665 14.2169 4.983 14.9333 5.86665 14.9333H13.3333C14.2169 14.9333 14.9333 14.2169 14.9333 13.3333V5.86661C14.9333 4.98295 14.2169 4.26661 13.3333 4.26661H11.7333V2.66665C11.7333 1.78299 11.0169 1.06665 10.1333 1.06665H2.66665C1.78299 1.06665 1.06665 1.78299 1.06665 2.66665V10.1333ZM5.33332 5.86661C5.33332 5.57206 5.5721 5.33327 5.86665 5.33327H13.3333C13.6278 5.33327 13.8667 5.57206 13.8667 5.86661V13.3333C13.8667 13.6279 13.6278 13.8666 13.3333 13.8666H5.86665C5.5721 13.8666 5.33332 13.6279 5.33332 13.3333V5.86661Z" fill="#21201C"/>
</g>
</svg>
