<svg width="16" height="16" viewBox="0 0 16 16" fill="none" xmlns="http://www.w3.org/2000/svg">
<g id="Objects / countdown-timer">
<rect width="16" height="16" fill="white" fill-opacity="0.01"/>
<path id="Vector" fill-rule="evenodd" clip-rule="evenodd" d="M14.0267 8.00008C14.0267 4.97565 11.6695 1.97341 8.00001 1.97341C5.03646 1.97341 3.57173 4.16688 2.94757 5.3334H4.79998C5.09453 5.3334 5.33332 5.57218 5.33332 5.86673C5.33332 6.16128 5.09453 6.40006 4.79998 6.40006H1.59998C1.30543 6.40006 1.06665 6.16128 1.06665 5.86673V2.66673C1.06665 2.37218 1.30543 2.1334 1.59998 2.1334C1.89453 2.1334 2.13332 2.37218 2.13332 2.66673V4.60082C2.88482 3.27611 4.62298 0.906738 8.00001 0.906738C12.3336 0.906738 15.0933 4.46449 15.0933 8.00008C15.0933 11.5357 12.3336 15.0934 8.00001 15.0934C5.92658 15.0934 4.20028 14.273 2.97116 13.0224C2.31307 12.3527 1.79911 11.5617 1.44869 10.7102C1.33658 10.4378 1.46652 10.1261 1.73891 10.014C2.01129 9.90192 2.32298 10.0319 2.43508 10.3042C2.73464 11.0321 3.17326 11.7062 3.73193 12.2747C4.76854 13.3295 6.22394 14.0268 8.00001 14.0268C11.6695 14.0268 14.0267 11.0245 14.0267 8.00008ZM7.46665 10.6668V5.33344H8.53332V10.6668H7.46665Z" fill="#21201C"/>
</g>
</svg>
