<svg width="32" height="32" viewBox="0 0 32 32" fill="none" xmlns="http://www.w3.org/2000/svg">
<rect width="32" height="32" fill="white" fill-opacity="0.01"/>
<path fill-rule="evenodd" clip-rule="evenodd" d="M27.421 6.08751C27.8374 5.67096 27.8374 4.99559 27.421 4.57903C27.0044 4.16246 26.329 4.16246 25.9123 4.57903L16 14.4914L6.08757 4.57903C5.67102 4.16246 4.99565 4.16246 4.57909 4.57903C4.16252 4.99559 4.16252 5.67096 4.57909 6.08751L14.4915 15.9999L4.57909 25.9123C4.16252 26.3289 4.16252 27.0043 4.57909 27.421C4.99565 27.8374 5.67102 27.8374 6.08757 27.421L16 17.5084L25.9123 27.421C26.329 27.8374 27.0044 27.8374 27.421 27.421C27.8374 27.0043 27.8374 26.3289 27.421 25.9123L17.5085 15.9999L27.421 6.08751Z" fill="#82827C"/>
</svg>
