<svg width="48" height="48" viewBox="0 0 48 48" fill="none" xmlns="http://www.w3.org/2000/svg">
<g id="CodeBlock">
<path id="Vector" d="M37.5 7.5H31.5C31.5 6.70435 31.1839 5.94129 30.6213 5.37868C30.0587 4.81607 29.2956 4.5 28.5 4.5H6C5.20435 4.5 4.44129 4.81607 3.87868 5.37868C3.31607 5.94129 3 6.70435 3 7.5V22.5C3 23.2956 3.31607 24.0587 3.87868 24.6213C4.44129 25.1839 5.20435 25.5 6 25.5H7.5V37.5C7.5 38.2957 7.81607 39.0587 8.37868 39.6213C8.94129 40.1839 9.70435 40.5 10.5 40.5H37.5C38.2957 40.5 39.0587 40.1839 39.6213 39.6213C40.1839 39.0587 40.5 38.2957 40.5 37.5V10.5C40.5 9.70435 40.1839 8.94129 39.6213 8.37868C39.0587 7.81607 38.2957 7.5 37.5 7.5ZM19.9387 11.5612C19.6573 11.2798 19.4992 10.898 19.4992 10.5C19.4992 10.102 19.6573 9.72021 19.9387 9.43875C20.2202 9.15729 20.602 8.99917 21 8.99917C21.398 8.99917 21.7798 9.15729 22.0613 9.43875L26.5613 13.9387C26.7007 14.0781 26.8114 14.2435 26.8868 14.4256C26.9623 14.6077 27.0012 14.8029 27.0012 15C27.0012 15.1971 26.9623 15.3923 26.8868 15.5744C26.8114 15.7565 26.7007 15.9219 26.5613 16.0613L22.0613 20.5613C21.7798 20.8427 21.398 21.0008 21 21.0008C20.602 21.0008 20.2202 20.8427 19.9387 20.5613C19.6573 20.2798 19.4992 19.898 19.4992 19.5C19.4992 19.102 19.6573 18.7202 19.9387 18.4387L23.3794 15L19.9387 11.5612ZM7.93875 16.0613C7.79929 15.9219 7.68865 15.7565 7.61316 15.5744C7.53767 15.3923 7.49882 15.1971 7.49882 15C7.49882 14.8029 7.53767 14.6077 7.61316 14.4256C7.68865 14.2435 7.79929 14.0781 7.93875 13.9387L12.4387 9.43875C12.7202 9.15729 13.102 8.99917 13.5 8.99917C13.898 8.99917 14.2798 9.15729 14.5613 9.43875C14.8427 9.72021 15.0008 10.102 15.0008 10.5C15.0008 10.898 14.8427 11.2798 14.5613 11.5612L11.1206 15L14.5613 18.4387C14.8427 18.7202 15.0008 19.102 15.0008 19.5C15.0008 19.898 14.8427 20.2798 14.5613 20.5613C14.2798 20.8427 13.898 21.0008 13.5 21.0008C13.102 21.0008 12.7202 20.8427 12.4387 20.5613L7.93875 16.0613ZM37.5 37.5H10.5V25.5H28.5C29.2956 25.5 30.0587 25.1839 30.6213 24.6213C31.1839 24.0587 31.5 23.2956 31.5 22.5V10.5H37.5V37.5Z" fill="#F76B15"/>
</g>
</svg>
