<svg width="24" height="24" viewBox="0 0 24 24" fill="none" xmlns="http://www.w3.org/2000/svg">
<path id="Vector" d="M12 0.625C9.75024 0.625 7.551 1.29213 5.68039 2.54203C3.80978 3.79193 2.35182 5.56847 1.49088 7.64698C0.629929 9.72549 0.404666 12.0126 0.843573 14.2192C1.28248 16.4257 2.36584 18.4525 3.95667 20.0433C5.54749 21.6342 7.57432 22.7175 9.78085 23.1564C11.9874 23.5953 14.2745 23.3701 16.353 22.5091C18.4315 21.6482 20.2081 20.1902 21.458 18.3196C22.7079 16.449 23.375 14.2498 23.375 12C23.3718 8.98414 22.1724 6.09271 20.0398 3.96018C17.9073 1.82764 15.0159 0.628185 12 0.625ZM11.125 6.75C11.125 6.51794 11.2172 6.29538 11.3813 6.13128C11.5454 5.96719 11.7679 5.875 12 5.875C12.2321 5.875 12.4546 5.96719 12.6187 6.13128C12.7828 6.29538 12.875 6.51794 12.875 6.75V12.875C12.875 13.1071 12.7828 13.3296 12.6187 13.4937C12.4546 13.6578 12.2321 13.75 12 13.75C11.7679 13.75 11.5454 13.6578 11.3813 13.4937C11.2172 13.3296 11.125 13.1071 11.125 12.875V6.75ZM12 18.125C11.7404 18.125 11.4867 18.048 11.2708 17.9038C11.055 17.7596 10.8868 17.5546 10.7874 17.3148C10.6881 17.0749 10.6621 16.811 10.7127 16.5564C10.7634 16.3018 10.8884 16.068 11.0719 15.8844C11.2555 15.7009 11.4893 15.5759 11.7439 15.5252C11.9985 15.4746 12.2624 15.5006 12.5023 15.5999C12.7421 15.6992 12.9471 15.8675 13.0913 16.0833C13.2355 16.2992 13.3125 16.5529 13.3125 16.8125C13.3125 17.1606 13.1742 17.4944 12.9281 17.7406C12.6819 17.9867 12.3481 18.125 12 18.125Z" fill="#DC3E42"/>
</svg>
