<svg width="12" height="16" viewBox="0 0 12 16" fill="none" xmlns="http://www.w3.org/2000/svg">
<path d="M3.81539 0.00317549C3.76343 -0.00397712 3.71043 0.00099493 3.66089 0.017671C3.61135 0.0343471 3.56672 0.0622367 3.53078 0.0989805C3.49483 0.135724 3.46863 0.180241 3.45439 0.228766C3.44015 0.277291 3.43829 0.328395 3.44897 0.377757C4.06925 3.1465 3.54359 5.21534 2.80229 6.74081C2.62675 6.20101 2.34081 5.56045 1.79878 5.06528C1.75216 5.02268 1.6935 4.99424 1.63012 4.98353C1.56675 4.97281 1.5015 4.98029 1.44254 5.00504C1.38358 5.02978 1.33353 5.07069 1.29867 5.12263C1.26381 5.17457 1.24569 5.23524 1.24658 5.29703C1.2778 7.337 0.837963 8.12533 0.457555 8.92333C0.0771463 9.72135 -0.225424 10.5577 0.225825 12.2946C0.227896 12.3018 0.230236 12.309 0.232842 12.3161C0.9749 14.4858 2.9383 16 6.07905 16C9.58007 16 11.4419 13.791 11.8627 11.5001C12.5282 8.32245 10.6291 5.4248 9.2856 3.43882C9.24396 3.37736 9.18123 3.33183 9.10829 3.31014C9.03535 3.28845 8.95681 3.29197 8.88629 3.32008C8.81577 3.34819 8.75772 3.39912 8.72222 3.46404C8.68671 3.52895 8.67599 3.60376 8.69191 3.67547C8.87268 4.48358 8.89074 5.27841 8.80299 5.89723C8.76103 6.19313 8.67796 6.24106 8.59807 6.43244C7.92809 3.89718 6.8564 1.45293 3.91497 0.0326091C3.88363 0.0177515 3.85001 0.00780625 3.81539 0.00317549Z" fill="#646464"/>
</svg>
