<svg width="32" height="32" viewBox="0 0 32 32" fill="none" xmlns="http://www.w3.org/2000/svg">
<path d="M-0.00366211 16C-0.00366211 7.16344 7.15978 0 15.9963 0V0C24.8329 0 31.9963 7.16344 31.9963 16V16C31.9963 24.8366 24.8329 32 15.9963 32V32C7.15978 32 -0.00366211 24.8366 -0.00366211 16V16Z" fill="#E2E1DE"/>
<path fill-rule="evenodd" clip-rule="evenodd" d="M31.8648 18.0897L29.8816 17.8311C29.9596 17.2327 30 16.6215 30 16C30 15.3785 29.9596 14.7673 29.8816 14.1689L31.8648 13.9103C31.954 14.5942 32 15.2917 32 16C32 16.7083 31.954 17.4058 31.8648 18.0897ZM30.7859 9.87539L28.9385 10.6415C28.4669 9.50442 27.8493 8.4421 27.1086 7.47811L28.6944 6.25945C29.5405 7.36044 30.2465 8.57463 30.7859 9.87539ZM25.7405 3.30561L24.5219 4.89145C23.5579 4.15066 22.4956 3.53307 21.3585 3.06154L22.1246 1.21409C23.4254 1.75349 24.6396 2.45954 25.7405 3.30561ZM18.0897 0.135236L17.8311 2.11844C17.2327 2.04038 16.6215 2 16 2C15.3785 2 14.7673 2.04038 14.1689 2.11844L13.9103 0.135237C14.5942 0.0460213 15.2917 0 16 0C16.7083 0 17.4058 0.0460212 18.0897 0.135236ZM9.87539 1.21409L10.6415 3.06154C9.50442 3.53307 8.4421 4.15066 7.47811 4.89145L6.25945 3.30561C7.36044 2.45954 8.57463 1.75349 9.87539 1.21409ZM3.30561 6.25946L4.89145 7.47811C4.15066 8.4421 3.53307 9.50443 3.06154 10.6415L1.21409 9.8754C1.75349 8.57463 2.45954 7.36044 3.30561 6.25946ZM0.135236 13.9103C0.0460212 14.5942 0 15.2917 0 16C0 16.7083 0.0460213 17.4058 0.135237 18.0897L2.11844 17.8311C2.04038 17.2327 2 16.6215 2 16C2 15.3785 2.04038 14.7673 2.11844 14.1689L0.135236 13.9103ZM1.21409 22.1246L3.06154 21.3585C3.53307 22.4956 4.15066 23.5579 4.89145 24.5219L3.30561 25.7405C2.45954 24.6396 1.75349 23.4254 1.21409 22.1246ZM6.25946 28.6944L7.47811 27.1086C8.4421 27.8493 9.50443 28.4669 10.6415 28.9385L9.8754 30.7859C8.57463 30.2465 7.36044 29.5405 6.25946 28.6944ZM13.9103 31.8648L14.1689 29.8816C14.7673 29.9596 15.3785 30 16 30C16.6215 30 17.2327 29.9596 17.8311 29.8816L18.0898 31.8648C17.4058 31.954 16.7083 32 16 32C15.2917 32 14.5942 31.954 13.9103 31.8648ZM22.1246 30.7859L21.3585 28.9385C22.4956 28.4669 23.5579 27.8493 24.5219 27.1086L25.7405 28.6944C24.6396 29.5405 23.4254 30.2465 22.1246 30.7859ZM28.6944 25.7405L27.1086 24.5219C27.8493 23.5579 28.4669 22.4956 28.9385 21.3585L30.7859 22.1246C30.2465 23.4254 29.5405 24.6396 28.6944 25.7405Z" fill="#82827C"/>
<g clip-path="url(#clip0_3243_15904)">
<path d="M23.3125 15.1562H22.4139C22.3408 14.5953 22.1938 14.0466 21.9766 13.5243L22.7556 13.0743C22.8537 13.02 22.94 12.9467 23.0094 12.8587C23.0789 12.7707 23.1301 12.6698 23.1601 12.5618C23.1901 12.4538 23.1982 12.3409 23.1841 12.2297C23.17 12.1185 23.1338 12.0112 23.0777 11.9141C23.0217 11.817 22.9468 11.7321 22.8576 11.6643C22.7683 11.5965 22.6665 11.5471 22.5579 11.5191C22.4494 11.4911 22.3364 11.485 22.2254 11.5011C22.1145 11.5173 22.0079 11.5554 21.9119 11.6132L21.1328 12.0625C20.7879 11.6139 20.3861 11.2121 19.9375 10.8672L20.3882 10.086C20.446 9.98998 20.4841 9.88339 20.5003 9.77246C20.5164 9.66153 20.5103 9.5485 20.4823 9.43996C20.4543 9.33141 20.405 9.22954 20.3371 9.14029C20.2693 9.05104 20.1844 8.9762 20.0873 8.92015C19.9902 8.86409 19.883 8.82794 19.7717 8.8138C19.6605 8.79966 19.5476 8.80783 19.4396 8.83782C19.3316 8.86781 19.2307 8.91902 19.1427 8.98846C19.0547 9.0579 18.9814 9.14419 18.9271 9.24227L18.4757 10.0234C17.9534 9.80624 17.4047 9.65918 16.8438 9.58609V8.6875C16.8438 8.46372 16.7549 8.24911 16.5966 8.09088C16.4384 7.93264 16.2238 7.84375 16 7.84375C15.7762 7.84375 15.5616 7.93264 15.4034 8.09088C15.2451 8.24911 15.1562 8.46372 15.1562 8.6875V9.58609C14.5953 9.65918 14.0466 9.80624 13.5243 10.0234L13.0743 9.24438C12.9602 9.05495 12.7764 8.91786 12.5623 8.8626C12.3482 8.80734 12.121 8.83833 11.9295 8.94891C11.738 9.05948 11.5976 9.2408 11.5384 9.45385C11.4793 9.6669 11.5061 9.89466 11.6132 10.0881L12.0625 10.8672C11.6139 11.2121 11.2121 11.6139 10.8672 12.0625L10.0888 11.6132C9.89537 11.5061 9.66761 11.4793 9.45456 11.5384C9.2415 11.5976 9.06018 11.738 8.94961 11.9295C8.83904 12.121 8.80804 12.3482 8.8633 12.5623C8.91856 12.7764 9.05565 12.9602 9.24508 13.0743L10.0234 13.5243C9.80624 14.0466 9.65918 14.5953 9.58609 15.1562H8.6875C8.46372 15.1562 8.24911 15.2451 8.09088 15.4034C7.93264 15.5616 7.84375 15.7762 7.84375 16C7.84375 16.2238 7.93264 16.4384 8.09088 16.5966C8.24911 16.7549 8.46372 16.8438 8.6875 16.8438H9.58609C9.65918 17.4047 9.80624 17.9534 10.0234 18.4757L9.24438 18.9257C9.14629 18.98 9.06001 19.0533 8.99057 19.1413C8.92113 19.2293 8.86992 19.3302 8.83993 19.4382C8.80994 19.5462 8.80177 19.6591 8.81591 19.7703C8.83004 19.8815 8.8662 19.9888 8.92226 20.0859C8.97831 20.183 9.05315 20.2679 9.1424 20.3357C9.23165 20.4035 9.33352 20.4529 9.44207 20.4809C9.55061 20.5089 9.66364 20.515 9.77457 20.4989C9.88549 20.4827 9.99209 20.4446 10.0881 20.3868L10.8672 19.9375C11.2121 20.3861 11.6139 20.7879 12.0625 21.1328L11.6118 21.914C11.554 22.01 11.5159 22.1166 11.4997 22.2275C11.4836 22.3385 11.4897 22.4515 11.5177 22.56C11.5457 22.6686 11.595 22.7705 11.6629 22.8597C11.7307 22.949 11.8156 23.0238 11.9127 23.0799C12.0098 23.1359 12.117 23.1721 12.2283 23.1862C12.3395 23.2003 12.4524 23.1922 12.5604 23.1622C12.6684 23.1322 12.7693 23.081 12.8573 23.0115C12.9453 22.9421 13.0186 22.8558 13.0729 22.7577L13.5243 21.9766C14.0466 22.1938 14.5953 22.3408 15.1562 22.4139V23.3125C15.1562 23.5363 15.2451 23.7509 15.4034 23.9091C15.5616 24.0674 15.7762 24.1562 16 24.1562C16.2238 24.1562 16.4384 24.0674 16.5966 23.9091C16.7549 23.7509 16.8438 23.5363 16.8438 23.3125V22.4139C17.4047 22.3408 17.9534 22.1938 18.4757 21.9766L18.9257 22.7556C19.0398 22.9451 19.2236 23.0821 19.4377 23.1374C19.6518 23.1927 19.879 23.1617 20.0705 23.0511C20.262 22.9405 20.4024 22.7592 20.4616 22.5461C20.5207 22.3331 20.4939 22.1053 20.3868 21.9119L19.9375 21.1328C20.3861 20.7879 20.7879 20.3861 21.1328 19.9375L21.914 20.3882C22.01 20.446 22.1166 20.4841 22.2275 20.5003C22.3385 20.5164 22.4515 20.5103 22.56 20.4823C22.6686 20.4543 22.7705 20.405 22.8597 20.3371C22.949 20.2693 23.0238 20.1844 23.0799 20.0873C23.1359 19.9902 23.1721 19.883 23.1862 19.7717C23.2003 19.6605 23.1922 19.5476 23.1622 19.4396C23.1322 19.3316 23.081 19.2307 23.0115 19.1427C22.9421 19.0547 22.8558 18.9814 22.7577 18.9271L21.9766 18.4757C22.1938 17.9534 22.3408 17.4047 22.4139 16.8438H23.3125C23.5363 16.8438 23.7509 16.7549 23.9091 16.5966C24.0674 16.4384 24.1562 16.2238 24.1562 16C24.1562 15.7762 24.0674 15.5616 23.9091 15.4034C23.7509 15.2451 23.5363 15.1562 23.3125 15.1562ZM16 11.2188C17.1212 11.2203 18.2063 11.6153 19.0662 12.3349C19.926 13.0544 20.5061 14.0529 20.7053 15.1562H16.4866L14.3772 11.5C14.8976 11.3125 15.4468 11.2174 16 11.2188ZM11.2188 16C11.2188 15.3044 11.3709 14.6172 11.6643 13.9865C11.9577 13.3557 12.3854 12.7968 12.9175 12.3487L15.0269 16L12.9175 19.6513C12.3854 19.2032 11.9577 18.6443 11.6643 18.0135C11.3709 17.3828 11.2188 16.6956 11.2188 16ZM16 20.7812C15.4471 20.7826 14.8981 20.6874 14.3779 20.5L16.4873 16.8438H20.706C20.5068 17.9472 19.9266 18.9458 19.0666 19.6654C18.2066 20.3849 17.1213 20.7798 16 20.7812Z" fill="#21201C"/>
</g>
<defs>
<clipPath id="clip0_3243_15904">
<rect width="18" height="18" fill="white" transform="translate(7 7)"/>
</clipPath>
</defs>
</svg>
