<svg width="175" height="32" viewBox="0 0 175 32" fill="none" xmlns="http://www.w3.org/2000/svg">
<text x="1.34644" y="25.2386" font-size="28" fill="#fdfdfc" font-family="FK Grotesk">Near</text>
<text x="62.34644" y="25.2386" font-size="28" fill="#fdfdfc" font-family="FK Grotesk">intent</text>
<g transform="translate(58) scale(1.2)">
    <rect x="63" width="16" height="16" rx="8" fill="#F9F9F8"/>
    <path fill-rule="evenodd" clip-rule="evenodd" d="M71 0C75.4121 0 79 3.58788 79 8C79 12.4121 75.4121 16 71 16C66.5879 16 63 12.4121 63 8C63 3.58788 66.5879 0 71 0ZM75.8808 11.1677C76.0586 10.9576 76.3818 10.9253 76.5919 11.103C76.802 11.2808 76.8182 11.604 76.6404 11.8141C74.3939 14.4485 73.2465 12.1051 72.5515 9.90707C69.3838 15.0303 65.0364 12.3475 65.2465 7.74141C65.4404 3.44242 70.4505 -0.0969697 72.7939 7.33737C73.3919 6.07677 73.9091 4.78384 74.4424 3.49091C74.5394 3.24849 74.8303 3.11919 75.0889 3.23232C75.3475 3.32929 75.4606 3.6202 75.3636 3.87879C74.6848 5.51111 74.0384 7.1596 73.2141 8.72727C73.6828 10.2465 74.1354 13.204 75.8808 11.1677ZM72.1475 8.61414C70.0949 1.72929 66.4263 3.7495 66.2323 7.7899C66.0384 11.9758 69.5293 13.4788 72.1475 8.61414Z" fill="#01ec97"/>
</g>
</svg>