<svg width="16" height="16" viewBox="0 0 16 16" fill="none" xmlns="http://www.w3.org/2000/svg">
<rect width="16" height="16" rx="8" fill="#F9F9F8"/>
<path fill-rule="evenodd" clip-rule="evenodd" d="M8 0C12.4121 0 16 3.58788 16 8C16 12.4121 12.4121 16 8 16C3.58788 16 0 12.4121 0 8C0 3.58788 3.58788 0 8 0ZM12.8808 11.1677C13.0586 10.9576 13.3818 10.9253 13.5919 11.103C13.802 11.2808 13.8182 11.604 13.6404 11.8141C11.3939 14.4485 10.2465 12.1051 9.55152 9.90707C6.38384 15.0303 2.03636 12.3475 2.24646 7.74141C2.4404 3.44242 7.45051 -0.0969697 9.79394 7.33737C10.3919 6.07677 10.9091 4.78384 11.4424 3.49091C11.5394 3.24849 11.8303 3.11919 12.0889 3.23232C12.3475 3.32929 12.4606 3.6202 12.3636 3.87879C11.6848 5.51111 11.0384 7.1596 10.2141 8.72727C10.6828 10.2465 11.1354 13.204 12.8808 11.1677ZM9.14748 8.61414C7.09495 1.72929 3.42626 3.7495 3.23232 7.7899C3.03838 11.9758 6.52929 13.4788 9.14748 8.61414Z" fill="#F76B15"/>
</svg>
