<svg width="18" height="18" viewBox="0 0 18 18" fill="none" xmlns="http://www.w3.org/2000/svg">
<path fill-rule="evenodd" clip-rule="evenodd" d="M13 7.40001C13 10.4928 10.4928 13 7.4 13C4.3072 13 1.8 10.4928 1.8 7.40001C1.8 4.30721 4.3072 1.80001 7.4 1.80001C10.4928 1.80001 13 4.30721 13 7.40001ZM11.8941 13.0255C10.6624 14.0109 9.10001 14.6 7.4 14.6C3.42355 14.6 0.199997 11.3765 0.199997 7.40001C0.199997 3.42356 3.42355 0.200012 7.4 0.200012C11.3764 0.200012 14.6 3.42356 14.6 7.40001C14.6 9.10003 14.0109 10.6624 13.0254 11.8942L17.5658 16.4343C17.8781 16.7467 17.8781 17.2533 17.5658 17.5658C17.2533 17.8781 16.7467 17.8781 16.4342 17.5658L11.8941 13.0255Z" fill="#21201C"/>
</svg>
