<svg width="71" height="128" viewBox="0 0 71 128" fill="none" xmlns="http://www.w3.org/2000/svg">
<g clip-path="url(#clip0_1269_4842)">
<path d="M-194.5 12C-194.5 5.64873 -189.351 0.5 -183 0.5H20.6822L50.4478 64L20.6822 127.5H-183C-189.351 127.5 -194.5 122.351 -194.5 116V12Z" fill="#191918" stroke="#2A2A28"/>
<path d="M-194.5 12C-194.5 5.64873 -189.351 0.5 -183 0.5H0.682175L30.4478 64L0.682175 127.5H-183C-189.351 127.5 -194.5 122.351 -194.5 116V12Z" stroke="#222221"/>
<path d="M-194.5 12C-194.5 5.64873 -189.351 0.5 -183 0.5H40.6822L70.4478 64L40.6822 127.5H-183C-189.351 127.5 -194.5 122.351 -194.5 116V12Z" stroke="#31312E"/>
</g>
<defs>
<clipPath id="clip0_1269_4842">
<rect width="71" height="128" fill="white"/>
</clipPath>
</defs>
</svg>
