<svg width="16" height="16" viewBox="0 0 16 16" fill="none" xmlns="http://www.w3.org/2000/svg">
<g id="Frame 1613">
<path id="Vector" d="M15.4286 4.49998H2.85715C2.54143 4.49998 2.28572 4.23895 2.28572 3.91665C2.28572 3.59435 2.54143 3.33332 2.85715 3.33332H12.5714V1.58332C12.5714 1.42874 12.5114 1.27999 12.4043 1.17062C12.2971 1.06125 12.1514 1 12 1H2.85716C2.09931 1 1.37287 1.30697 0.837138 1.85458C0.300708 2.40145 0 3.143 0 3.91668V12.0833C0 12.857 0.300708 13.5985 0.837138 14.1454C1.37285 14.693 2.09927 15 2.85716 15H15.4286C15.58 15 15.7257 14.9388 15.8329 14.8294C15.94 14.72 16 14.5713 16 14.4167V5.08337C16 4.92878 15.94 4.78003 15.8329 4.67067C15.7257 4.56129 15.58 4.49998 15.4286 4.49998ZM14.2857 11.3333C14.2857 11.6556 14.03 11.9166 13.7143 11.9166C13.3986 11.9166 13.1429 11.6556 13.1429 10.3333V8.16664C13.1429 7.84434 13.3986 7.58331 13.7143 7.58331C14.03 7.58331 14.2857 7.84434 14.2857 8.16664V11.3333Z" fill="#63635E"/>
</g>
</svg>
