<svg width="56" height="56" viewBox="0 0 56 56" fill="none" xmlns="http://www.w3.org/2000/svg">
<g id="Wallet">
<path id="Vector" d="M47.25 15.75H12.25C11.7859 15.75 11.3408 15.5656 11.0126 15.2374C10.6844 14.9092 10.5 14.4641 10.5 14C10.5 13.5359 10.6844 13.0908 11.0126 12.7626C11.3408 12.4344 11.7859 12.25 12.25 12.25H42C42.4641 12.25 42.9092 12.0656 43.2374 11.7374C43.5656 11.4092 43.75 10.9641 43.75 10.5C43.75 10.0359 43.5656 9.59075 43.2374 9.26256C42.9092 8.93437 42.4641 8.75 42 8.75H12.25C10.8576 8.75 9.52226 9.30312 8.53769 10.2877C7.55312 11.2723 7 12.6076 7 14V42C7 43.3924 7.55312 44.7277 8.53769 45.7123C9.52226 46.6969 10.8576 47.25 12.25 47.25H47.25C48.1783 47.25 49.0685 46.8812 49.7249 46.2249C50.3812 45.5685 50.75 44.6783 50.75 43.75V19.25C50.75 18.3217 50.3812 17.4315 49.7249 16.7751C49.0685 16.1187 48.1783 15.75 47.25 15.75ZM39.375 33.25C38.8558 33.25 38.3483 33.096 37.9166 32.8076C37.4849 32.5192 37.1485 32.1092 36.9498 31.6295C36.7511 31.1499 36.6992 30.6221 36.8004 30.1129C36.9017 29.6037 37.1517 29.136 37.5188 28.7688C37.886 28.4017 38.3537 28.1517 38.8629 28.0504C39.3721 27.9492 39.8999 28.0011 40.3795 28.1998C40.8592 28.3985 41.2692 28.7349 41.5576 29.1666C41.846 29.5983 42 30.1058 42 30.625C42 31.3212 41.7234 31.9889 41.2312 32.4812C40.7389 32.9734 40.0712 33.25 39.375 33.25Z" fill="#82827C"/>
</g>
</svg>
