<svg fill="none" height="32" viewBox="0 0 100 32" width="100" xmlns="http://www.w3.org/2000/svg"><g fill="#21201c"><path d="m89.546 25.6818v-13.5h2.6847v1.6492h.1214c.1193-.2642.2919-.5327.5178-.8054.2301-.277.5284-.5071.8949-.6904.3707-.1875.8309-.2812 1.3807-.2812.7159 0 1.3764.1875 1.9815.5625.6051.3707 1.0888.9311 1.451 1.6811.3622.7457.5433 1.6811.5433 2.8061 0 1.0952-.1768 2.0199-.5305 2.7741-.3495.75-.8267 1.3189-1.4319 1.7067-.6008.3835-1.2741.5753-2.0198.5753-.5284 0-.978-.0873-1.3488-.2621-.3664-.1747-.6669-.3941-.9012-.6583-.2344-.2685-.4134-.5391-.537-.8118h-.0831v5.2542zm2.6655-8.5909c0 .5838.081 1.0931.2429 1.5277.1619.4347.3963.7735.7031 1.0164.3068.2386.6797.3579 1.1186.3579.4432 0 .8182-.1214 1.125-.3643.3069-.2472.5391-.5881.6968-1.0228.1619-.4389.2429-.9439.2429-1.5149 0-.5667-.0789-1.0653-.2365-1.4957-.1577-.4304-.39-.7671-.6968-1.01s-.6839-.3643-1.1314-.3643c-.4431 0-.8181.1172-1.125.3516-.3025.2343-.5348.5667-.6967.9971s-.2429.9375-.2429 1.5213z"/><path d="m82.7043 22.1854c-.6264 0-1.1846-.1087-1.6747-.326-.49-.2216-.8778-.5476-1.1633-.978-.2813-.4347-.4219-.9759-.4219-1.6236 0-.5454.1001-1.0035.3004-1.3743.2003-.3707.473-.669.8182-.8949.3452-.2258.7372-.3963 1.1761-.5113.4432-.1151.9077-.196 1.3935-.2429.571-.0597 1.0313-.1151 1.3807-.1662.3494-.0554.603-.1364.7606-.2429.1577-.1065.2365-.2642.2365-.473v-.0384c0-.4048-.1278-.718-.3835-.9396-.2514-.2216-.6094-.3324-1.0738-.3324-.4901 0-.88.1087-1.1698.326-.2898.2131-.4815.4815-.5753.8054l-2.5184-.2045c.1278-.5966.3792-1.1123.7542-1.5469.375-.4389.8587-.7756 1.451-1.01.5966-.2386 1.287-.3579 2.071-.3579.5455 0 1.0675.0639 1.5661.1917.5028.1279.9482.326 1.3359.5945.3921.2685.701.6136.9269 1.0355.2258.4176.3388.9183.3388 1.5021v6.6222h-2.5824v-1.3615h-.0767c-.1577.3068-.3686.5774-.6328.8118-.2642.2301-.5817.4112-.9525.5433-.3707.1279-.799.1918-1.2848.1918zm.7799-1.8793c.4005 0 .7542-.0788 1.061-.2365.3069-.1619.5476-.3793.7223-.652.1748-.2727.2621-.5817.2621-.9268v-1.0419c-.0852.0554-.2024.1065-.3515.1534-.1449.0426-.309.0831-.4922.1214-.1833.0341-.3665.0661-.5497.0959-.1833.0256-.3495.049-.4986.0703-.3196.0469-.5987.1215-.8374.2237-.2386.1023-.424.2408-.5561.4155-.1321.1705-.1981.3836-.1981.6392 0 .3708.1342.6542.4027.8502.2727.1917.6179.2876 1.0355.2876z"/><path d="m67.3309 22-2.6719-9.8182h2.755l1.5213 6.5966h.0895l1.5852-6.5966h2.7038l1.6108 6.5583h.0831l1.4958-6.5583h2.7485l-2.6654 9.8182h-2.8829l-1.6875-6.1747h-.1214l-1.6875 6.1747z"/><path d="m64.2557 14.9815-2.4929.1535c-.0426-.2131-.1343-.4049-.2749-.5753-.1406-.1747-.326-.3132-.5561-.4155-.2258-.1065-.4964-.1598-.8118-.1598-.4219 0-.7777.0895-1.0675.2684-.2897.1748-.4346.4091-.4346.7032 0 .2343.0937.4325.2812.5944.1875.162.5093.2919.9652.3899l1.777.358c.9546.196 1.6662.5114 2.135.946.4687.4347.7031 1.0057.7031 1.7131 0 .6435-.1896 1.2081-.5689 1.6939-.375.4858-.8906.865-1.5469 1.1378-.652.2684-1.4041.4027-2.2564.4027-1.2997 0-2.3352-.2706-3.1065-.8118-.767-.5455-1.2166-1.287-1.3487-2.2245l2.6782-.1406c.081.3963.277.6989.5881.9077.3111.2045.7095.3068 1.1953.3068.4773 0 .8608-.0916 1.1506-.2748.294-.1875.4432-.4283.4474-.7223-.0042-.2472-.1086-.4496-.3132-.6073-.2045-.1619-.5199-.2855-.946-.3707l-1.7003-.3388c-.9588-.1918-1.6726-.5242-2.1413-.9972-.4645-.473-.6967-1.076-.6967-1.8089 0-.6307.1704-1.174.5113-1.63.3452-.456.8289-.8075 1.451-1.0547.6264-.2471 1.3594-.3707 2.1989-.3707 1.24 0 2.2159.2621 2.9275.7862.7159.5242 1.1336 1.2379 1.2529 2.1413z"/></g><path d="m0 10c0-5.52285 4.47715-10 10-10h24.4575c3.4479 0 6.6526 1.7762 8.48 4.70001l7.0625 11.29999-7.0625 11.3c-1.8274 2.9238-5.0321 4.7-8.48 4.7h-24.4575c-5.52285 0-10-4.4772-10-10z" fill="#8e4ec6"/><path d="m33.3561 8.90909v13.09091h-2.723v-13.09091z" fill="#fff"/><path d="m24.8301 22.1918c-.9929 0-1.8515-.211-2.576-.6328-.7201-.4262-1.2762-1.0185-1.6683-1.777-.392-.7628-.5881-1.647-.5881-2.6527 0-1.0142.1961-1.9006.5881-2.6591.3921-.7628.9482-1.3551 1.6683-1.777.7245-.4261 1.5831-.6392 2.576-.6392s1.8495.2131 2.5696.6392c.7245.4219 1.2827 1.0142 1.6747 1.777.3921.7585.5881 1.6449.5881 2.6591 0 1.0057-.196 1.8899-.5881 2.6527-.392.7585-.9502 1.3508-1.6747 1.777-.7201.4218-1.5767.6328-2.5696.6328zm.0128-2.1094c.4517 0 .8288-.1278 1.1314-.3835.3026-.26.5305-.6137.684-1.0611.1576-.4475.2365-.9567.2365-1.5277s-.0789-1.0803-.2365-1.5277c-.1535-.4474-.3814-.8011-.684-1.0611-.3026-.2599-.6797-.3899-1.1314-.3899-.456 0-.8395.13-1.1506.3899-.3068.26-.539.6137-.6967 1.0611-.1534.4474-.2301.9567-.2301 1.5277s.0767 1.0802.2301 1.5277c.1577.4474.3899.8011.6967 1.0611.3111.2557.6946.3835 1.1506.3835z" fill="#fff"/><path d="m19.2557 14.9815-2.4929.1535c-.0426-.2131-.1343-.4049-.2749-.5753-.1406-.1747-.326-.3132-.5561-.4155-.2258-.1065-.4964-.1598-.8118-.1598-.4219 0-.7777.0895-1.0675.2684-.2897.1748-.4346.4091-.4346.7032 0 .2343.0937.4325.2812.5944.1875.162.5093.2919.9652.3899l1.777.358c.9546.196 1.6662.5114 2.135.946.4687.4347.7031 1.0057.7031 1.7131 0 .6435-.1896 1.2081-.5689 1.6939-.375.4858-.8906.865-1.5469 1.1378-.652.2684-1.4041.4027-2.2564.4027-1.2997 0-2.3352-.2706-3.1065-.8118-.767-.5455-1.2166-1.287-1.3487-2.2245l2.6782-.1406c.081.3963.277.6989.5881.9077.3111.2045.7095.3068 1.1953.3068.4773 0 .8608-.0916 1.1506-.2748.294-.1875.4432-.4283.4474-.7223-.0042-.2472-.1086-.4496-.3132-.6073-.2045-.1619-.5199-.2855-.946-.3707l-1.7003-.3388c-.9588-.1918-1.6726-.5242-2.1413-.9972-.4645-.473-.6967-1.076-.6967-1.8089 0-.6307.1704-1.174.5113-1.63.3452-.456.8289-.8075 1.451-1.0547.6264-.2471 1.3594-.3707 2.1989-.3707 1.24 0 2.2159.2621 2.9275.7862.7159.5242 1.1336 1.2379 1.2529 2.1413z" fill="#fff"/></svg>