<svg width="1512" height="428" viewBox="0 0 1512 428" fill="none" xmlns="http://www.w3.org/2000/svg">
<rect x="468" y="64" width="64" height="64" transform="rotate(-90 468 64)" fill="#F4F4F3" fill-opacity="0.0352941"/>
<rect x="340" y="64" width="64" height="64" transform="rotate(-90 340 64)" fill="#F4F4F3" fill-opacity="0.0352941"/>
<rect x="596" y="64" width="64" height="64" transform="rotate(-90 596 64)" fill="#F4F4F3" fill-opacity="0.0352941"/>
<rect x="724" y="64" width="64" height="64" transform="rotate(-90 724 64)" fill="#F4F4F3" fill-opacity="0.0352941"/>
<rect x="852" y="64" width="64" height="64" transform="rotate(-90 852 64)" fill="#F4F4F3" fill-opacity="0.0352941"/>
<rect x="980" y="64" width="64" height="64" transform="rotate(-90 980 64)" fill="#F4F4F3" fill-opacity="0.0352941"/>
<rect x="1108" y="64" width="64" height="64" transform="rotate(-90 1108 64)" fill="#F4F4F3" fill-opacity="0.0352941"/>
<rect x="276" y="128" width="64" height="64" transform="rotate(-90 276 128)" fill="#F4F4F3" fill-opacity="0.0352941"/>
<rect x="404" y="128" width="64" height="64" transform="rotate(-90 404 128)" fill="#F4F4F3" fill-opacity="0.0352941"/>
<rect x="532" y="128" width="64" height="64" transform="rotate(-90 532 128)" fill="#F4F4F3" fill-opacity="0.0352941"/>
<rect x="660" y="128" width="64" height="64" transform="rotate(-90 660 128)" fill="#F4F4F3" fill-opacity="0.0352941"/>
<rect x="788" y="128" width="64" height="64" transform="rotate(-90 788 128)" fill="#F4F4F3" fill-opacity="0.0352941"/>
<rect x="916" y="128" width="64" height="64" transform="rotate(-90 916 128)" fill="#F4F4F3" fill-opacity="0.0352941"/>
<rect x="1044" y="128" width="64" height="64" transform="rotate(-90 1044 128)" fill="#F4F4F3" fill-opacity="0.0352941"/>
<rect x="1172" y="128" width="64" height="64" transform="rotate(-90 1172 128)" fill="#F4F4F3" fill-opacity="0.0352941"/>
<rect x="212" y="192" width="64" height="64" transform="rotate(-90 212 192)" fill="#F4F4F3" fill-opacity="0.0352941"/>
<rect x="340" y="192" width="64" height="64" transform="rotate(-90 340 192)" fill="#F4F4F3" fill-opacity="0.0352941"/>
<rect x="468" y="192" width="64" height="64" transform="rotate(-90 468 192)" fill="#F4F4F3" fill-opacity="0.0352941"/>
<rect x="596" y="192" width="64" height="64" transform="rotate(-90 596 192)" fill="#F4F4F3" fill-opacity="0.0352941"/>
<rect x="724" y="192" width="64" height="64" transform="rotate(-90 724 192)" fill="#F4F4F3" fill-opacity="0.0352941"/>
<rect x="852" y="192" width="64" height="64" transform="rotate(-90 852 192)" fill="#F4F4F3" fill-opacity="0.0352941"/>
<rect x="980" y="192" width="64" height="64" transform="rotate(-90 980 192)" fill="#F4F4F3" fill-opacity="0.0352941"/>
<rect x="1108" y="192" width="64" height="64" transform="rotate(-90 1108 192)" fill="#F4F4F3" fill-opacity="0.0352941"/>
<rect x="1236" y="192" width="64" height="64" transform="rotate(-90 1236 192)" fill="#F4F4F3" fill-opacity="0.0352941"/>
<rect x="148" y="256" width="64" height="64" transform="rotate(-90 148 256)" fill="#F4F4F3" fill-opacity="0.0352941"/>
<rect x="276" y="256" width="64" height="64" transform="rotate(-90 276 256)" fill="#F4F4F3" fill-opacity="0.0352941"/>
<rect x="404" y="256" width="64" height="64" transform="rotate(-90 404 256)" fill="#F4F4F3" fill-opacity="0.0352941"/>
<rect x="532" y="256" width="64" height="64" transform="rotate(-90 532 256)" fill="#F4F4F3" fill-opacity="0.0352941"/>
<rect x="660" y="256" width="64" height="64" transform="rotate(-90 660 256)" fill="#F4F4F3" fill-opacity="0.0352941"/>
<rect x="788" y="256" width="64" height="64" transform="rotate(-90 788 256)" fill="#F4F4F3" fill-opacity="0.0352941"/>
<rect x="916" y="256" width="64" height="64" transform="rotate(-90 916 256)" fill="#F4F4F3" fill-opacity="0.0352941"/>
<rect x="1044" y="256" width="64" height="64" transform="rotate(-90 1044 256)" fill="#F4F4F3" fill-opacity="0.0352941"/>
<rect x="1172" y="256" width="64" height="64" transform="rotate(-90 1172 256)" fill="#F4F4F3" fill-opacity="0.0352941"/>
<rect x="1300" y="256" width="64" height="64" transform="rotate(-90 1300 256)" fill="#F4F4F3" fill-opacity="0.0352941"/>
<rect x="84" y="320" width="64" height="64" transform="rotate(-90 84 320)" fill="#F4F4F3" fill-opacity="0.0352941"/>
<rect x="212" y="320" width="64" height="64" transform="rotate(-90 212 320)" fill="#F4F4F3" fill-opacity="0.0352941"/>
<rect x="340" y="320" width="64" height="64" transform="rotate(-90 340 320)" fill="#F4F4F3" fill-opacity="0.0352941"/>
<rect x="468" y="320" width="64" height="64" transform="rotate(-90 468 320)" fill="#F4F4F3" fill-opacity="0.0352941"/>
<rect x="596" y="320" width="64" height="64" transform="rotate(-90 596 320)" fill="#F4F4F3" fill-opacity="0.0352941"/>
<rect x="724" y="320" width="64" height="64" transform="rotate(-90 724 320)" fill="#F4F4F3" fill-opacity="0.0352941"/>
<rect x="852" y="320" width="64" height="64" transform="rotate(-90 852 320)" fill="#F4F4F3" fill-opacity="0.0352941"/>
<rect x="980" y="320" width="64" height="64" transform="rotate(-90 980 320)" fill="#F4F4F3" fill-opacity="0.0352941"/>
<rect x="1108" y="320" width="64" height="64" transform="rotate(-90 1108 320)" fill="#F4F4F3" fill-opacity="0.0352941"/>
<rect x="1236" y="320" width="64" height="64" transform="rotate(-90 1236 320)" fill="#F4F4F3" fill-opacity="0.0352941"/>
<rect x="1364" y="320" width="64" height="64" transform="rotate(-90 1364 320)" fill="#F4F4F3" fill-opacity="0.0352941"/>
<rect x="20" y="384" width="64" height="64" transform="rotate(-90 20 384)" fill="#F4F4F3" fill-opacity="0.0352941"/>
<rect x="148" y="384" width="64" height="64" transform="rotate(-90 148 384)" fill="#F4F4F3" fill-opacity="0.0352941"/>
<rect x="276" y="384" width="64" height="64" transform="rotate(-90 276 384)" fill="#F4F4F3" fill-opacity="0.0352941"/>
<rect x="404" y="384" width="64" height="64" transform="rotate(-90 404 384)" fill="#F4F4F3" fill-opacity="0.0352941"/>
<rect x="532" y="384" width="64" height="64" transform="rotate(-90 532 384)" fill="#F4F4F3" fill-opacity="0.0352941"/>
<rect x="660" y="384" width="64" height="64" transform="rotate(-90 660 384)" fill="#F4F4F3" fill-opacity="0.0352941"/>
<rect x="788" y="384" width="64" height="64" transform="rotate(-90 788 384)" fill="#F4F4F3" fill-opacity="0.0352941"/>
<rect x="916" y="384" width="64" height="64" transform="rotate(-90 916 384)" fill="#F4F4F3" fill-opacity="0.0352941"/>
<rect x="1044" y="384" width="64" height="64" transform="rotate(-90 1044 384)" fill="#F4F4F3" fill-opacity="0.0352941"/>
<rect x="1172" y="384" width="64" height="64" transform="rotate(-90 1172 384)" fill="#F4F4F3" fill-opacity="0.0352941"/>
<rect x="1300" y="384" width="64" height="64" transform="rotate(-90 1300 384)" fill="#F4F4F3" fill-opacity="0.0352941"/>
<rect x="1428" y="384" width="64" height="64" transform="rotate(-90 1428 384)" fill="#F4F4F3" fill-opacity="0.0352941"/>
<rect x="-44" y="448" width="64" height="64" transform="rotate(-90 -44 448)" fill="#F4F4F3" fill-opacity="0.0352941"/>
<rect x="84" y="448" width="64" height="64" transform="rotate(-90 84 448)" fill="#F4F4F3" fill-opacity="0.0352941"/>
<rect x="212" y="448" width="64" height="64" transform="rotate(-90 212 448)" fill="#F4F4F3" fill-opacity="0.0352941"/>
<rect x="340" y="448" width="64" height="64" transform="rotate(-90 340 448)" fill="#F4F4F3" fill-opacity="0.0352941"/>
<rect x="468" y="448" width="64" height="64" transform="rotate(-90 468 448)" fill="#F4F4F3" fill-opacity="0.0352941"/>
<rect x="596" y="448" width="64" height="64" transform="rotate(-90 596 448)" fill="#F4F4F3" fill-opacity="0.0352941"/>
<rect x="724" y="448" width="64" height="64" transform="rotate(-90 724 448)" fill="#F4F4F3" fill-opacity="0.0352941"/>
<rect x="852" y="448" width="64" height="64" transform="rotate(-90 852 448)" fill="#F4F4F3" fill-opacity="0.0352941"/>
<rect x="980" y="448" width="64" height="64" transform="rotate(-90 980 448)" fill="#F4F4F3" fill-opacity="0.0352941"/>
<rect x="1108" y="448" width="64" height="64" transform="rotate(-90 1108 448)" fill="#F4F4F3" fill-opacity="0.0352941"/>
<rect x="1236" y="448" width="64" height="64" transform="rotate(-90 1236 448)" fill="#F4F4F3" fill-opacity="0.0352941"/>
<rect x="1364" y="448" width="64" height="64" transform="rotate(-90 1364 448)" fill="#F4F4F3" fill-opacity="0.0352941"/>
<rect x="1492" y="448" width="64" height="64" transform="rotate(-90 1492 448)" fill="#F4F4F3" fill-opacity="0.0352941"/>
</svg>
