<svg width="375" height="450" viewBox="0 0 375 450" fill="none" xmlns="http://www.w3.org/2000/svg">
<g clip-path="url(#clip0_383_3272)">
<rect x="20" y="48" width="48" height="48" transform="rotate(-90 20 48)" fill="#252500" fill-opacity="0.027451"/>
<rect x="116" y="48" width="48" height="48" transform="rotate(-90 116 48)" fill="#252500" fill-opacity="0.027451"/>
<rect x="212" y="48" width="48" height="48" transform="rotate(-90 212 48)" fill="#252500" fill-opacity="0.027451"/>
<rect x="308" y="48" width="48" height="48" transform="rotate(-90 308 48)" fill="#252500" fill-opacity="0.027451"/>
<rect x="-28" y="96" width="48" height="48" transform="rotate(-90 -28 96)" fill="#252500" fill-opacity="0.027451"/>
<rect x="68" y="96" width="48" height="48" transform="rotate(-90 68 96)" fill="#252500" fill-opacity="0.027451"/>
<rect x="164" y="96" width="48" height="48" transform="rotate(-90 164 96)" fill="#252500" fill-opacity="0.027451"/>
<rect x="260" y="96" width="48" height="48" transform="rotate(-90 260 96)" fill="#252500" fill-opacity="0.027451"/>
<rect x="356" y="96" width="48" height="48" transform="rotate(-90 356 96)" fill="#252500" fill-opacity="0.027451"/>
<rect x="20" y="144" width="48" height="48" transform="rotate(-90 20 144)" fill="#252500" fill-opacity="0.027451"/>
<rect x="116" y="144" width="48" height="48" transform="rotate(-90 116 144)" fill="#252500" fill-opacity="0.027451"/>
<rect x="212" y="144" width="48" height="48" transform="rotate(-90 212 144)" fill="#252500" fill-opacity="0.027451"/>
<rect x="308" y="144" width="48" height="48" transform="rotate(-90 308 144)" fill="#252500" fill-opacity="0.027451"/>
<rect x="-28" y="192" width="48" height="48" transform="rotate(-90 -28 192)" fill="#252500" fill-opacity="0.027451"/>
<rect x="68" y="192" width="48" height="48" transform="rotate(-90 68 192)" fill="#252500" fill-opacity="0.027451"/>
<rect x="164" y="192" width="48" height="48" transform="rotate(-90 164 192)" fill="#252500" fill-opacity="0.027451"/>
<rect x="260" y="192" width="48" height="48" transform="rotate(-90 260 192)" fill="#252500" fill-opacity="0.027451"/>
<rect x="356" y="192" width="48" height="48" transform="rotate(-90 356 192)" fill="#252500" fill-opacity="0.027451"/>
<rect x="20" y="240" width="48" height="48" transform="rotate(-90 20 240)" fill="#252500" fill-opacity="0.027451"/>
<rect x="116" y="240" width="48" height="48" transform="rotate(-90 116 240)" fill="#252500" fill-opacity="0.027451"/>
<rect x="212" y="240" width="48" height="48" transform="rotate(-90 212 240)" fill="#252500" fill-opacity="0.027451"/>
<rect x="308" y="240" width="48" height="48" transform="rotate(-90 308 240)" fill="#252500" fill-opacity="0.027451"/>
<rect x="-28" y="288" width="48" height="48" transform="rotate(-90 -28 288)" fill="#252500" fill-opacity="0.027451"/>
<rect x="68" y="288" width="48" height="48" transform="rotate(-90 68 288)" fill="#252500" fill-opacity="0.027451"/>
<rect x="164" y="288" width="48" height="48" transform="rotate(-90 164 288)" fill="#252500" fill-opacity="0.027451"/>
<rect x="260" y="288" width="48" height="48" transform="rotate(-90 260 288)" fill="#252500" fill-opacity="0.027451"/>
<rect x="356" y="288" width="48" height="48" transform="rotate(-90 356 288)" fill="#252500" fill-opacity="0.027451"/>
<rect x="20" y="336" width="48" height="48" transform="rotate(-90 20 336)" fill="#252500" fill-opacity="0.027451"/>
<rect x="20" y="432" width="48" height="48" transform="rotate(-90 20 432)" fill="#252500" fill-opacity="0.027451"/>
<rect x="116" y="336" width="48" height="48" transform="rotate(-90 116 336)" fill="#252500" fill-opacity="0.027451"/>
<rect x="116" y="432" width="48" height="48" transform="rotate(-90 116 432)" fill="#252500" fill-opacity="0.027451"/>
<rect x="212" y="336" width="48" height="48" transform="rotate(-90 212 336)" fill="#252500" fill-opacity="0.027451"/>
<rect x="212" y="432" width="48" height="48" transform="rotate(-90 212 432)" fill="#252500" fill-opacity="0.027451"/>
<rect x="308" y="336" width="48" height="48" transform="rotate(-90 308 336)" fill="#252500" fill-opacity="0.027451"/>
<rect x="308" y="432" width="48" height="48" transform="rotate(-90 308 432)" fill="#252500" fill-opacity="0.027451"/>
<rect x="-28" y="384" width="48" height="48" transform="rotate(-90 -28 384)" fill="#252500" fill-opacity="0.027451"/>
<rect x="-28" y="480" width="48" height="48" transform="rotate(-90 -28 480)" fill="#252500" fill-opacity="0.027451"/>
<rect x="68" y="384" width="48" height="48" transform="rotate(-90 68 384)" fill="#252500" fill-opacity="0.027451"/>
<rect x="68" y="480" width="48" height="48" transform="rotate(-90 68 480)" fill="#252500" fill-opacity="0.027451"/>
<rect x="164" y="384" width="48" height="48" transform="rotate(-90 164 384)" fill="#252500" fill-opacity="0.027451"/>
<rect x="164" y="480" width="48" height="48" transform="rotate(-90 164 480)" fill="#252500" fill-opacity="0.027451"/>
<rect x="260" y="384" width="48" height="48" transform="rotate(-90 260 384)" fill="#252500" fill-opacity="0.027451"/>
<rect x="260" y="480" width="48" height="48" transform="rotate(-90 260 480)" fill="#252500" fill-opacity="0.027451"/>
<rect x="356" y="384" width="48" height="48" transform="rotate(-90 356 384)" fill="#252500" fill-opacity="0.027451"/>
<rect x="356" y="480" width="48" height="48" transform="rotate(-90 356 480)" fill="#252500" fill-opacity="0.027451"/>
</g>
<defs>
<clipPath id="clip0_383_3272">
<rect width="624" height="450" fill="white" transform="translate(-124)"/>
</clipPath>
</defs>
</svg>
