<svg width="1728" height="448" viewBox="0 0 1728 448" fill="none" xmlns="http://www.w3.org/2000/svg">
<g clip-path="url(#clip0_343_2945)">
<rect x="576" y="64" width="64" height="64" transform="rotate(-90 576 64)" fill="#252500" fill-opacity="0.027451"/>
<rect x="448" y="64" width="64" height="64" transform="rotate(-90 448 64)" fill="#252500" fill-opacity="0.027451"/>
<rect x="704" y="64" width="64" height="64" transform="rotate(-90 704 64)" fill="#252500" fill-opacity="0.027451"/>
<rect x="832" y="64" width="64" height="64" transform="rotate(-90 832 64)" fill="#252500" fill-opacity="0.027451"/>
<rect x="960" y="64" width="64" height="64" transform="rotate(-90 960 64)" fill="#252500" fill-opacity="0.027451"/>
<rect x="1088" y="64" width="64" height="64" transform="rotate(-90 1088 64)" fill="#252500" fill-opacity="0.027451"/>
<rect x="1216" y="64" width="64" height="64" transform="rotate(-90 1216 64)" fill="#252500" fill-opacity="0.027451"/>
<rect x="384" y="128" width="64" height="64" transform="rotate(-90 384 128)" fill="#252500" fill-opacity="0.027451"/>
<rect x="512" y="128" width="64" height="64" transform="rotate(-90 512 128)" fill="#252500" fill-opacity="0.027451"/>
<rect x="640" y="128" width="64" height="64" transform="rotate(-90 640 128)" fill="#252500" fill-opacity="0.027451"/>
<rect x="768" y="128" width="64" height="64" transform="rotate(-90 768 128)" fill="#252500" fill-opacity="0.027451"/>
<rect x="896" y="128" width="64" height="64" transform="rotate(-90 896 128)" fill="#252500" fill-opacity="0.027451"/>
<rect x="1024" y="128" width="64" height="64" transform="rotate(-90 1024 128)" fill="#252500" fill-opacity="0.027451"/>
<rect x="1152" y="128" width="64" height="64" transform="rotate(-90 1152 128)" fill="#252500" fill-opacity="0.027451"/>
<rect x="1280" y="128" width="64" height="64" transform="rotate(-90 1280 128)" fill="#252500" fill-opacity="0.027451"/>
<rect x="320" y="192" width="64" height="64" transform="rotate(-90 320 192)" fill="#252500" fill-opacity="0.027451"/>
<rect x="448" y="192" width="64" height="64" transform="rotate(-90 448 192)" fill="#252500" fill-opacity="0.027451"/>
<rect x="576" y="192" width="64" height="64" transform="rotate(-90 576 192)" fill="#252500" fill-opacity="0.027451"/>
<rect x="704" y="192" width="64" height="64" transform="rotate(-90 704 192)" fill="#252500" fill-opacity="0.027451"/>
<rect x="832" y="192" width="64" height="64" transform="rotate(-90 832 192)" fill="#252500" fill-opacity="0.027451"/>
<rect x="960" y="192" width="64" height="64" transform="rotate(-90 960 192)" fill="#252500" fill-opacity="0.027451"/>
<rect x="1088" y="192" width="64" height="64" transform="rotate(-90 1088 192)" fill="#252500" fill-opacity="0.027451"/>
<rect x="1216" y="192" width="64" height="64" transform="rotate(-90 1216 192)" fill="#252500" fill-opacity="0.027451"/>
<rect x="1344" y="192" width="64" height="64" transform="rotate(-90 1344 192)" fill="#252500" fill-opacity="0.027451"/>
<rect x="256" y="256" width="64" height="64" transform="rotate(-90 256 256)" fill="#252500" fill-opacity="0.027451"/>
<rect x="384" y="256" width="64" height="64" transform="rotate(-90 384 256)" fill="#252500" fill-opacity="0.027451"/>
<rect x="512" y="256" width="64" height="64" transform="rotate(-90 512 256)" fill="#252500" fill-opacity="0.027451"/>
<rect x="640" y="256" width="64" height="64" transform="rotate(-90 640 256)" fill="#252500" fill-opacity="0.027451"/>
<rect x="768" y="256" width="64" height="64" transform="rotate(-90 768 256)" fill="#252500" fill-opacity="0.027451"/>
<rect x="896" y="256" width="64" height="64" transform="rotate(-90 896 256)" fill="#252500" fill-opacity="0.027451"/>
<rect x="1024" y="256" width="64" height="64" transform="rotate(-90 1024 256)" fill="#252500" fill-opacity="0.027451"/>
<rect x="1152" y="256" width="64" height="64" transform="rotate(-90 1152 256)" fill="#252500" fill-opacity="0.027451"/>
<rect x="1280" y="256" width="64" height="64" transform="rotate(-90 1280 256)" fill="#252500" fill-opacity="0.027451"/>
<rect x="1408" y="256" width="64" height="64" transform="rotate(-90 1408 256)" fill="#252500" fill-opacity="0.027451"/>
<rect x="192" y="320" width="64" height="64" transform="rotate(-90 192 320)" fill="#252500" fill-opacity="0.027451"/>
<rect x="320" y="320" width="64" height="64" transform="rotate(-90 320 320)" fill="#252500" fill-opacity="0.027451"/>
<rect x="448" y="320" width="64" height="64" transform="rotate(-90 448 320)" fill="#252500" fill-opacity="0.027451"/>
<rect x="576" y="320" width="64" height="64" transform="rotate(-90 576 320)" fill="#252500" fill-opacity="0.027451"/>
<rect x="704" y="320" width="64" height="64" transform="rotate(-90 704 320)" fill="#252500" fill-opacity="0.027451"/>
<rect x="832" y="320" width="64" height="64" transform="rotate(-90 832 320)" fill="#252500" fill-opacity="0.027451"/>
<rect x="960" y="320" width="64" height="64" transform="rotate(-90 960 320)" fill="#252500" fill-opacity="0.027451"/>
<rect x="1088" y="320" width="64" height="64" transform="rotate(-90 1088 320)" fill="#252500" fill-opacity="0.027451"/>
<rect x="1216" y="320" width="64" height="64" transform="rotate(-90 1216 320)" fill="#252500" fill-opacity="0.027451"/>
<rect x="1344" y="320" width="64" height="64" transform="rotate(-90 1344 320)" fill="#252500" fill-opacity="0.027451"/>
<rect x="1472" y="320" width="64" height="64" transform="rotate(-90 1472 320)" fill="#252500" fill-opacity="0.027451"/>
<rect x="128" y="384" width="64" height="64" transform="rotate(-90 128 384)" fill="#252500" fill-opacity="0.027451"/>
<rect x="256" y="384" width="64" height="64" transform="rotate(-90 256 384)" fill="#252500" fill-opacity="0.027451"/>
<rect x="384" y="384" width="64" height="64" transform="rotate(-90 384 384)" fill="#252500" fill-opacity="0.027451"/>
<rect x="512" y="384" width="64" height="64" transform="rotate(-90 512 384)" fill="#252500" fill-opacity="0.027451"/>
<rect x="640" y="384" width="64" height="64" transform="rotate(-90 640 384)" fill="#252500" fill-opacity="0.027451"/>
<rect x="768" y="384" width="64" height="64" transform="rotate(-90 768 384)" fill="#252500" fill-opacity="0.027451"/>
<rect x="896" y="384" width="64" height="64" transform="rotate(-90 896 384)" fill="#252500" fill-opacity="0.027451"/>
<rect x="1024" y="384" width="64" height="64" transform="rotate(-90 1024 384)" fill="#252500" fill-opacity="0.027451"/>
<rect x="1152" y="384" width="64" height="64" transform="rotate(-90 1152 384)" fill="#252500" fill-opacity="0.027451"/>
<rect x="1280" y="384" width="64" height="64" transform="rotate(-90 1280 384)" fill="#252500" fill-opacity="0.027451"/>
<rect x="1408" y="384" width="64" height="64" transform="rotate(-90 1408 384)" fill="#252500" fill-opacity="0.027451"/>
<rect x="1536" y="384" width="64" height="64" transform="rotate(-90 1536 384)" fill="#252500" fill-opacity="0.027451"/>
<rect x="64" y="448" width="64" height="64" transform="rotate(-90 64 448)" fill="#252500" fill-opacity="0.027451"/>
<rect x="192" y="448" width="64" height="64" transform="rotate(-90 192 448)" fill="#252500" fill-opacity="0.027451"/>
<rect x="320" y="448" width="64" height="64" transform="rotate(-90 320 448)" fill="#252500" fill-opacity="0.027451"/>
<rect x="448" y="448" width="64" height="64" transform="rotate(-90 448 448)" fill="#252500" fill-opacity="0.027451"/>
<rect x="576" y="448" width="64" height="64" transform="rotate(-90 576 448)" fill="#252500" fill-opacity="0.027451"/>
<rect x="704" y="448" width="64" height="64" transform="rotate(-90 704 448)" fill="#252500" fill-opacity="0.027451"/>
<rect x="832" y="448" width="64" height="64" transform="rotate(-90 832 448)" fill="#252500" fill-opacity="0.027451"/>
<rect x="960" y="448" width="64" height="64" transform="rotate(-90 960 448)" fill="#252500" fill-opacity="0.027451"/>
<rect x="1088" y="448" width="64" height="64" transform="rotate(-90 1088 448)" fill="#252500" fill-opacity="0.027451"/>
<rect x="1216" y="448" width="64" height="64" transform="rotate(-90 1216 448)" fill="#252500" fill-opacity="0.027451"/>
<rect x="1344" y="448" width="64" height="64" transform="rotate(-90 1344 448)" fill="#252500" fill-opacity="0.027451"/>
<rect x="1472" y="448" width="64" height="64" transform="rotate(-90 1472 448)" fill="#252500" fill-opacity="0.027451"/>
<rect x="1600" y="448" width="64" height="64" transform="rotate(-90 1600 448)" fill="#252500" fill-opacity="0.027451"/>
</g>
<defs>
<clipPath id="clip0_343_2945">
<rect width="1728" height="448" fill="white"/>
</clipPath>
</defs>
</svg>
