<svg width="16" height="16" viewBox="0 0 16 16" fill="none" xmlns="http://www.w3.org/2000/svg">
<g id="Arrows / arrow-top-right">
<rect width="16" height="16" fill="white" fill-opacity="0.01"/>
<path id="Vector" fill-rule="evenodd" clip-rule="evenodd" d="M3.88961 12.1107C3.68133 11.9024 3.68133 11.5647 3.88961 11.3565L10.9792 4.26686H6.40007C6.10552 4.26686 5.86673 4.02808 5.86673 3.73353C5.86673 3.43898 6.10552 3.2002 6.40007 3.2002H12.2667C12.4082 3.2002 12.5439 3.25639 12.6439 3.35641C12.7439 3.45643 12.8001 3.59208 12.8001 3.73353V9.6002C12.8001 9.89475 12.5612 10.1335 12.2667 10.1335C11.9722 10.1335 11.7334 9.89475 11.7334 9.6002V5.02111L4.64385 12.1107C4.43558 12.3189 4.09789 12.3189 3.88961 12.1107Z" fill="#63635E"/>
</g>
</svg>
