<svg width="18" height="18" viewBox="0 0 18 18" fill="none" xmlns="http://www.w3.org/2000/svg">
<g id="Arrows / arrow-down">
<path id="Vector" fill-rule="evenodd" clip-rule="evenodd" d="M9.0001 2.39999C9.33147 2.39999 9.6001 2.66863 9.6001 2.99999V13.5515L13.3758 9.77573C13.6101 9.54141 13.9901 9.54141 14.2244 9.77573C14.4587 10.01 14.4587 10.3899 14.2244 10.6243L9.42436 15.4243C9.31185 15.5368 9.15923 15.6 9.0001 15.6C8.84097 15.6 8.68835 15.5368 8.57584 15.4243L3.77584 10.6243C3.54152 10.3899 3.54152 10.01 3.77584 9.77573C4.01015 9.54141 4.39005 9.54141 4.62436 9.77573L8.4001 13.5515V2.99999C8.4001 2.66863 8.66873 2.39999 9.0001 2.39999Z" fill="#21201C"/>
</g>
</svg>
