<svg width="18" height="18" viewBox="0 0 18 18" fill="none" xmlns="http://www.w3.org/2000/svg">
<path d="M8.99992 2.29279C9.67076 2.29279 10.2737 2.66548 10.5736 3.26532L15.5215 13.161C15.7962 13.7103 15.7673 14.35 15.4448 14.8727C15.1218 15.3953 14.5623 15.7072 13.9483 15.7072H4.05202C3.43797 15.7072 2.8785 15.3953 2.5555 14.8727C2.2325 14.35 2.20366 13.7103 2.4783 13.161L7.42619 3.26532C7.72612 2.66548 8.32908 2.29279 8.99992 2.29279ZM8.99992 1.08334C7.8752 1.08334 6.84764 1.71868 6.34451 2.72449L1.39661 12.6202C0.936519 13.5403 0.985766 14.6335 1.52661 15.5085C2.06745 16.3838 3.02314 16.9167 4.05202 16.9167H13.9478C14.9767 16.9167 15.9324 16.3838 16.4732 15.5085C17.0141 14.6331 17.0633 13.5403 16.6032 12.6202L11.6553 2.72449C11.1526 1.71868 10.1246 1.08334 8.99992 1.08334Z" fill="#060500" fill-opacity="0.890196" stroke="#060500" stroke-opacity="0.890196"/>
</svg>
