<svg width="18" height="18" viewBox="0 0 18 18" fill="none" xmlns="http://www.w3.org/2000/svg">
<path fill-rule="evenodd" clip-rule="evenodd" d="M16.9923 2.5256C17.4115 2.10644 17.4115 1.42684 16.9923 1.00768C16.5732 0.588524 15.8935 0.588524 15.4745 1.00768L9.00003 7.48207L2.52567 1.00768C2.10649 0.588524 1.42689 0.588524 1.00773 1.00768C0.588569 1.42684 0.588569 2.10644 1.00773 2.5256L7.48211 8.99999L1.00773 15.4744C0.588569 15.8936 0.588569 16.5731 1.00773 16.9923C1.42689 17.4114 2.10649 17.4114 2.52567 16.9923L9.00003 10.5179L15.4745 16.9923C15.8935 17.4114 16.5732 17.4114 16.9923 16.9923C17.4115 16.5731 17.4115 15.8936 16.9923 15.4744L10.5179 8.99999L16.9923 2.5256Z" fill="#1B1B18"/>
</svg>
