<svg width="97" height="32" viewBox="0 0 97 32" fill="none" xmlns="http://www.w3.org/2000/svg">
<path d="M72.8877 25.2386C71.49 25.2386 70.2854 24.9716 69.2741 24.4375C68.2684 23.8977 67.4928 23.125 66.9473 22.1193C66.4076 21.108 66.1377 19.8977 66.1377 18.4886C66.1377 17.1364 66.4104 15.9546 66.9559 14.9432C67.5013 13.9318 68.2712 13.1449 69.2655 12.5824C70.2599 12.0199 71.4332 11.7386 72.7854 11.7386C73.7741 11.7386 74.6689 11.8921 75.4701 12.1989C76.2712 12.5057 76.9559 12.9517 77.5241 13.5369C78.0922 14.1165 78.5297 14.821 78.8366 15.6506C79.1434 16.4801 79.2968 17.4148 79.2968 18.4546V19.5455H67.6036V16.9546H74.9672C74.9616 16.5796 74.865 16.25 74.6775 15.9659C74.4956 15.6761 74.2485 15.4517 73.936 15.2926C73.6292 15.1279 73.2797 15.0455 72.8877 15.0455C72.507 15.0455 72.1576 15.1279 71.8394 15.2926C71.5212 15.4517 71.2655 15.6733 71.0723 15.9574C70.8848 16.2415 70.7854 16.5739 70.7741 16.9546V19.75C70.7741 20.1705 70.8621 20.5455 71.0383 20.875C71.2144 21.2046 71.4672 21.4631 71.7968 21.6506C72.1263 21.8381 72.5241 21.9318 72.99 21.9318C73.3138 21.9318 73.6093 21.8864 73.8763 21.7955C74.1491 21.7046 74.382 21.5739 74.5752 21.4034C74.7684 21.2273 74.9104 21.0171 75.0013 20.7727H79.2968C79.1491 21.6818 78.7996 22.4716 78.2485 23.1421C77.6974 23.8068 76.9672 24.3239 76.0582 24.6932C75.1547 25.0568 74.0979 25.2386 72.8877 25.2386Z" fill="#21201C"/>
<path d="M65.272 16.1705H60.9425C60.9197 15.9034 60.826 15.6733 60.6612 15.4801C60.4965 15.2869 60.2834 15.1392 60.022 15.0369C59.7663 14.929 59.4822 14.875 59.1697 14.875C58.7663 14.875 58.4197 14.9489 58.13 15.0966C57.8402 15.2443 57.6982 15.4546 57.7038 15.7273C57.6982 15.9205 57.7805 16.0994 57.951 16.2642C58.1271 16.429 58.4652 16.5568 58.9652 16.6477L61.6243 17.125C62.9652 17.3693 63.9624 17.7813 64.6158 18.3608C65.2749 18.9347 65.6072 19.7046 65.6129 20.6705C65.6072 21.6023 65.3288 22.4119 64.7777 23.0994C64.2322 23.7813 63.4851 24.3097 62.5362 24.6847C61.593 25.054 60.5163 25.2386 59.3061 25.2386C57.3061 25.2386 55.7408 24.8296 54.6101 24.0114C53.4851 23.1932 52.8572 22.1136 52.7266 20.7727H57.397C57.4595 21.1875 57.6641 21.5085 58.0107 21.7358C58.3629 21.9574 58.8061 22.0682 59.3402 22.0682C59.772 22.0682 60.1271 21.9943 60.4055 21.8466C60.6896 21.6989 60.8345 21.4886 60.8402 21.2159C60.8345 20.9659 60.7095 20.7671 60.4652 20.6193C60.2266 20.4716 59.8516 20.3523 59.3402 20.2614L57.022 19.8523C55.6868 19.6193 54.6868 19.1761 54.022 18.5227C53.3572 17.8693 53.0277 17.0284 53.0334 16C53.0277 15.0909 53.2663 14.321 53.7493 13.6904C54.2379 13.054 54.9339 12.571 55.8374 12.2415C56.7464 11.9063 57.8232 11.7386 59.0675 11.7386C60.9595 11.7386 62.451 12.1307 63.5419 12.9148C64.6385 13.6989 65.2152 14.7841 65.272 16.1705Z" fill="#21201C"/>
<path d="M47.0082 19.2728V11.9091H51.7127V25H47.2468V22.5114H47.1104C46.8264 23.3466 46.3292 24 45.619 24.4716C44.9087 24.9375 44.065 25.1705 43.0877 25.1705C42.1729 25.1705 41.3718 24.9603 40.6843 24.5398C40.0025 24.1193 39.4712 23.5398 39.0906 22.8012C38.7156 22.0625 38.5252 21.2159 38.5195 20.2614V11.9091H43.2241V19.2728C43.2298 19.9205 43.3945 20.429 43.7184 20.7983C44.0479 21.1676 44.5082 21.3523 45.0991 21.3523C45.4911 21.3523 45.8292 21.2699 46.1133 21.1051C46.4031 20.9347 46.6246 20.6961 46.7781 20.3892C46.9371 20.0767 47.0139 19.7046 47.0082 19.2728Z" fill="#21201C"/>
<path d="M37.5045 11.9091V15.3182H28.7432V11.9091H37.5045ZM30.4136 25V11.5341C30.4136 10.4546 30.6068 9.55968 30.9932 8.84945C31.3795 8.13923 31.925 7.60798 32.6295 7.2557C33.3341 6.90343 34.1636 6.72729 35.1182 6.72729C35.7148 6.72729 36.2943 6.77275 36.8568 6.86366C37.425 6.95457 37.8454 7.03411 38.1182 7.10229L37.4363 10.4773C37.2659 10.4262 37.067 10.3864 36.8398 10.358C36.6125 10.3239 36.4136 10.3068 36.2432 10.3068C35.8 10.3068 35.5017 10.4006 35.3483 10.5881C35.1949 10.7756 35.1182 11.0227 35.1182 11.3296V25H30.4136Z" fill="#21201C"/>
<path d="M22.1348 25.2386C20.737 25.2386 19.5325 24.9716 18.5211 24.4375C17.5154 23.8977 16.7399 23.125 16.1944 22.1193C15.6547 21.108 15.3848 19.8977 15.3848 18.4886C15.3848 17.1364 15.6575 15.9546 16.2029 14.9432C16.7484 13.9318 17.5183 13.1449 18.5126 12.5824C19.5069 12.0199 20.6802 11.7386 22.0325 11.7386C23.0211 11.7386 23.916 11.8921 24.7172 12.1989C25.5183 12.5057 26.2029 12.9517 26.7711 13.5369C27.3393 14.1165 27.7768 14.821 28.0836 15.6506C28.3904 16.4801 28.5439 17.4148 28.5439 18.4546V19.5455H16.8507V16.9546H24.2143C24.2086 16.5796 24.112 16.25 23.9245 15.9659C23.7427 15.6761 23.4956 15.4517 23.1831 15.2926C22.8762 15.1279 22.5268 15.0455 22.1348 15.0455C21.7541 15.0455 21.4047 15.1279 21.0865 15.2926C20.7683 15.4517 20.5126 15.6733 20.3194 15.9574C20.1319 16.2415 20.0325 16.5739 20.0211 16.9546V19.75C20.0211 20.1705 20.1092 20.5455 20.2853 20.875C20.4615 21.2046 20.7143 21.4631 21.0439 21.6506C21.3734 21.8381 21.7711 21.9318 22.237 21.9318C22.5609 21.9318 22.8564 21.8864 23.1234 21.7955C23.3961 21.7046 23.6291 21.5739 23.8223 21.4034C24.0154 21.2273 24.1575 21.0171 24.2484 20.7727H28.5439C28.3961 21.6818 28.0467 22.4716 27.4956 23.1421C26.9444 23.8068 26.2143 24.3239 25.3052 24.6932C24.4018 25.0568 23.345 25.2386 22.1348 25.2386Z" fill="#21201C"/>
<path d="M5.93191 25.1705C5.00009 25.1705 4.14213 24.9262 3.35804 24.4375C2.57963 23.9489 1.95463 23.2074 1.48304 22.2131C1.01713 21.2188 0.78418 19.9659 0.78418 18.4546C0.78418 16.875 1.0285 15.5909 1.51713 14.6023C2.01145 13.6137 2.64782 12.8892 3.42623 12.429C4.21032 11.9688 5.03418 11.7387 5.89782 11.7387C6.54554 11.7387 7.11373 11.8523 7.60236 12.0796C8.091 12.3012 8.50009 12.5994 8.82963 12.9744C9.15918 13.3438 9.40918 13.75 9.57963 14.1932H9.64782V7.54547H14.3524V25H9.68191V22.8523H9.57963C9.39782 23.2955 9.13645 23.6932 8.79554 24.0455C8.46032 24.3921 8.05123 24.6676 7.56827 24.8722C7.091 25.071 6.54554 25.1705 5.93191 25.1705ZM7.67054 21.5568C8.10236 21.5568 8.47168 21.4318 8.7785 21.1818C9.091 20.9262 9.32963 20.5682 9.49441 20.108C9.66486 19.6421 9.75009 19.0909 9.75009 18.4546C9.75009 17.8068 9.66486 17.2529 9.49441 16.7926C9.32963 16.3267 9.091 15.9716 8.7785 15.7273C8.47168 15.4773 8.10236 15.3523 7.67054 15.3523C7.23873 15.3523 6.86941 15.4773 6.56259 15.7273C6.26145 15.9716 6.0285 16.3267 5.86373 16.7926C5.70463 17.2529 5.62509 17.8068 5.62509 18.4546C5.62509 19.1023 5.70463 19.6591 5.86373 20.125C6.0285 20.5852 6.26145 20.9404 6.56259 21.1904C6.86941 21.4347 7.23873 21.5568 7.67054 21.5568Z" fill="#21201C"/>
<rect x="81" width="16" height="16" rx="8" fill="#F9F9F8"/>
<path fill-rule="evenodd" clip-rule="evenodd" d="M89 0C93.4121 0 97 3.58788 97 8C97 12.4121 93.4121 16 89 16C84.5879 16 81 12.4121 81 8C81 3.58788 84.5879 0 89 0ZM93.8808 11.1677C94.0586 10.9576 94.3818 10.9253 94.5919 11.103C94.802 11.2808 94.8182 11.604 94.6404 11.8141C92.3939 14.4485 91.2465 12.1051 90.5515 9.90707C87.3838 15.0303 83.0364 12.3475 83.2465 7.74141C83.4404 3.44242 88.4505 -0.0969697 90.7939 7.33737C91.3919 6.07677 91.9091 4.78384 92.4424 3.49091C92.5394 3.24849 92.8303 3.11919 93.0889 3.23232C93.3475 3.32929 93.4606 3.6202 93.3636 3.87879C92.6848 5.51111 92.0384 7.1596 91.2141 8.72727C91.6828 10.2465 92.1354 13.204 93.8808 11.1677ZM90.1475 8.61414C88.0949 1.72929 84.4263 3.7495 84.2323 7.7899C84.0384 11.9758 87.5293 13.4788 90.1475 8.61414Z" fill="#F76B15"/>
</svg>
