<svg width="18" height="18" viewBox="0 0 18 18" fill="none" xmlns="http://www.w3.org/2000/svg">
<path d="M9 1C4.58172 1 1 4.58172 1 9C1 13.4183 4.58172 17 9 17C13.4183 17 17 13.4183 17 9C17 4.58172 13.4183 1 9 1Z" fill="#30A46C"/>
<path d="M9 1C4.58172 1 1 4.58172 1 9C1 13.4183 4.58172 17 9 17C13.4183 17 17 13.4183 17 9C17 4.58172 13.4183 1 9 1Z" stroke="#F9F9F8" stroke-width="2"/>
<rect width="12" height="12" transform="translate(3 3)" fill="white" fill-opacity="0.01"/>
<path fill-rule="evenodd" clip-rule="evenodd" d="M12.1734 5.98196C12.4045 6.13308 12.4694 6.44295 12.3183 6.67407L8.91829 11.8741C8.83817 11.9966 8.70835 12.0778 8.56312 12.0964C8.41788 12.115 8.27181 12.0689 8.16347 11.9704L5.96347 9.97041C5.75914 9.78466 5.74409 9.46844 5.92984 9.26411C6.11559 9.05978 6.43181 9.04472 6.63614 9.23048L8.40224 10.836L11.4813 6.12682C11.6325 5.8957 11.9423 5.83085 12.1734 5.98196Z" fill="#FBFEFC"/>
</svg>
