<svg width="16" height="16" viewBox="0 0 16 16" fill="none" xmlns="http://www.w3.org/2000/svg">
<g id="Arrows / width">
<path id="Vector" fill-rule="evenodd" clip-rule="evenodd" d="M5.13939 4.99374C5.32685 5.18119 5.32685 5.48511 5.13939 5.67256L3.29214 7.51981H12.7078L10.8605 5.67256C10.6731 5.48511 10.6731 5.18119 10.8605 4.99374C11.0481 4.80629 11.352 4.80629 11.5394 4.99374L14.206 7.66041C14.3936 7.84785 14.3936 8.15178 14.206 8.33922L11.5394 11.0059C11.352 11.1933 11.0481 11.1933 10.8605 11.0059C10.6731 10.8185 10.6731 10.5145 10.8605 10.3271L12.7078 8.47981H3.29214L5.13939 10.3271C5.32685 10.5145 5.32685 10.8185 5.13939 11.0059C4.95195 11.1933 4.64802 11.1933 4.46058 11.0059L1.79391 8.33922C1.60646 8.15178 1.60646 7.84785 1.79391 7.66041L4.46058 4.99374C4.64802 4.80629 4.95195 4.80629 5.13939 4.99374Z" fill="#21201C"/>
</g>
</svg>
