<svg width="36" height="36" viewBox="0 0 35 36" fill="none" xmlns="http://www.w3.org/2000/svg">
<g id="Group">
<path id="Vector" d="M17.4115 3.17352C18.8657 3.17352 20.1728 3.99735 20.823 5.32332L31.5489 27.198C32.1442 28.4121 32.0817 29.8264 31.3825 30.9817C30.6823 32.137 29.4695 32.8265 28.1384 32.8265H6.68562C5.3545 32.8265 4.14168 32.137 3.44149 30.9817C2.74131 29.8264 2.67879 28.4121 3.27414 27.198L14 5.32332C14.6502 3.99735 15.9573 3.17352 17.4115 3.17352ZM17.4115 0.5C14.9734 0.5 12.7459 1.90443 11.6552 4.12779L0.929293 26.0024C-0.0680843 28.0365 0.0386738 30.4531 1.2111 32.3871C2.38352 34.3221 4.45522 35.5 6.68562 35.5H28.1374C30.3678 35.5 32.4395 34.3221 33.6119 32.3871C34.7844 30.4521 34.8911 28.0365 33.8937 26.0024L23.1678 4.12779C22.0781 1.90443 19.8497 0.5 17.4115 0.5Z" fill="#5DEB5A"/>
</g>
</svg>
