<svg
  xmlns="http://www.w3.org/2000/svg"
  width="1962"
  height="2596"
  clip-rule="evenodd"
  fill-rule="evenodd"
  image-rendering="optimizeQuality"
  text-rendering="geometricPrecision"
  shape-rendering="geometricPrecision"
  version="1.1"
  xml:space="preserve"
>
  <path
    stroke="null"
    d="m1952.30009,1044.29667c40.72,-272.26 -166.56,-418.61 -450,-516.24l91.95,-368.8l-224.5,-55.94l-89.51,359.09c-59.02,-14.72 -119.63,-28.59 -179.87,-42.34l90.16,-361.46l-224.36,-55.94l-92,368.68c-48.84,-11.12 -96.81,-22.11 -143.35,-33.69l0.26,-1.16l-309.59,-77.31l-59.72,239.78c0,0 166.56,38.18 163.05,40.53c90.91,22.69 107.35,82.87 104.62,130.57l-104.74,420.15c6.26,1.59 14.38,3.89 23.34,7.49c-7.49,-1.86 -15.46,-3.89 -23.73,-5.87l-146.81,588.57c-11.11,27.62 -39.31,69.07 -102.87,53.33c2.25,3.26 -163.17,-40.72 -163.17,-40.72l-111.46,256.98l292.15,72.83c54.35,13.63 107.61,27.89 160.06,41.3l-92.9,373.03l224.24,55.94l92,-369.07c61.26,16.63 120.71,31.97 178.91,46.43l-91.69,367.33l224.51,55.94l92.89,-372.33c382.82,72.45 670.67,43.24 791.83,-303.02c97.63,-278.78 -4.86,-439.58 -206.26,-544.44c146.69,-33.83 257.18,-130.31 286.64,-329.61l-0.07,-0.05l-0.01,0.02zm-512.93,719.26c-69.38,278.78 -538.76,128.08 -690.94,90.29l123.28,-494.2c152.17,37.99 640.17,113.17 567.67,403.91l-0.01,0zm69.43,-723.3c-63.29,253.58 -453.96,124.75 -580.69,93.16l111.77,-448.21c126.73,31.59 534.85,90.55 468.94,355.05l-0.02,0z"
    fill-rule="nonzero"
    fill="#F7931A"
  />
</svg>
