<svg enable-background="new 0 0 428 428" viewBox="0 0 428 428" xmlns="http://www.w3.org/2000/svg"><g fill="#00193c"><path d="m125.8 243.7c12.3 0 24.3-4.1 34-11.6l-78-78c-18.8 24.3-14.3 59.3 10 78.1 9.8 7.4 21.7 11.5 34 11.5z"/><path d="m357.8 188c0-12.3-4.1-24.3-11.6-34l-78 78c24.3 18.8 59.2 14.3 78-10 7.5-9.7 11.6-21.7 11.6-34z"/><path d="m397.1 103.1-34.5 34.5c27.8 33.3 23.4 82.9-9.9 110.7-29.2 24.4-71.6 24.4-100.8 0l-37.9 37.9-37.8-37.8c-33.3 27.8-82.9 23.4-110.7-9.9-24.4-29.2-24.4-71.6 0-100.8l-17.7-17.7-16.8-16.9c-20.3 33.4-31 71.8-31 110.9 0 118.2 95.8 214 214 214s214-95.8 214-214c.1-39.1-10.7-77.5-30.9-110.9z"/><path d="m368.8 66.3c-81.5-85.5-216.9-88.7-302.4-7.2-2.5 2.4-4.9 4.8-7.2 7.2-5.3 5.6-10.3 11.4-15 17.5l169.8 169.9 169.8-169.9c-4.6-6.1-9.7-11.9-15-17.5zm-154.8-38.3c50 0 96.6 19.3 131.6 54.5l-131.6 131.6-131.6-131.6c35-35.2 81.6-54.5 131.6-54.5z"/></g></svg>