<svg width="24" height="24" viewBox="0 0 24 24" fill="none" xmlns="http://www.w3.org/2000/svg">
<path d="M12.0084 5.37927C12.0505 4.79723 12.2427 4.23603 12.5663 3.75046C12.89 3.26488 13.334 2.87152 13.8551 2.60878C14.3761 2.34603 14.9564 2.22287 15.5393 2.25133C16.1221 2.27979 16.6876 2.45889 17.1806 2.77115C17.237 2.80802 17.2824 2.8594 17.312 2.91988C17.3417 2.98036 17.3545 3.04771 17.3491 3.11485C17.3437 3.18199 17.3204 3.24645 17.2815 3.30144C17.2426 3.35644 17.1896 3.39995 17.1281 3.4274C16.2711 3.81296 15.5437 4.43773 15.0331 5.22667C14.5226 6.01561 14.2507 6.93517 14.25 7.8749C14.25 7.98458 14.25 8.09427 14.2612 8.20208C14.2664 8.27023 14.2529 8.33849 14.2221 8.39949C14.1913 8.46049 14.1444 8.51192 14.0865 8.54821C14.0285 8.5845 13.9618 8.60427 13.8935 8.6054C13.8252 8.60652 13.7578 8.58895 13.6987 8.55458C13.1463 8.23855 12.6944 7.77274 12.3953 7.21089C12.0962 6.64904 11.9621 6.01408 12.0084 5.37927ZM22.5 15.0571C22.5013 15.4856 22.3826 15.906 22.1573 16.2706C21.9319 16.6351 21.609 16.9292 21.225 17.1196L21.1838 17.1383L17.5434 18.689C17.5075 18.7048 17.4701 18.7174 17.4319 18.7265L11.4319 20.2265C11.3724 20.2417 11.3114 20.2496 11.25 20.2499H1.5C1.10218 20.2499 0.720644 20.0919 0.43934 19.8106C0.158035 19.5293 0 19.1477 0 18.7499V14.9999C0 14.6021 0.158035 14.2205 0.43934 13.9392C0.720644 13.6579 1.10218 13.4999 1.5 13.4999H4.18969L6.31031 11.3783C6.58838 11.099 6.91904 10.8776 7.28319 10.7268C7.64733 10.576 8.03775 10.4989 8.43188 10.4999H13.125C13.5212 10.4999 13.9122 10.5895 14.2688 10.7621C14.6254 10.9346 14.9383 11.1857 15.1841 11.4964C15.4298 11.8071 15.6021 12.1694 15.6879 12.5562C15.7738 12.9429 15.7709 13.3441 15.6797 13.7296L19.6022 12.8277C19.9437 12.7373 20.3013 12.7265 20.6477 12.7961C20.994 12.8657 21.3197 13.014 21.5996 13.2294C21.8796 13.4448 22.1064 13.7216 22.2625 14.0385C22.4186 14.3553 22.4999 14.7038 22.5 15.0571ZM21 15.0571C20.9999 14.9331 20.9712 14.8108 20.9162 14.6996C20.8611 14.5885 20.7812 14.4916 20.6827 14.4163C20.5841 14.341 20.4695 14.2895 20.3478 14.2657C20.2261 14.2419 20.1006 14.2464 19.9809 14.279L19.9519 14.2865L13.6706 15.7311C13.6155 15.7434 13.5593 15.7497 13.5028 15.7499H10.5C10.3011 15.7499 10.1103 15.6709 9.96967 15.5302C9.82902 15.3896 9.75 15.1988 9.75 14.9999C9.75 14.801 9.82902 14.6102 9.96967 14.4696C10.1103 14.3289 10.3011 14.2499 10.5 14.2499H13.125C13.4234 14.2499 13.7095 14.1314 13.9205 13.9204C14.1315 13.7094 14.25 13.4233 14.25 13.1249C14.25 12.8265 14.1315 12.5404 13.9205 12.3294C13.7095 12.1184 13.4234 11.9999 13.125 11.9999H8.43188C8.23482 11.9993 8.03961 12.0378 7.85758 12.1133C7.67555 12.1888 7.51035 12.2997 7.37156 12.4396L5.25 14.5602V18.7499H11.1562L17.0091 17.2865L20.5716 15.7696C20.7012 15.7013 20.8097 15.5987 20.8852 15.4731C20.9608 15.3475 21.0005 15.2036 21 15.0571ZM15.75 7.8749C15.75 8.54241 15.9479 9.19493 16.3188 9.74994C16.6896 10.305 17.2167 10.7375 17.8334 10.993C18.4501 11.2484 19.1287 11.3153 19.7834 11.185C20.4381 11.0548 21.0395 10.7334 21.5115 10.2614C21.9835 9.78938 22.3049 9.18801 22.4352 8.53333C22.5654 7.87864 22.4985 7.20004 22.2431 6.58334C21.9876 5.96664 21.5551 5.43953 21 5.06869C20.445 4.69784 19.7925 4.4999 19.125 4.4999C18.2299 4.4999 17.3715 4.85547 16.7385 5.48841C16.1056 6.12135 15.75 6.97979 15.75 7.8749Z" fill="#F76B15"/>
</svg>
