<svg width="24" height="24" viewBox="0 0 24 24" fill="none" xmlns="http://www.w3.org/2000/svg">
<g id="Percent">
<path id="Vector" d="M16.5 16.125C16.5 16.3475 16.434 16.565 16.3104 16.75C16.1868 16.935 16.0111 17.0792 15.8055 17.1644C15.6 17.2495 15.3738 17.2718 15.1555 17.2284C14.9373 17.185 14.7368 17.0778 14.5795 16.9205C14.4222 16.7632 14.315 16.5627 14.2716 16.3445C14.2282 16.1262 14.2505 15.9 14.3356 15.6945C14.4208 15.4889 14.565 15.3132 14.75 15.1896C14.935 15.066 15.1525 15 15.375 15C15.6734 15 15.9595 15.1185 16.1705 15.3295C16.3815 15.5405 16.5 15.8266 16.5 16.125ZM8.625 9C8.8475 9 9.06501 8.93402 9.25002 8.8104C9.43502 8.68679 9.57922 8.51109 9.66436 8.30552C9.74951 8.09995 9.77179 7.87375 9.72838 7.65552C9.68498 7.43729 9.57783 7.23684 9.4205 7.0795C9.26316 6.92217 9.06271 6.81502 8.84448 6.77162C8.62625 6.72821 8.40005 6.75049 8.19448 6.83564C7.98891 6.92078 7.81321 7.06498 7.6896 7.24998C7.56598 7.43499 7.5 7.6525 7.5 7.875C7.5 8.17337 7.61853 8.45952 7.8295 8.6705C8.04048 8.88147 8.32663 9 8.625 9ZM21 4.5V19.5C21 19.8978 20.842 20.2794 20.5607 20.5607C20.2794 20.842 19.8978 21 19.5 21H4.5C4.10218 21 3.72064 20.842 3.43934 20.5607C3.15804 20.2794 3 19.8978 3 19.5V4.5C3 4.10218 3.15804 3.72064 3.43934 3.43934C3.72064 3.15804 4.10218 3 4.5 3H19.5C19.8978 3 20.2794 3.15804 20.5607 3.43934C20.842 3.72064 21 4.10218 21 4.5ZM6 7.875C6 8.39418 6.15395 8.90169 6.44239 9.33337C6.73083 9.76505 7.1408 10.1015 7.62046 10.3002C8.10011 10.4989 8.62791 10.5508 9.13711 10.4496C9.64631 10.3483 10.114 10.0983 10.4812 9.73116C10.8483 9.36404 11.0983 8.89631 11.1996 8.38711C11.3008 7.87791 11.2489 7.35011 11.0502 6.87046C10.8515 6.3908 10.5151 5.98083 10.0834 5.69239C9.65169 5.40395 9.14418 5.25 8.625 5.25C7.92881 5.25 7.26113 5.52656 6.76884 6.01884C6.27656 6.51113 6 7.17881 6 7.875ZM18 16.125C18 15.6058 17.846 15.0983 17.5576 14.6666C17.2692 14.2349 16.8592 13.8985 16.3795 13.6998C15.8999 13.5011 15.3721 13.4492 14.8629 13.5504C14.3537 13.6517 13.886 13.9017 13.5188 14.2688C13.1517 14.636 12.9017 15.1037 12.8004 15.6129C12.6992 16.1221 12.7511 16.6499 12.9498 17.1295C13.1485 17.6092 13.4849 18.0192 13.9166 18.3076C14.3483 18.596 14.8558 18.75 15.375 18.75C16.0712 18.75 16.7389 18.4734 17.2312 17.9812C17.7234 17.4889 18 16.8212 18 16.125ZM17.7806 6.21937C17.711 6.14964 17.6283 6.09432 17.5372 6.05658C17.4462 6.01884 17.3486 5.99941 17.25 5.99941C17.1514 5.99941 17.0538 6.01884 16.9628 6.05658C16.8717 6.09432 16.789 6.14964 16.7194 6.21937L6.21937 16.7194C6.07864 16.8601 5.99958 17.051 5.99958 17.25C5.99958 17.449 6.07864 17.6399 6.21937 17.7806C6.36011 17.9214 6.55098 18.0004 6.75 18.0004C6.94902 18.0004 7.13989 17.9214 7.28063 17.7806L17.7806 7.28063C17.8504 7.21097 17.9057 7.12825 17.9434 7.03721C17.9812 6.94616 18.0006 6.84856 18.0006 6.75C18.0006 6.65144 17.9812 6.55384 17.9434 6.46279C17.9057 6.37175 17.8504 6.28903 17.7806 6.21937Z" fill="#F76B15"/>
</g>
</svg>
