<svg width="103" height="20" viewBox="0 0 103 20" fill="none" xmlns="http://www.w3.org/2000/svg">
<path d="M10 3.96351C10.6038 3.96351 11.1464 4.29892 11.4164 4.83878L15.8695 13.7449C16.1166 14.2392 16.0907 14.815 15.8004 15.2854C15.5097 15.7558 15.0062 16.0365 14.4535 16.0365H5.5469C4.99425 16.0365 4.49072 15.7558 4.20002 15.2854C3.90932 14.815 3.88337 14.2392 4.13054 13.7449L8.58365 4.83878C8.85358 4.29892 9.39624 3.96351 10 3.96351ZM10 2.875C8.98775 2.875 8.06295 3.44681 7.61013 4.35203L3.15702 13.2581C2.74294 14.0863 2.78726 15.0702 3.27402 15.8576C3.76078 16.6454 4.6209 17.125 5.5469 17.125H14.4531C15.3791 17.125 16.2392 16.6454 16.726 15.8576C17.2127 15.0698 17.2571 14.0863 16.843 13.2581L12.3899 4.35203C11.9375 3.44681 11.0123 2.875 10 2.875Z" fill="currentColor" stroke="currentColor" stroke-width="0.5"/>
<path d="M23.9787 15H22.348L26.0121 4.81818H27.7869L31.451 15H29.8203L26.9418 6.66761H26.8622L23.9787 15ZM24.2521 11.0128H29.5419V12.3054H24.2521V11.0128ZM37.6394 11.8331V7.36364H39.1309V15H37.6692V13.6776H37.5897C37.414 14.0852 37.1323 14.425 36.7445 14.6967C36.36 14.9652 35.8811 15.0994 35.3077 15.0994C34.8172 15.0994 34.383 14.9917 34.0051 14.7763C33.6306 14.5575 33.3356 14.2344 33.1202 13.8068C32.9081 13.3793 32.802 12.8506 32.802 12.2209V7.36364H34.2885V12.0419C34.2885 12.5623 34.4327 12.9766 34.7211 13.2848C35.0094 13.593 35.3839 13.7472 35.8446 13.7472C36.123 13.7472 36.3998 13.6776 36.6749 13.5384C36.9533 13.3991 37.1837 13.1887 37.3659 12.907C37.5516 12.6252 37.6427 12.2673 37.6394 11.8331ZM41.1282 15V7.36364H42.565V8.5767H42.6445C42.7837 8.16572 43.029 7.84257 43.3803 7.60724C43.735 7.36861 44.136 7.24929 44.5835 7.24929C44.6763 7.24929 44.7856 7.2526 44.9116 7.25923C45.0408 7.26586 45.1419 7.27415 45.2148 7.28409V8.70597C45.1552 8.68939 45.0491 8.67116 44.8967 8.65128C44.7442 8.62808 44.5917 8.61648 44.4393 8.61648C44.088 8.61648 43.7747 8.69105 43.4996 8.8402C43.2279 8.98603 43.0124 9.18987 42.8533 9.4517C42.6942 9.71023 42.6147 10.0052 42.6147 10.3366V15H41.1282ZM49.4444 15.1541C48.7285 15.1541 48.1038 14.9901 47.5701 14.6619C47.0365 14.3338 46.6222 13.8748 46.3272 13.2848C46.0323 12.6948 45.8848 12.0054 45.8848 11.2166C45.8848 10.4245 46.0323 9.73177 46.3272 9.13849C46.6222 8.54522 47.0365 8.08452 47.5701 7.75639C48.1038 7.42827 48.7285 7.2642 49.4444 7.2642C50.1603 7.2642 50.7851 7.42827 51.3187 7.75639C51.8523 8.08452 52.2666 8.54522 52.5616 9.13849C52.8566 9.73177 53.0041 10.4245 53.0041 11.2166C53.0041 12.0054 52.8566 12.6948 52.5616 13.2848C52.2666 13.8748 51.8523 14.3338 51.3187 14.6619C50.7851 14.9901 50.1603 15.1541 49.4444 15.1541ZM49.4494 13.9062C49.9134 13.9062 50.2979 13.7836 50.6028 13.5384C50.9077 13.2931 51.1331 12.9666 51.2789 12.5589C51.4281 12.1513 51.5027 11.7022 51.5027 11.2116C51.5027 10.7244 51.4281 10.277 51.2789 9.86932C51.1331 9.45833 50.9077 9.12855 50.6028 8.87997C50.2979 8.63139 49.9134 8.5071 49.4494 8.5071C48.9821 8.5071 48.5943 8.63139 48.286 8.87997C47.9811 9.12855 47.7541 9.45833 47.6049 9.86932C47.4591 10.277 47.3862 10.7244 47.3862 11.2116C47.3862 11.7022 47.4591 12.1513 47.6049 12.5589C47.7541 12.9666 47.9811 13.2931 48.286 13.5384C48.5943 13.7836 48.9821 13.9062 49.4494 13.9062ZM54.6634 15V7.36364H56.1001V8.5767H56.1797C56.3189 8.16572 56.5642 7.84257 56.9155 7.60724C57.2701 7.36861 57.6712 7.24929 58.1186 7.24929C58.2114 7.24929 58.3208 7.2526 58.4467 7.25923C58.576 7.26586 58.6771 7.27415 58.75 7.28409V8.70597C58.6903 8.68939 58.5843 8.67116 58.4318 8.65128C58.2794 8.62808 58.1269 8.61648 57.9744 8.61648C57.6231 8.61648 57.3099 8.69105 57.0348 8.8402C56.763 8.98603 56.5476 9.18987 56.3885 9.4517C56.2294 9.71023 56.1499 10.0052 56.1499 10.3366V15H54.6634ZM62.1903 15.169C61.7064 15.169 61.2689 15.0795 60.8778 14.9006C60.4867 14.7183 60.1768 14.4548 59.9482 14.1101C59.7228 13.7654 59.6101 13.3428 59.6101 12.8423C59.6101 12.4115 59.6929 12.0568 59.8587 11.7784C60.0244 11.5 60.2481 11.2796 60.5298 11.1172C60.8116 10.9548 61.1264 10.8321 61.4744 10.7493C61.8224 10.6664 62.1771 10.6035 62.5384 10.5604C62.9957 10.5073 63.367 10.4643 63.652 10.4311C63.937 10.3946 64.1442 10.3366 64.2734 10.2571C64.4027 10.1776 64.4673 10.0483 64.4673 9.86932V9.83452C64.4673 9.40033 64.3447 9.06392 64.0994 8.82528C63.8575 8.58665 63.4962 8.46733 63.0156 8.46733C62.5152 8.46733 62.1207 8.57836 61.8324 8.80043C61.5473 9.01918 61.3501 9.26278 61.2408 9.53125L59.8438 9.21307C60.0095 8.74905 60.2514 8.37453 60.5696 8.08949C60.8911 7.80114 61.2607 7.59233 61.6783 7.46307C62.0959 7.33049 62.535 7.2642 62.9957 7.2642C63.3007 7.2642 63.6238 7.30066 63.9652 7.37358C64.3099 7.44318 64.6314 7.57244 64.9297 7.76136C65.2313 7.95028 65.4782 8.22041 65.6705 8.57173C65.8627 8.91974 65.9588 9.37216 65.9588 9.92898V15H64.5071V13.956H64.4474C64.3513 14.1482 64.2071 14.3371 64.0149 14.5227C63.8227 14.7083 63.5758 14.8625 63.2741 14.9851C62.9725 15.1077 62.6113 15.169 62.1903 15.169ZM62.5135 13.9759C62.9245 13.9759 63.2758 13.8946 63.5675 13.7322C63.8625 13.5698 64.0862 13.3577 64.2386 13.0959C64.3944 12.8307 64.4723 12.5473 64.4723 12.2457V11.2614C64.4193 11.3144 64.3165 11.3641 64.1641 11.4105C64.0149 11.4536 63.8442 11.4917 63.652 11.5249C63.4598 11.5547 63.2725 11.5829 63.0902 11.6094C62.9079 11.6326 62.7554 11.6525 62.6328 11.669C62.3445 11.7055 62.081 11.7668 61.8423 11.853C61.607 11.9392 61.4181 12.0634 61.2756 12.2259C61.1364 12.3849 61.0668 12.5971 61.0668 12.8622C61.0668 13.2301 61.2027 13.5085 61.4744 13.6974C61.7462 13.883 62.0926 13.9759 62.5135 13.9759ZM71.7631 15V4.81818H73.2994V13.6776H77.913V15H71.7631ZM81.7685 15.169C81.2846 15.169 80.8471 15.0795 80.456 14.9006C80.0649 14.7183 79.755 14.4548 79.5263 14.1101C79.3009 13.7654 79.1882 13.3428 79.1882 12.8423C79.1882 12.4115 79.2711 12.0568 79.4368 11.7784C79.6025 11.5 79.8262 11.2796 80.108 11.1172C80.3897 10.9548 80.7045 10.8321 81.0526 10.7493C81.4006 10.6664 81.7552 10.6035 82.1165 10.5604C82.5739 10.5073 82.9451 10.4643 83.2301 10.4311C83.5152 10.3946 83.7223 10.3366 83.8516 10.2571C83.9808 10.1776 84.0455 10.0483 84.0455 9.86932V9.83452C84.0455 9.40033 83.9228 9.06392 83.6776 8.82528C83.4356 8.58665 83.0743 8.46733 82.5938 8.46733C82.0933 8.46733 81.6989 8.57836 81.4105 8.80043C81.1255 9.01918 80.9283 9.26278 80.8189 9.53125L79.4219 9.21307C79.5876 8.74905 79.8295 8.37453 80.1477 8.08949C80.4692 7.80114 80.8388 7.59233 81.2564 7.46307C81.674 7.33049 82.1132 7.2642 82.5739 7.2642C82.8788 7.2642 83.2019 7.30066 83.5433 7.37358C83.888 7.44318 84.2095 7.57244 84.5078 7.76136C84.8094 7.95028 85.0563 8.22041 85.2486 8.57173C85.4408 8.91974 85.5369 9.37216 85.5369 9.92898V15H84.0852V13.956H84.0256C83.9295 14.1482 83.7853 14.3371 83.593 14.5227C83.4008 14.7083 83.1539 14.8625 82.8523 14.9851C82.5507 15.1077 82.1894 15.169 81.7685 15.169ZM82.0916 13.9759C82.5026 13.9759 82.8539 13.8946 83.1456 13.7322C83.4406 13.5698 83.6643 13.3577 83.8168 13.0959C83.9725 12.8307 84.0504 12.5473 84.0504 12.2457V11.2614C83.9974 11.3144 83.8946 11.3641 83.7422 11.4105C83.593 11.4536 83.4223 11.4917 83.2301 11.5249C83.0379 11.5547 82.8506 11.5829 82.6683 11.6094C82.486 11.6326 82.3336 11.6525 82.2109 11.669C81.9226 11.7055 81.6591 11.7668 81.4205 11.853C81.1851 11.9392 80.9962 12.0634 80.8537 12.2259C80.7145 12.3849 80.6449 12.5971 80.6449 12.8622C80.6449 13.2301 80.7808 13.5085 81.0526 13.6974C81.3243 13.883 81.6707 13.9759 82.0916 13.9759ZM87.6362 15V4.81818H89.1227V8.60156H89.2122C89.2984 8.44247 89.4226 8.25852 89.585 8.04972C89.7475 7.84091 89.9728 7.65862 90.2612 7.50284C90.5495 7.34375 90.9307 7.2642 91.4047 7.2642C92.0211 7.2642 92.5713 7.41998 93.0552 7.73153C93.5391 8.04309 93.9186 8.49219 94.1937 9.07884C94.4721 9.66548 94.6113 10.3714 94.6113 11.1967C94.6113 12.022 94.4738 12.7296 94.1987 13.3196C93.9236 13.9062 93.5458 14.3587 93.0652 14.6768C92.5846 14.9917 92.036 15.1491 91.4196 15.1491C90.9556 15.1491 90.5761 15.0713 90.2811 14.9155C89.9894 14.7597 89.7607 14.5774 89.595 14.3686C89.4293 14.1598 89.3017 13.9742 89.2122 13.8118H89.0879V15H87.6362ZM89.0929 11.1818C89.0929 11.7187 89.1708 12.1894 89.3265 12.5938C89.4823 12.9981 89.7077 13.3146 90.0027 13.5433C90.2976 13.7687 90.6589 13.8814 91.0865 13.8814C91.5306 13.8814 91.9018 13.7637 92.2001 13.5284C92.4984 13.2898 92.7238 12.9666 92.8762 12.5589C93.032 12.1513 93.1099 11.6922 93.1099 11.1818C93.1099 10.678 93.0337 10.2256 92.8812 9.82457C92.7321 9.42353 92.5067 9.10701 92.2051 8.875C91.9068 8.64299 91.5339 8.52699 91.0865 8.52699C90.6556 8.52699 90.291 8.63802 89.9927 8.86009C89.6977 9.08215 89.474 9.39205 89.3216 9.78977C89.1691 10.1875 89.0929 10.6515 89.0929 11.1818ZM102.003 9.22798L100.656 9.46662C100.599 9.29427 100.51 9.13021 100.387 8.97443C100.268 8.81865 100.105 8.69105 99.8999 8.59162C99.6944 8.49219 99.4375 8.44247 99.1293 8.44247C98.7083 8.44247 98.357 8.53693 98.0753 8.72585C97.7936 8.91146 97.6527 9.15175 97.6527 9.44673C97.6527 9.70194 97.7472 9.90743 97.9361 10.0632C98.125 10.219 98.4299 10.3466 98.8509 10.446L100.064 10.7244C100.767 10.8868 101.29 11.1371 101.635 11.4751C101.98 11.8132 102.152 12.2524 102.152 12.7926C102.152 13.25 102.019 13.6577 101.754 14.0156C101.492 14.3703 101.126 14.6487 100.656 14.8509C100.188 15.053 99.6463 15.1541 99.0298 15.1541C98.1747 15.1541 97.477 14.9718 96.9368 14.6072C96.3965 14.2393 96.0651 13.7173 95.9425 13.0412L97.3793 12.8224C97.4688 13.197 97.6527 13.4804 97.9311 13.6726C98.2095 13.8615 98.5724 13.956 99.0199 13.956C99.5071 13.956 99.8965 13.8549 100.188 13.6527C100.48 13.4472 100.626 13.197 100.626 12.902C100.626 12.6634 100.536 12.4628 100.357 12.3004C100.182 12.138 99.9115 12.0154 99.5469 11.9325L98.2543 11.6491C97.5417 11.4867 97.0147 11.2282 96.6733 10.8736C96.3352 10.5189 96.1662 10.0698 96.1662 9.52628C96.1662 9.07552 96.2921 8.68111 96.544 8.34304C96.7959 8.00497 97.1439 7.74148 97.5881 7.55256C98.0322 7.36032 98.541 7.2642 99.1143 7.2642C99.9396 7.2642 100.589 7.44318 101.063 7.80114C101.537 8.15578 101.85 8.63139 102.003 9.22798Z" fill="currentColor"/>
</svg>
