<svg width="86" height="20" viewBox="0 0 86 20" fill="none" xmlns="http://www.w3.org/2000/svg">
<path d="M4.80469 2V9.12072H3V10.8793H4.80469V18H9.41211C14.6621 18 17 15.218 17 10C17 5.76216 14.7988 2 9.41211 2H4.80469ZM14.2109 10C14.2109 13.2758 12.625 15.0226 9.82227 15.0226H7.70313V10.8793H10.8203V9.12072H7.70313V4.97773H9.66969C12.5443 4.97773 14.2109 7.33968 14.2109 10Z" fill="currentColor"/>
<path d="M26.4148 15H23.1186V4.81818H26.5192C27.5168 4.81818 28.3736 5.02202 29.0895 5.42969C29.8054 5.83404 30.3539 6.41572 30.7351 7.17472C31.1196 7.9304 31.3118 8.83688 31.3118 9.89418C31.3118 10.9548 31.1179 11.8662 30.7301 12.6286C30.3456 13.3909 29.7888 13.9775 29.0597 14.3885C28.3305 14.7962 27.4489 15 26.4148 15ZM24.6548 13.6577H26.3303C27.1058 13.6577 27.7505 13.5118 28.2642 13.2202C28.7779 12.9252 29.1624 12.4993 29.4176 11.9425C29.6728 11.3823 29.8004 10.6996 29.8004 9.89418C29.8004 9.09541 29.6728 8.41761 29.4176 7.8608C29.1657 7.30398 28.7895 6.88139 28.2891 6.59304C27.7886 6.30469 27.1671 6.16051 26.4247 6.16051H24.6548V13.6577ZM36.3194 15.1541C35.6035 15.1541 34.9788 14.9901 34.4451 14.6619C33.9115 14.3338 33.4972 13.8748 33.2022 13.2848C32.9073 12.6948 32.7598 12.0054 32.7598 11.2166C32.7598 10.4245 32.9073 9.73177 33.2022 9.13849C33.4972 8.54522 33.9115 8.08452 34.4451 7.75639C34.9788 7.42827 35.6035 7.2642 36.3194 7.2642C37.0353 7.2642 37.6601 7.42827 38.1937 7.75639C38.7273 8.08452 39.1416 8.54522 39.4366 9.13849C39.7316 9.73177 39.8791 10.4245 39.8791 11.2166C39.8791 12.0054 39.7316 12.6948 39.4366 13.2848C39.1416 13.8748 38.7273 14.3338 38.1937 14.6619C37.6601 14.9901 37.0353 15.1541 36.3194 15.1541ZM36.3244 13.9062C36.7884 13.9062 37.1729 13.7836 37.4778 13.5384C37.7827 13.2931 38.0081 12.9666 38.1539 12.5589C38.3031 12.1513 38.3777 11.7022 38.3777 11.2116C38.3777 10.7244 38.3031 10.277 38.1539 9.86932C38.0081 9.45833 37.7827 9.12855 37.4778 8.87997C37.1729 8.63139 36.7884 8.5071 36.3244 8.5071C35.8571 8.5071 35.4693 8.63139 35.161 8.87997C34.8561 9.12855 34.6291 9.45833 34.4799 9.86932C34.3341 10.277 34.2612 10.7244 34.2612 11.2116C34.2612 11.7022 34.3341 12.1513 34.4799 12.5589C34.6291 12.9666 34.8561 13.2931 35.161 13.5384C35.4693 13.7836 35.8571 13.9062 36.3244 13.9062ZM44.7401 18.0227C44.1335 18.0227 43.6115 17.9432 43.174 17.7841C42.7398 17.625 42.3852 17.4145 42.1101 17.1527C41.835 16.8909 41.6295 16.6042 41.4936 16.2926L42.7713 15.7656C42.8608 15.9115 42.9801 16.0656 43.1293 16.228C43.2817 16.3937 43.4872 16.5346 43.7457 16.6506C44.0076 16.7666 44.344 16.8246 44.755 16.8246C45.3184 16.8246 45.7841 16.687 46.152 16.4119C46.5199 16.1402 46.7038 15.706 46.7038 15.1094V13.608H46.6094C46.5199 13.7704 46.3906 13.951 46.2216 14.1499C46.0559 14.3487 45.8272 14.5211 45.5355 14.6669C45.2438 14.8127 44.8643 14.8857 44.397 14.8857C43.7938 14.8857 43.2502 14.7448 42.7663 14.4631C42.2857 14.178 41.9046 13.7588 41.6229 13.2053C41.3445 12.6484 41.2053 11.964 41.2053 11.152C41.2053 10.34 41.3428 9.64394 41.6179 9.06392C41.8963 8.4839 42.2775 8.03977 42.7614 7.73153C43.2453 7.41998 43.7938 7.2642 44.407 7.2642C44.8809 7.2642 45.2637 7.34375 45.5554 7.50284C45.8471 7.65862 46.0741 7.84091 46.2365 8.04972C46.4022 8.25852 46.5298 8.44247 46.6193 8.60156H46.7287V7.36364H48.1854V15.169C48.1854 15.8253 48.0329 16.3639 47.728 16.7848C47.4231 17.2057 47.0104 17.5173 46.4901 17.7195C45.973 17.9216 45.3897 18.0227 44.7401 18.0227ZM44.7251 13.6527C45.1527 13.6527 45.514 13.5533 45.8089 13.3544C46.1072 13.1522 46.3326 12.8639 46.4851 12.4893C46.6409 12.1115 46.7188 11.6591 46.7188 11.1321C46.7188 10.6184 46.6425 10.166 46.4901 9.77486C46.3376 9.38376 46.1139 9.07884 45.8189 8.86009C45.5239 8.63802 45.1593 8.52699 44.7251 8.52699C44.2777 8.52699 43.9048 8.64299 43.6065 8.875C43.3082 9.10369 43.0829 9.41525 42.9304 9.80966C42.7813 10.2041 42.7067 10.6449 42.7067 11.1321C42.7067 11.6326 42.7829 12.0717 42.9354 12.4496C43.0878 12.8274 43.3132 13.1224 43.6115 13.3345C43.9131 13.5466 44.2843 13.6527 44.7251 13.6527ZM53.4702 15.1541C52.7178 15.1541 52.0698 14.9934 51.5263 14.6719C50.986 14.3471 50.5684 13.8913 50.2734 13.3047C49.9818 12.7147 49.8359 12.0237 49.8359 11.2315C49.8359 10.4493 49.9818 9.75994 50.2734 9.16335C50.5684 8.56676 50.9794 8.10109 51.5064 7.76633C52.0367 7.43158 52.6565 7.2642 53.3658 7.2642C53.7966 7.2642 54.2143 7.33546 54.6186 7.47798C55.023 7.6205 55.3859 7.84422 55.7074 8.14915C56.0289 8.45407 56.2824 8.85014 56.468 9.33736C56.6536 9.82126 56.7464 10.4096 56.7464 11.1023V11.6293H50.6761V10.5156H55.2898C55.2898 10.1245 55.2102 9.77817 55.0511 9.47656C54.892 9.17164 54.6683 8.93134 54.38 8.75568C54.0949 8.58002 53.7602 8.49219 53.3757 8.49219C52.9581 8.49219 52.5935 8.59493 52.282 8.80043C51.9737 9.0026 51.7351 9.26776 51.5661 9.59588C51.4003 9.92069 51.3175 10.2737 51.3175 10.6548V11.5249C51.3175 12.0353 51.407 12.4695 51.5859 12.8274C51.7682 13.1854 52.0218 13.4588 52.3466 13.6477C52.6714 13.8333 53.0509 13.9261 53.4851 13.9261C53.7668 13.9261 54.0237 13.8864 54.2557 13.8068C54.4877 13.724 54.6882 13.6013 54.8572 13.4389C55.0263 13.2765 55.1555 13.076 55.245 12.8374L56.652 13.0909C56.5393 13.5052 56.3371 13.8681 56.0455 14.1797C55.7571 14.4879 55.3942 14.7282 54.9567 14.9006C54.5225 15.0696 54.027 15.1541 53.4702 15.1541ZM61.6124 15.1541C60.8733 15.1541 60.2369 14.9867 59.7033 14.652C59.173 14.3139 58.7653 13.8482 58.4803 13.255C58.1953 12.6617 58.0527 11.9822 58.0527 11.2166C58.0527 10.4411 58.1986 9.75663 58.4902 9.16335C58.7819 8.56676 59.1929 8.10109 59.7232 7.76633C60.2535 7.43158 60.8783 7.2642 61.5975 7.2642C62.1775 7.2642 62.6945 7.37192 63.1486 7.58736C63.6027 7.79948 63.9689 8.09777 64.2473 8.48224C64.5291 8.86671 64.6964 9.31581 64.7495 9.82955H63.3027C63.2232 9.47159 63.0409 9.16335 62.7559 8.90483C62.4741 8.64631 62.0963 8.51705 61.6223 8.51705C61.208 8.51705 60.8451 8.62642 60.5336 8.84517C60.2253 9.06061 59.985 9.36884 59.8127 9.76989C59.6403 10.1676 59.5542 10.6383 59.5542 11.1818C59.5542 11.7386 59.6387 12.2192 59.8077 12.6236C59.9767 13.0279 60.2154 13.3411 60.5236 13.5632C60.8352 13.7853 61.2014 13.8963 61.6223 13.8963C61.9041 13.8963 62.1593 13.8449 62.388 13.7422C62.62 13.6361 62.8139 13.4853 62.9696 13.2898C63.1287 13.0942 63.2398 12.8589 63.3027 12.5838H64.7495C64.6964 13.0777 64.5357 13.5185 64.2672 13.9062C63.9988 14.294 63.6391 14.599 63.1884 14.821C62.7409 15.0431 62.2156 15.1541 61.6124 15.1541ZM69.5558 15.1541C68.8398 15.1541 68.2151 14.9901 67.6815 14.6619C67.1478 14.3338 66.7335 13.8748 66.4386 13.2848C66.1436 12.6948 65.9961 12.0054 65.9961 11.2166C65.9961 10.4245 66.1436 9.73177 66.4386 9.13849C66.7335 8.54522 67.1478 8.08452 67.6815 7.75639C68.2151 7.42827 68.8398 7.2642 69.5558 7.2642C70.2717 7.2642 70.8964 7.42827 71.43 7.75639C71.9637 8.08452 72.378 8.54522 72.6729 9.13849C72.9679 9.73177 73.1154 10.4245 73.1154 11.2166C73.1154 12.0054 72.9679 12.6948 72.6729 13.2848C72.378 13.8748 71.9637 14.3338 71.43 14.6619C70.8964 14.9901 70.2717 15.1541 69.5558 15.1541ZM69.5607 13.9062C70.0247 13.9062 70.4092 13.7836 70.7141 13.5384C71.0191 13.2931 71.2444 12.9666 71.3903 12.5589C71.5394 12.1513 71.614 11.7022 71.614 11.2116C71.614 10.7244 71.5394 10.277 71.3903 9.86932C71.2444 9.45833 71.0191 9.12855 70.7141 8.87997C70.4092 8.63139 70.0247 8.5071 69.5607 8.5071C69.0934 8.5071 68.7056 8.63139 68.3974 8.87997C68.0924 9.12855 67.8654 9.45833 67.7163 9.86932C67.5704 10.277 67.4975 10.7244 67.4975 11.2116C67.4975 11.7022 67.5704 12.1513 67.7163 12.5589C67.8654 12.9666 68.0924 13.2931 68.3974 13.5384C68.7056 13.7836 69.0934 13.9062 69.5607 13.9062ZM74.7747 15V7.36364H76.2612V15H74.7747ZM75.5254 6.18537C75.2669 6.18537 75.0448 6.09919 74.8592 5.92685C74.6769 5.75118 74.5858 5.54238 74.5858 5.30043C74.5858 5.05516 74.6769 4.84635 74.8592 4.67401C75.0448 4.49834 75.2669 4.41051 75.5254 4.41051C75.7839 4.41051 76.0043 4.49834 76.1866 4.67401C76.3722 4.84635 76.465 5.05516 76.465 5.30043C76.465 5.54238 76.3722 5.75118 76.1866 5.92685C76.0043 6.09919 75.7839 6.18537 75.5254 6.18537ZM79.7475 10.4659V15H78.261V7.36364H79.6879V8.60653H79.7823C79.958 8.20218 80.2331 7.87737 80.6076 7.6321C80.9854 7.38684 81.4611 7.2642 82.0344 7.2642C82.5548 7.2642 83.0105 7.37358 83.4016 7.59233C83.7927 7.80777 84.096 8.12926 84.3114 8.55682C84.5269 8.98437 84.6346 9.51302 84.6346 10.1428V15H83.1481V10.3217C83.1481 9.76823 83.0039 9.3357 82.7156 9.02415C82.4272 8.70928 82.0311 8.55185 81.5273 8.55185C81.1826 8.55185 80.8761 8.62642 80.6076 8.77557C80.3424 8.92472 80.132 9.14347 79.9762 9.43182C79.8237 9.71686 79.7475 10.0616 79.7475 10.4659Z" fill="currentColor"/>
</svg>
