<svg viewBox="0 0 24 22" xmlns="http://www.w3.org/2000/svg"><path fill="#CDBDB2" d="M6.894 19.66l3.127.829v-1.085l.256-.255h1.787v2.17h-1.915l-2.362-1.021z"/><path fill="#CDBDB2" d="M17.106 19.66l-3.064.829v-1.085l-.255-.255H12v2.17h1.915l2.361-1.021z"/><path fill="#393939" d="M10.277 17.298l-.256 2.106.319-.255h3.32l.383.255-.256-2.106-.51-.319-2.554.064z"/><path fill="#F89C35" d="M8.553 3.064l1.532 3.574.702 10.405h2.49l.766-10.405 1.404-3.574z"/><path fill="#F89D35" d="M1.851 10.915l-1.787 5.17 4.468-.255h2.872v-2.234L7.277 9l-.639.511z"/><path fill="#D87C30" d="M5.234 11.489l5.234.128-.574 2.681-2.49-.638z"/><path fill="#EA8D3A" d="M5.234 11.553l2.17 2.043v2.042z"/><path fill="#F89D35" d="M7.404 13.66l2.553.638.83 2.745-.574.319-2.809-1.66z"/><path fill="#EB8F35" d="M7.404 15.702l-.51 3.958 3.383-2.362z"/><path fill="#EA8E3A" d="M10.468 11.617l.319 5.426-.957-2.777z"/><path fill="#D87C30" d="M4.468 15.766l2.936-.064-.51 3.958z"/><path fill="#D87C30" d="M1.468 21.383l5.426-1.723-2.426-3.894-4.404.319z"/><path fill="#E8821E" d="M10.085 6.638L7.34 8.936l-2.106 2.553 5.234.192z"/><path fill="#DFCEC3" d="M6.894 19.66l3.383-2.362-.256 2.042v1.149l-2.298-.446zM17.107 19.66l-3.32-2.362.256 2.042v1.149l2.298-.446z"/><path fill="#393939" d="M9.064 12.766l.702 1.468-2.49-.638z"/><path fill="#E88F35" d="M1.404.064l8.681 6.574-1.468-3.574z"/><path d="M1.404.064L.255 3.574l.639 3.83-.447.256.638.574-.51.447.702.638-.447.383L1.85 10.98 6.638 9.51c2.34-1.873 3.49-2.83 3.447-2.873-.042-.042-2.936-2.234-8.68-6.574z" fill="#8E5A30"/><g><path fill="#F89D35" d="M22.149 10.915l1.787 5.17-4.468-.255h-2.872v-2.234L16.723 9l.639.511z"/><path fill="#D87C30" d="M18.766 11.489l-5.234.128.574 2.681 2.49-.638z"/><path fill="#EA8D3A" d="M18.766 11.553l-2.17 2.043v2.042z"/><path fill="#F89D35" d="M16.596 13.66l-2.553.638-.83 2.745.574.319 2.809-1.66z"/><path fill="#EB8F35" d="M16.596 15.702l.51 3.958-3.319-2.298z"/><path fill="#EA8E3A" d="M13.532 11.617l-.319 5.426.957-2.777z"/><path fill="#D87C30" d="M19.532 15.766l-2.936-.064.51 3.958zM22.532 21.383l-5.426-1.723 2.426-3.894 4.404.319z"/><path fill="#E8821E" d="M13.915 6.638l2.745 2.298 2.106 2.553-5.234.192z"/><path fill="#393939" d="M14.936 12.766l-.702 1.468 2.49-.638z"/><path fill="#E88F35" d="M22.596.064l-8.681 6.574 1.468-3.574z"/><path d="M22.596.064l1.149 3.51-.639 3.83.447.256-.638.574.51.447-.702.638.447.383-1.021 1.277-4.787-1.468c-2.34-1.873-3.49-2.83-3.447-2.873.042-.042 2.936-2.234 8.68-6.574z" fill="#8E5A30"/></g></svg>