<svg width="36" height="36" viewBox="0 0 36 36" fill="none" xmlns="http://www.w3.org/2000/svg">
<g clip-path="url(#clip0_3309_10827)">
<path d="M23.8222 1H12.1778C6.00466 1 1 6.07939 1 12.3431V24.1596C1 30.4233 6.00466 35.5027 12.1778 35.5027H23.8222C29.9953 35.5027 35 30.4233 35 24.1596V12.3431C35 6.07713 29.9953 1 23.8222 1Z" fill="black"/>
<path fill-rule="evenodd" clip-rule="evenodd" d="M29.7934 16.7975C29.7934 19.0168 28.4278 20.9032 26.5279 21.5916L27.6783 23.4961L25.9776 25.5885L27.6783 27.6334L24.9336 31.3156L22.9997 29.2526V25.0835V21.4512C21.2809 20.6699 20.0762 18.8809 20.0762 16.7975C20.0762 13.9963 22.2524 11.7249 24.9336 11.7249C27.6171 11.7272 29.7934 13.9963 29.7934 16.7975ZM24.9336 17.5765C25.5813 17.5765 26.1067 17.0285 26.1067 16.3514C26.1067 15.6743 25.5813 15.1263 24.9336 15.1263C24.286 15.1263 23.7606 15.6743 23.7606 16.3514C23.7606 17.0285 24.286 17.5765 24.9336 17.5765Z" fill="white"/>
<path fill-rule="evenodd" clip-rule="evenodd" d="M29.805 16.8134C29.805 19.0055 28.4757 20.8738 26.6142 21.5894L27.674 23.4961L26.1069 25.5886L27.674 27.6335L24.9316 31.3451V27.176V21.8996V17.5743C25.5793 17.5743 26.1047 17.0263 26.1047 16.3492C26.1047 15.6721 25.5793 15.1241 24.9316 15.1241V11.7272C27.6242 11.7272 29.805 14.0031 29.805 16.8134Z" fill="#DAD9D9"/>
<path fill-rule="evenodd" clip-rule="evenodd" d="M21.406 22.3752C19.8367 21.0866 18.7837 19.1074 18.6387 16.8587H10.2282C8.46409 16.8587 7.03516 18.3103 7.03516 20.0993V24.1506C7.03516 25.0451 7.75075 25.772 8.63167 25.772H19.8095C20.6904 25.772 21.406 25.0473 21.406 24.1506V22.3752Z" fill="white"/>
<path d="M13.8282 15.8872C13.4387 15.8124 13.0515 15.7422 12.6846 15.5882C11.2919 15.004 10.4812 13.926 10.2185 12.4043C10.0374 11.3626 10.1234 10.3322 10.5446 9.35845C11.1425 7.9748 12.2181 7.22297 13.6267 6.96934C14.4691 6.81762 15.3093 6.85159 16.1222 7.15504C17.3451 7.61021 18.1626 8.48433 18.543 9.77059C18.9257 11.0659 18.8691 12.3635 18.2917 13.5886C17.6938 14.8704 16.6476 15.5565 15.3251 15.826C15.2141 15.8487 15.1054 15.8713 14.9945 15.8917C14.6072 15.8872 14.2177 15.8872 13.8282 15.8872Z" fill="white"/>
</g>
<defs>
<clipPath id="clip0_3309_10827">
<rect width="36" height="36" fill="white"/>
</clipPath>
</defs>
</svg>
