<svg width="60" height="20" viewBox="0 0 60 20" fill="none" xmlns="http://www.w3.org/2000/svg">
<path d="M14.54 3.2624L11.4038 7.91731C11.3704 7.96738 11.3512 8.02564 11.3483 8.08584C11.3453 8.14605 11.3587 8.20594 11.3869 8.25908C11.4152 8.31223 11.4573 8.35663 11.5087 8.38754C11.5601 8.41844 11.6189 8.43468 11.6788 8.43452C11.7593 8.43518 11.8374 8.40659 11.8988 8.35398L14.9862 5.67731C15.0044 5.66128 15.0267 5.65087 15.0506 5.64734C15.0745 5.64381 15.0989 5.64732 15.1208 5.65743C15.1427 5.66754 15.1613 5.68383 15.1742 5.70433C15.1872 5.72483 15.194 5.74866 15.1938 5.77295V14.1515C15.1941 14.1775 15.1863 14.2029 15.1715 14.2241C15.1567 14.2454 15.1356 14.2614 15.1113 14.2698C15.0872 14.2784 15.0612 14.2794 15.0366 14.2726C15.0121 14.2659 14.9901 14.2517 14.9738 14.2321L5.6425 3.0686C5.49219 2.89068 5.30519 2.74786 5.0945 2.65007C4.88382 2.55227 4.6545 2.50185 4.4225 2.50231H4.0975C3.6725 2.50231 3.26625 2.67094 2.96625 2.97044C2.66625 3.26995 2.5 3.67516 2.5 4.09925V15.9008C2.5 16.3248 2.66875 16.7313 2.9675 17.0308C3.13859 17.2019 3.3458 17.332 3.57373 17.4114C3.80165 17.4907 4.04442 17.5173 4.28396 17.4891C4.52349 17.4609 4.75364 17.3787 4.95725 17.2486C5.16087 17.1185 5.33271 16.9438 5.46 16.7376L8.59625 12.0827C8.62993 12.0326 8.64939 11.9742 8.65253 11.9138C8.65568 11.8534 8.64238 11.7933 8.61408 11.74C8.58579 11.6866 8.54356 11.642 8.49195 11.6111C8.44035 11.5801 8.38133 11.5639 8.32125 11.5642C8.24068 11.5636 8.16258 11.5922 8.10125 11.6448L5.01375 14.3214C5.00032 14.3334 4.98449 14.3424 4.96733 14.3476C4.95016 14.3529 4.93207 14.3544 4.91428 14.352C4.89649 14.3496 4.87942 14.3434 4.86423 14.3338C4.84904 14.3242 4.83609 14.3114 4.82625 14.2963C4.81302 14.2756 4.80607 14.2516 4.80625 14.227V5.84594C4.80608 5.82004 4.81393 5.79472 4.82872 5.77352C4.84351 5.75232 4.86449 5.73628 4.88875 5.72765C4.91276 5.71909 4.93879 5.71812 4.96337 5.72486C4.98794 5.73161 5.00988 5.74576 5.02625 5.7654L14.355 16.9327C14.5053 17.1106 14.6922 17.2535 14.9029 17.3513C15.1136 17.4491 15.343 17.4995 15.575 17.499H15.9C16.2155 17.4989 16.524 17.4053 16.7869 17.2298C17.0499 17.0544 17.2557 16.8048 17.3787 16.5123C17.4587 16.3185 17.4999 16.1107 17.5 15.9008V4.09925C17.5 3.67516 17.3312 3.26869 17.0325 2.96918C16.8614 2.79806 16.6542 2.66799 16.4263 2.58865C16.1983 2.5093 15.9556 2.48273 15.716 2.51091C15.4765 2.53909 15.2464 2.62129 15.0428 2.7514C14.8391 2.88151 14.6673 3.05617 14.54 3.2624Z" fill="currentColor"/>
<path d="M31.3366 4.81818V15H29.9247L24.7493 7.53267H24.6548V15H23.1186V4.81818H24.5405L29.7209 12.2955H29.8153V4.81818H31.3366ZM33.5776 15V4.81818H39.9611V6.14062H35.1138V9.2429H39.628V10.5604H35.1138V13.6776H40.0208V15H33.5776ZM42.8732 15H41.2425L44.9066 4.81818H46.6815L50.3455 15H48.7148L45.8363 6.66761H45.7567L42.8732 15ZM43.1467 11.0128H48.4364V12.3054H43.1467V11.0128ZM51.8159 15V4.81818H55.4451C56.234 4.81818 56.8886 4.95407 57.4089 5.22585C57.9326 5.49763 58.3237 5.87382 58.5822 6.3544C58.8407 6.83168 58.97 7.38352 58.97 8.00994C58.97 8.63305 58.8391 9.18158 58.5772 9.65554C58.3187 10.1262 57.9276 10.4924 57.4039 10.7543C56.8836 11.0161 56.229 11.147 55.4402 11.147H52.6909V9.82457H55.301C55.7981 9.82457 56.2025 9.75331 56.514 9.6108C56.8289 9.46828 57.0592 9.26113 57.2051 8.98935C57.3509 8.71757 57.4238 8.3911 57.4238 8.00994C57.4238 7.62547 57.3493 7.29238 57.2001 7.01065C57.0543 6.72893 56.8239 6.51349 56.5091 6.36435C56.1975 6.21188 55.7882 6.13565 55.2811 6.13565H53.3521V15H51.8159ZM56.8422 10.4062L59.3578 15H57.6078L55.1419 10.4062H56.8422Z" fill="currentColor"/>
</svg>
