<svg width="68" height="20" viewBox="0 0 68 20" fill="none" xmlns="http://www.w3.org/2000/svg">
<g clip-path="url(#clip0_2007_8351)">
<path d="M4.26138 13.6853C4.36397 13.5775 4.50503 13.5146 4.65464 13.5146H18.2222C18.4701 13.5146 18.594 13.829 18.4188 14.0131L15.7386 16.8293C15.636 16.9371 15.495 17 15.3454 17H1.77785C1.52992 17 1.40596 16.6856 1.58122 16.5014L4.26138 13.6853Z" fill="currentColor"/>
<path d="M4.26153 3.17068C4.36839 3.06288 4.50946 3 4.65479 3H18.2223C18.4702 3 18.5942 3.3144 18.4189 3.49856L15.7388 6.31473C15.6362 6.42252 15.4951 6.4854 15.3455 6.4854H1.778C1.53007 6.4854 1.40611 6.171 1.58137 5.98685L4.26153 3.17068Z" fill="currentColor"/>
<path d="M15.7386 8.39428C15.636 8.28648 15.495 8.2236 15.3454 8.2236H1.77785C1.52992 8.2236 1.40596 8.53801 1.58122 8.72216L4.26138 11.5383C4.36397 11.6461 4.50503 11.709 4.65464 11.709H18.2222C18.4701 11.709 18.594 11.3946 18.4188 11.2104L15.7386 8.39428Z" fill="currentColor"/>
</g>
<path d="M28.6719 7.4929C28.6188 7.02225 28.4001 6.65767 28.0156 6.39915C27.6312 6.13731 27.1473 6.00639 26.5639 6.00639C26.1463 6.00639 25.785 6.07268 25.4801 6.20526C25.1752 6.33452 24.9382 6.51349 24.7692 6.74219C24.6035 6.96757 24.5206 7.22443 24.5206 7.51278C24.5206 7.75473 24.5769 7.96354 24.6896 8.1392C24.8056 8.31487 24.9564 8.46236 25.142 8.58168C25.331 8.69768 25.5331 8.79545 25.7486 8.875C25.964 8.95123 26.1712 9.0142 26.37 9.06392L27.3643 9.32244C27.6892 9.40199 28.0223 9.50971 28.3636 9.6456C28.705 9.78149 29.0215 9.96046 29.3132 10.1825C29.6049 10.4046 29.8402 10.6797 30.0192 11.0078C30.2015 11.3359 30.2926 11.7287 30.2926 12.1861C30.2926 12.7628 30.1435 13.2749 29.8452 13.7223C29.5502 14.1697 29.121 14.5227 28.5575 14.7812C27.9974 15.0398 27.3196 15.169 26.5241 15.169C25.7618 15.169 25.1023 15.0481 24.5455 14.8061C23.9886 14.5642 23.5528 14.2211 23.2379 13.777C22.9231 13.3295 22.7491 12.7992 22.7159 12.1861H24.2571C24.2869 12.554 24.4063 12.8606 24.6151 13.1058C24.8272 13.3478 25.0973 13.5284 25.4254 13.6477C25.7569 13.7637 26.1198 13.8217 26.5142 13.8217C26.9484 13.8217 27.3345 13.7538 27.6726 13.6179C28.014 13.4787 28.2824 13.2865 28.478 13.0412C28.6735 12.7926 28.7713 12.5026 28.7713 12.1712C28.7713 11.8696 28.6851 11.6226 28.5128 11.4304C28.3438 11.2382 28.1134 11.0791 27.8217 10.9531C27.5334 10.8272 27.2069 10.7161 26.8423 10.62L25.6392 10.2919C24.8239 10.0698 24.1776 9.74337 23.7003 9.3125C23.2263 8.88163 22.9893 8.31155 22.9893 7.60227C22.9893 7.01562 23.1484 6.50355 23.4666 6.06605C23.7848 5.62855 24.2157 5.28883 24.7592 5.04688C25.3028 4.80161 25.916 4.67898 26.5987 4.67898C27.2881 4.67898 27.8963 4.79995 28.4233 5.0419C28.9536 5.28385 29.3712 5.61695 29.6761 6.04119C29.9811 6.46212 30.1402 6.94602 30.1534 7.4929H28.6719ZM35.2257 15.1541C34.5098 15.1541 33.885 14.9901 33.3514 14.6619C32.8178 14.3338 32.4035 13.8748 32.1085 13.2848C31.8135 12.6948 31.666 12.0054 31.666 11.2166C31.666 10.4245 31.8135 9.73177 32.1085 9.13849C32.4035 8.54522 32.8178 8.08452 33.3514 7.75639C33.885 7.42827 34.5098 7.2642 35.2257 7.2642C35.9416 7.2642 36.5663 7.42827 37.1 7.75639C37.6336 8.08452 38.0479 8.54522 38.3429 9.13849C38.6378 9.73177 38.7853 10.4245 38.7853 11.2166C38.7853 12.0054 38.6378 12.6948 38.3429 13.2848C38.0479 13.8748 37.6336 14.3338 37.1 14.6619C36.5663 14.9901 35.9416 15.1541 35.2257 15.1541ZM35.2306 13.9062C35.6947 13.9062 36.0791 13.7836 36.3841 13.5384C36.689 13.2931 36.9144 12.9666 37.0602 12.5589C37.2093 12.1513 37.2839 11.7022 37.2839 11.2116C37.2839 10.7244 37.2093 10.277 37.0602 9.86932C36.9144 9.45833 36.689 9.12855 36.3841 8.87997C36.0791 8.63139 35.6947 8.5071 35.2306 8.5071C34.7633 8.5071 34.3755 8.63139 34.0673 8.87997C33.7624 9.12855 33.5353 9.45833 33.3862 9.86932C33.2404 10.277 33.1674 10.7244 33.1674 11.2116C33.1674 11.7022 33.2404 12.1513 33.3862 12.5589C33.5353 12.9666 33.7624 13.2931 34.0673 13.5384C34.3755 13.7836 34.7633 13.9062 35.2306 13.9062ZM41.9311 4.81818V15H40.4446V4.81818H41.9311ZM46.1532 15.169C45.6693 15.169 45.2318 15.0795 44.8407 14.9006C44.4496 14.7183 44.1397 14.4548 43.911 14.1101C43.6857 13.7654 43.573 13.3428 43.573 12.8423C43.573 12.4115 43.6558 12.0568 43.8216 11.7784C43.9873 11.5 44.211 11.2796 44.4927 11.1172C44.7744 10.9548 45.0893 10.8321 45.4373 10.7493C45.7853 10.6664 46.14 10.6035 46.5012 10.5604C46.9586 10.5073 47.3298 10.4643 47.6149 10.4311C47.8999 10.3946 48.1071 10.3366 48.2363 10.2571C48.3656 10.1776 48.4302 10.0483 48.4302 9.86932V9.83452C48.4302 9.40033 48.3076 9.06392 48.0623 8.82528C47.8204 8.58665 47.4591 8.46733 46.9785 8.46733C46.478 8.46733 46.0836 8.57836 45.7953 8.80043C45.5102 9.01918 45.313 9.26278 45.2037 9.53125L43.8066 9.21307C43.9724 8.74905 44.2143 8.37453 44.5325 8.08949C44.854 7.80114 45.2235 7.59233 45.6412 7.46307C46.0588 7.33049 46.4979 7.2642 46.9586 7.2642C47.2636 7.2642 47.5867 7.30066 47.9281 7.37358C48.2728 7.44318 48.5943 7.57244 48.8926 7.76136C49.1942 7.95028 49.4411 8.22041 49.6333 8.57173C49.8256 8.91974 49.9217 9.37216 49.9217 9.92898V15H48.47V13.956H48.4103C48.3142 14.1482 48.17 14.3371 47.9778 14.5227C47.7856 14.7083 47.5386 14.8625 47.237 14.9851C46.9354 15.1077 46.5742 15.169 46.1532 15.169ZM46.4764 13.9759C46.8874 13.9759 47.2387 13.8946 47.5304 13.7322C47.8253 13.5698 48.0491 13.3577 48.2015 13.0959C48.3573 12.8307 48.4352 12.5473 48.4352 12.2457V11.2614C48.3822 11.3144 48.2794 11.3641 48.127 11.4105C47.9778 11.4536 47.8071 11.4917 47.6149 11.5249C47.4226 11.5547 47.2354 11.5829 47.0531 11.6094C46.8708 11.6326 46.7183 11.6525 46.5957 11.669C46.3074 11.7055 46.0439 11.7668 45.8052 11.853C45.5699 11.9392 45.381 12.0634 45.2385 12.2259C45.0993 12.3849 45.0297 12.5971 45.0297 12.8622C45.0297 13.2301 45.1655 13.5085 45.4373 13.6974C45.7091 13.883 46.0555 13.9759 46.4764 13.9759ZM53.3881 10.4659V15H51.9016V7.36364H53.3285V8.60653H53.4229C53.5986 8.20218 53.8737 7.87737 54.2482 7.6321C54.6261 7.38684 55.1017 7.2642 55.6751 7.2642C56.1954 7.2642 56.6512 7.37358 57.0423 7.59233C57.4334 7.80777 57.7366 8.12926 57.9521 8.55682C58.1675 8.98437 58.2752 9.51302 58.2752 10.1428V15H56.7887V10.3217C56.7887 9.76823 56.6445 9.3357 56.3562 9.02415C56.0678 8.70928 55.6718 8.55185 55.168 8.55185C54.8233 8.55185 54.5167 8.62642 54.2482 8.77557C53.9831 8.92472 53.7726 9.14347 53.6168 9.43182C53.4644 9.71686 53.3881 10.0616 53.3881 10.4659ZM62.4911 15.169C62.0072 15.169 61.5697 15.0795 61.1786 14.9006C60.7875 14.7183 60.4776 14.4548 60.2489 14.1101C60.0236 13.7654 59.9109 13.3428 59.9109 12.8423C59.9109 12.4115 59.9937 12.0568 60.1594 11.7784C60.3252 11.5 60.5489 11.2796 60.8306 11.1172C61.1123 10.9548 61.4272 10.8321 61.7752 10.7493C62.1232 10.6664 62.4779 10.6035 62.8391 10.5604C63.2965 10.5073 63.6677 10.4643 63.9528 10.4311C64.2378 10.3946 64.445 10.3366 64.5742 10.2571C64.7035 10.1776 64.7681 10.0483 64.7681 9.86932V9.83452C64.7681 9.40033 64.6455 9.06392 64.4002 8.82528C64.1583 8.58665 63.797 8.46733 63.3164 8.46733C62.8159 8.46733 62.4215 8.57836 62.1332 8.80043C61.8481 9.01918 61.6509 9.26278 61.5415 9.53125L60.1445 9.21307C60.3103 8.74905 60.5522 8.37453 60.8704 8.08949C61.1919 7.80114 61.5614 7.59233 61.979 7.46307C62.3967 7.33049 62.8358 7.2642 63.2965 7.2642C63.6014 7.2642 63.9246 7.30066 64.266 7.37358C64.6107 7.44318 64.9322 7.57244 65.2305 7.76136C65.5321 7.95028 65.779 8.22041 65.9712 8.57173C66.1635 8.91974 66.2596 9.37216 66.2596 9.92898V15H64.8079V13.956H64.7482C64.6521 14.1482 64.5079 14.3371 64.3157 14.5227C64.1235 14.7083 63.8765 14.8625 63.5749 14.9851C63.2733 15.1077 62.9121 15.169 62.4911 15.169ZM62.8143 13.9759C63.2253 13.9759 63.5766 13.8946 63.8683 13.7322C64.1632 13.5698 64.387 13.3577 64.5394 13.0959C64.6952 12.8307 64.7731 12.5473 64.7731 12.2457V11.2614C64.7201 11.3144 64.6173 11.3641 64.4648 11.4105C64.3157 11.4536 64.145 11.4917 63.9528 11.5249C63.7605 11.5547 63.5733 11.5829 63.391 11.6094C63.2087 11.6326 63.0562 11.6525 62.9336 11.669C62.6452 11.7055 62.3817 11.7668 62.1431 11.853C61.9078 11.9392 61.7189 12.0634 61.5763 12.2259C61.4371 12.3849 61.3675 12.5971 61.3675 12.8622C61.3675 13.2301 61.5034 13.5085 61.7752 13.6974C62.047 13.883 62.3933 13.9759 62.8143 13.9759Z" fill="currentColor"/>
<defs>
<clipPath id="clip0_2007_8351">
<rect width="17" height="14" fill="currentColor" transform="translate(1.5 3)"/>
</clipPath>
</defs>
</svg>
