<svg version="1.1" xmlns="http://www.w3.org/2000/svg" xmlns:xlink="http://www.w3.org/1999/xlink"
     height="32" width="32" 
     viewBox="100 0 800 750"
     preserveAspectRatio="xMidYMid meet"
     xml:space="preserve">

<path fill="currentColor" opacity="1.000000" stroke="none"
	d="
M181.987061,525.938843
	C172.299301,503.934143 164.336502,481.715912 159.838181,458.459076
	C156.962646,443.592224 154.270111,428.572296 153.215988,413.500641
	C151.895447,394.619690 151.300522,375.561066 152.289551,356.678497
	C153.453659,334.453857 157.613602,312.516022 163.486664,290.959564
	C175.755753,245.927185 196.138077,204.881592 224.736221,168.092758
	C234.978928,154.916473 246.132675,142.261963 258.137787,130.683121
	C279.356903,110.217377 302.819214,92.547775 328.638092,78.017151
	C362.608948,58.898689 398.662903,45.639400 436.855133,38.204979
	C461.028076,33.499519 485.497833,32.672153 510.096863,32.883060
	C543.103577,33.166050 575.056274,38.877884 606.504456,48.621586
	C641.061096,59.328381 673.112488,75.057106 702.493652,95.983459
	C715.376709,105.159286 727.400085,115.604912 739.372803,125.982758
	C761.918396,145.525070 780.209290,168.766098 796.328247,193.733292
	C810.081116,215.035507 821.084961,237.722992 830.069580,261.456207
	C839.291565,285.816376 845.375610,310.982056 848.682922,336.677979
	C850.728821,352.573059 850.515137,368.779419 850.960876,384.855896
	C852.041687,423.838806 844.842957,461.534424 831.974915,498.137909
	C819.007263,535.024536 800.871643,569.220581 775.919556,599.511963
	C766.770447,610.618835 757.237122,621.438782 747.386475,631.927002
	C741.522766,638.170288 734.700500,643.513367 727.155701,650.298523
	C731.920715,605.549927 725.073853,563.750000 710.689270,523.075928
	C710.095093,523.074768 709.500916,523.073608 708.906738,523.072388
	C706.037476,528.107300 703.158691,533.136841 700.301147,538.178406
	C696.104858,545.581726 691.439880,552.772766 687.917419,560.484802
	C685.805908,565.107849 684.850586,570.506165 684.491455,575.634155
	C683.573669,588.738892 683.146545,601.883728 682.789062,615.019775
	C682.577148,622.807434 682.993591,630.610229 682.906128,638.403748
	C682.774414,650.140015 682.448303,661.874146 682.207458,673.609253
	C682.193909,674.270142 682.142456,674.938416 682.213806,675.591797
	C682.993408,682.732178 682.569763,683.380981 676.041016,685.432434
	C676.041016,649.569702 676.041016,613.575867 676.041016,576.731934
	C672.448059,579.561462 668.874268,582.392517 665.282532,585.200806
	C659.327271,589.857056 653.117981,594.226074 647.483765,599.241943
	C643.725464,602.587891 640.294983,606.536255 637.584839,610.769958
	C633.608337,616.981934 628.486145,620.619141 621.092285,620.941223
	C620.759338,620.955688 620.424866,620.954468 620.093750,620.987183
	C606.831360,622.298706 605.190613,624.401123 607.089417,637.294373
	C607.811462,642.197083 608.525940,647.116516 608.882202,652.054504
	C609.907288,666.261963 610.718567,680.484680 611.677979,694.697144
	C611.984680,699.239868 612.349792,703.787781 612.942078,708.299988
	C613.735596,714.344727 612.492676,715.814514 605.906433,715.771179
	C603.734619,685.703857 601.561218,655.614807 599.326477,624.676208
	C591.505981,625.710266 584.725769,626.722229 577.916199,627.463745
	C573.856323,627.905823 569.751892,628.046692 565.664490,628.103577
	C558.886169,628.198059 555.349304,623.272766 552.194763,618.468567
	C549.587341,614.497681 545.825500,612.822876 541.758057,611.664612
	C527.666687,607.651672 513.373352,604.303345 499.406677,599.908020
	C481.785828,594.362732 464.526398,587.961853 447.832092,579.727356
	C432.896729,572.360535 418.908997,563.712280 405.888641,553.643372
	C393.143982,543.787659 381.446716,532.576538 369.305969,521.941711
	C367.053162,519.968384 364.762268,518.017456 362.694031,515.859619
	C359.848267,512.890503 357.124878,510.992157 352.746094,513.406250
	C351.217499,514.248901 348.703369,513.304077 346.700745,513.179382
	C350.037354,521.713928 353.591888,529.941833 356.477264,538.398010
	C360.369476,549.804810 362.546967,561.530273 363.314453,573.668152
	C363.744019,580.461670 364.622498,587.254333 360.716248,592.806824
	C356.919067,598.204346 351.411957,602.370300 346.914795,607.312744
	C343.107330,611.497253 338.593903,615.518494 336.283173,620.490479
	C330.710907,632.480408 326.165985,644.953796 321.365662,657.294067
	C318.789429,663.916748 316.541565,670.667053 313.957855,677.884094
	C311.605408,676.509033 309.556091,675.311096 307.122345,673.888428
	C309.500244,667.564087 311.748230,661.419434 314.116638,655.321533
	C318.712006,643.489990 322.797028,631.411072 328.215240,619.965637
	C331.769104,612.458496 336.226929,605.405334 343.837036,600.372620
	C355.079437,592.937866 358.126526,581.676086 355.790985,568.393311
	C352.973419,552.369263 348.859283,536.863098 342.192780,521.962280
	C337.554932,511.595917 329.413696,505.508026 319.730896,500.671387
	C316.078644,498.847107 312.744568,496.385773 309.117920,494.122772
	C275.217896,525.869568 248.984802,563.002930 233.978363,608.094116
	C212.169479,583.106506 195.893890,555.493347 181.987061,525.938843
M669.347595,224.860657
	C697.947937,226.496292 724.452942,233.857529 746.951294,253.079971
	C745.502258,249.207565 743.819946,245.545685 741.627075,242.220566
	C735.387268,232.758987 729.920227,222.535034 722.339783,214.270599
	C711.391357,202.334122 701.345764,189.297424 686.858643,180.854584
	C676.106934,174.588638 666.409790,166.481171 655.550171,160.439087
	C633.435852,148.135193 609.879517,139.259491 585.003601,134.253494
	C573.050964,131.848160 561.060181,129.412720 548.969666,127.976151
	C537.725159,126.640099 526.331360,126.401680 514.991882,126.076180
	C506.041809,125.819260 496.967712,125.319160 488.139313,126.435181
	C474.156342,128.202805 460.167450,130.673218 447.303406,136.985443
	C436.881439,142.099365 426.145966,146.755295 416.314484,152.848602
	C402.038147,161.696716 389.656982,172.905579 378.559784,185.696381
	C367.570862,198.362381 358.216522,211.957428 350.918243,226.979553
	C347.035797,234.970749 342.908081,242.948471 340.129730,251.342255
	C337.001617,260.792725 334.915710,270.636383 333.015350,280.432922
	C330.578796,292.993378 328.779297,305.677429 326.705292,318.308228
	C326.246948,318.076843 325.788574,317.845428 325.330231,317.614014
	C324.825928,239.532974 358.246521,180.022705 425.636505,138.823975
	C424.488373,138.401611 423.979126,138.007843 423.652618,138.124695
	C417.151062,140.451340 410.526184,142.508728 404.218628,145.284927
	C393.845734,149.850479 383.499176,154.544052 373.479156,159.824371
	C363.113983,165.286606 352.809998,171.008575 343.123871,177.568741
	C335.835541,182.504974 329.109161,188.499451 322.945984,194.816437
	C312.972748,205.038544 302.521973,215.104889 294.348907,226.700333
	C282.141541,244.019394 272.654907,263.054565 268.554871,284.187408
	C266.633728,294.089478 265.429443,304.130676 263.799377,314.766998
	C270.790802,314.358154 277.257843,313.979950 284.459656,313.558807
	C279.735687,318.047455 272.758972,316.500061 269.233154,322.169281
	C271.854553,322.944702 273.966248,323.279022 275.816406,324.161682
	C293.911560,332.794678 301.372070,349.277191 306.017303,367.118439
	C308.785278,377.749603 310.310852,388.953033 307.928497,400.029022
	C306.249542,407.834747 304.712830,415.850403 301.576691,423.108643
	C298.901611,429.299896 294.951416,435.352692 288.164276,438.458374
	C287.614075,438.710114 287.408020,439.713898 286.128601,442.001465
	C295.607300,442.001465 303.848450,441.867981 312.082458,442.052429
	C316.888031,442.160034 321.546143,442.607574 324.410400,447.724457
	C325.714813,450.054657 328.232727,451.915039 330.565338,453.424164
	C340.936127,460.133789 351.658356,466.325958 361.765717,473.402008
	C364.953156,475.633453 367.928528,479.789673 368.626129,483.510284
	C369.358582,487.416595 370.762054,489.345825 374.041260,490.743988
	C384.180878,495.067444 394.176849,499.751648 404.437653,503.760681
	C415.645081,508.139587 426.849396,512.875427 438.476074,515.756836
	C460.199341,521.140320 482.133453,525.820618 504.166870,529.743042
	C515.273499,531.720276 526.782532,531.553162 538.122681,532.067627
	C548.290161,532.528870 558.476196,532.781860 568.652588,532.741272
	C572.536804,532.725769 576.398987,531.457764 580.302124,531.076050
	C589.460571,530.180298 598.709595,529.943054 607.784546,528.546326
	C615.241516,527.398621 622.444946,524.696899 629.859192,523.158508
	C644.745361,520.069824 658.414062,513.943298 671.551941,506.621338
	C685.071411,499.086700 697.035156,489.314362 706.764832,477.353241
	C713.725342,468.796448 719.787476,459.353577 725.131165,449.687225
	C729.225220,442.281219 731.811279,433.992340 734.620056,425.939880
	C737.056641,418.954773 739.732605,411.871765 740.747986,404.614532
	C742.304565,393.489166 743.053528,382.180664 743.130920,370.942932
	C743.183350,363.337921 741.494141,355.720947 740.506470,347.462067
	C736.047974,350.667664 732.666260,353.970184 728.620422,355.820892
	C720.957275,359.326294 712.795837,360.404327 704.196228,360.116486
	C690.139771,359.645996 679.608398,352.279755 671.235779,342.633575
	C663.030701,333.180389 660.049805,321.022461 659.844177,308.149109
	C659.709961,299.749481 661.473633,292.167450 664.845581,284.690277
	C669.165649,275.110657 675.758057,267.612610 685.398987,263.394501
	C690.592285,261.122345 696.296265,260.017487 702.558777,258.150818
	C701.435669,256.628357 700.820984,255.267334 699.776978,254.464722
	C692.579956,248.931442 685.793457,243.107437 677.301147,239.082840
	C665.020386,233.262894 652.228088,231.434235 639.176941,231.292496
	C628.587097,231.177475 617.939087,232.618958 607.384949,233.921417
	C592.326782,235.779694 577.281311,237.849533 562.323425,240.378723
	C549.777771,242.500031 537.332886,245.262344 524.904480,248.016541
	C515.776917,250.039230 506.629517,252.124023 497.707031,254.880585
	C487.856445,257.923828 478.192719,261.609741 468.561646,265.312439
	C461.907379,267.870697 455.446716,270.932434 448.899567,273.769165
	C451.688690,275.088593 454.060059,275.634460 456.462036,275.938080
	C488.076141,279.934570 506.665802,298.853271 513.545776,326.633331
	C518.428894,346.350555 513.940125,365.049408 500.024597,380.411499
	C495.038116,385.916351 488.875946,390.641235 482.538544,394.575439
	C470.928284,401.782898 457.859924,405.970062 444.271149,405.601074
	C434.722168,405.341797 424.868469,403.203918 415.839386,399.977844
	C402.422577,395.184021 391.683990,386.040741 383.301178,374.424255
	C381.010925,371.250488 378.554657,367.905579 377.409241,364.252136
	C374.185852,353.970367 370.081360,343.753357 371.763397,332.336243
	C346.539490,359.708466 338.294006,393.999969 331.432953,429.040466
	C330.424530,425.304230 330.282990,421.817108 330.452271,418.345123
	C330.882263,409.525299 331.835022,400.712372 331.836914,391.896484
	C331.838287,385.477234 330.544128,379.066864 330.026886,372.636505
	C328.644073,355.445679 322.464722,340.287964 310.889130,327.467072
	C308.319916,324.621429 305.200806,322.272278 302.334869,319.694550
	C303.842987,319.044067 305.111298,319.198761 306.154572,319.766815
	C320.515045,327.586456 329.035675,339.894165 332.909149,355.496307
	C334.455170,361.723633 335.194794,368.151154 336.301483,374.487549
	C340.281158,367.494934 343.227631,360.637054 346.280487,353.826874
	C346.949188,352.335114 347.949493,350.980988 348.878052,349.618622
	C354.278503,341.695221 359.069183,333.244080 365.277557,326.011322
	C373.332642,316.627197 381.911285,307.481232 391.399811,299.599396
	C400.539124,292.007629 410.716583,285.407532 421.171051,279.719116
	C435.927551,271.689911 451.213959,264.577301 466.557861,257.707184
	C475.213440,253.831696 484.301453,250.742020 493.439148,248.165527
	C507.214325,244.281403 521.124817,240.787430 535.121765,237.802658
	C552.175964,234.165924 569.336914,230.976288 586.534119,228.083160
	C596.940369,226.332504 607.483582,225.297852 618.001526,224.340088
	C626.061951,223.606125 634.182068,223.138107 642.270325,223.205017
	C651.038391,223.277542 659.800232,224.106918 669.347595,224.860657
M460.902435,577.587830
	C464.977020,579.408020 468.920868,581.640686 473.147766,582.980103
	C496.708862,590.446045 520.317627,597.763977 543.958984,604.972351
	C550.067627,606.834900 555.335266,609.089172 559.126770,614.953857
	C561.037598,617.909485 565.832153,620.796387 569.205688,620.666809
	C578.534485,620.308411 587.808167,618.388672 597.083130,616.953918
	C597.978455,616.815430 599.069763,615.929443 599.498230,615.096375
	C604.011108,606.322754 608.462585,597.516296 612.817749,588.663208
	C615.914001,582.369080 618.505432,575.805115 621.910278,569.688965
	C627.932190,558.871643 633.831604,548.461060 622.486572,537.202881
	C620.197510,534.931335 618.298157,533.691895 615.325500,534.062622
	C610.584045,534.653931 605.874878,535.555420 601.121399,535.990417
	C585.618469,537.409180 570.123779,539.250183 554.584290,539.848328
	C537.308350,540.513306 520.040955,539.935974 502.937897,536.318787
	C492.337219,534.076843 481.226715,534.065125 470.758148,531.418396
	C451.833984,526.634033 433.015259,521.226501 414.536469,514.948853
	C398.339630,509.446381 382.669312,502.394012 366.456360,495.902100
	C367.528046,499.283325 361.974884,502.892609 365.751862,507.099548
	C371.809052,513.846313 377.630524,520.973694 384.553284,526.737061
	C396.755585,536.895752 409.287994,546.783813 422.479248,555.591492
	C434.511780,563.625610 447.601074,570.077087 460.902435,577.587830
M257.602509,331.933380
	C256.756134,332.909912 256.098785,334.244019 255.033829,334.807007
	C245.642319,339.771729 243.464005,349.197144 241.060974,358.135681
	C238.336258,368.270935 238.522858,378.684113 239.893814,389.141968
	C241.942047,404.766205 247.847778,418.436676 259.094971,429.579865
	C266.321228,436.739288 277.944061,437.572632 285.935455,430.931030
	C295.835693,422.703064 299.259186,411.264526 300.652954,399.675690
	C301.896271,389.337769 301.870239,378.655945 298.688385,368.133728
	C295.145355,356.417389 291.073090,345.330414 281.558441,337.078064
	C274.758148,331.179962 267.225250,328.142517 257.602509,331.933380
M628.585754,533.955139
	C630.409485,536.511230 632.790100,538.843994 633.925903,541.675964
	C635.611450,545.878479 638.504639,551.215332 637.204529,554.694458
	C633.242981,565.295532 627.469971,575.214111 622.505249,585.448425
	C620.290344,590.014282 618.370422,594.722351 616.229187,599.325134
	C613.913452,604.302795 611.495728,609.232971 608.477600,615.529358
	C613.871521,614.364380 617.539429,612.924805 621.192749,612.960938
	C625.029175,612.998840 627.749817,611.697571 629.601257,608.788757
	C638.247559,595.203735 651.853638,586.919617 663.528076,576.556580
	C668.741394,571.928955 674.448669,567.353638 678.115479,561.597534
	C684.793518,551.114502 690.187500,539.805542 695.985535,528.771973
	C702.153687,517.034302 708.384399,505.319916 714.128052,493.374298
	C716.005676,489.469208 716.442322,484.871368 717.538025,480.590363
	C717.002930,480.347748 716.467834,480.105164 715.932739,479.862549
	C715.025513,480.401245 713.926758,480.764526 713.244507,481.509308
	C710.416748,484.596497 708.136597,488.343994 704.888306,490.857819
	C694.760742,498.695465 684.667786,506.695709 673.834229,513.470032
	C663.157532,520.146362 651.777405,525.708740 639.087280,528.126953
	C635.294861,528.849609 631.873779,531.520569 628.585754,533.955139
M427.141510,396.195404
	C433.942749,400.134674 441.299835,398.143982 448.390900,397.898682
	C460.793396,397.469604 472.270599,393.980621 482.665771,386.780792
	C490.820770,381.132507 498.387024,374.477936 502.563660,365.885132
	C508.151886,354.388092 509.984192,341.349365 506.115906,328.820557
	C503.658508,320.861389 499.287811,313.352539 494.929993,306.153290
	C488.341827,295.269501 478.318542,288.384521 466.101685,285.107391
	C457.769196,282.872223 449.251221,282.170563 440.497528,282.837372
	C431.337250,283.535126 422.889313,286.179230 415.560669,291.220490
	C406.752075,297.279724 398.676880,304.411011 390.346191,311.154816
	C388.340393,312.778534 385.958618,314.375549 384.808716,316.545929
	C378.542603,328.372955 377.500366,340.995514 381.423157,353.629517
	C385.122253,365.543121 392.043121,375.824036 402.065430,383.293427
	C409.377808,388.743225 416.621399,394.907623 427.141510,396.195404
M750.651855,368.144745
	C750.876953,368.818176 751.102112,369.491577 751.327271,370.165009
	C751.739746,370.204193 752.152222,370.243408 752.564758,370.282623
	C754.732666,362.923492 757.614380,355.688416 758.919556,348.179321
	C761.610046,332.699890 763.443481,317.096069 761.009949,301.313202
	C758.729004,286.520050 753.815735,272.940369 743.399597,261.859375
	C734.956970,252.877899 725.474182,245.604004 713.134094,242.376465
	C704.838196,240.206650 696.851990,236.852585 688.727234,234.028351
	C688.465515,234.577698 688.203735,235.127060 687.942017,235.676422
	C690.408386,237.752716 693.039307,239.663971 695.314392,241.932129
	C709.713013,256.286774 720.003418,273.453186 729.948547,291.043213
	C737.001526,303.518127 740.660339,316.982483 744.202454,330.455017
	C747.375854,342.525116 748.573853,355.114563 750.651855,368.144745
M675.183594,312.010803
	C675.134949,310.516602 675.050476,309.022614 675.043152,307.528198
	C674.946167,287.811493 686.468140,274.026398 707.107300,272.866669
	C708.776428,272.772858 710.348694,270.954742 711.965942,269.937927
	C710.122742,268.291199 708.287842,265.234711 706.435059,265.223785
	C693.206299,265.145782 681.583801,269.310211 674.451294,281.210266
	C668.283569,291.500580 666.243164,302.589996 667.774048,314.895721
	C671.479309,344.679230 704.923401,365.613770 732.706848,345.746033
	C740.999817,339.815735 742.713501,334.791046 737.769897,324.583740
	C735.338928,327.827576 733.724060,330.901733 731.294922,333.058899
	C722.446899,340.916260 712.876282,345.045349 700.396118,341.199677
	C685.856201,336.719299 677.478943,327.850403 675.183594,312.010803
M359.011963,495.403717
	C359.606720,493.007996 359.997650,490.537750 360.840393,488.232697
	C362.396942,483.975311 360.675171,481.415894 357.118256,479.229248
	C348.431549,473.889099 339.784515,468.476410 331.266418,462.872650
	C325.329987,458.967255 318.355164,461.442932 316.981934,468.381378
	C316.029175,473.195374 315.200592,478.063782 314.823090,482.947021
	C314.673767,484.878754 315.266907,487.865845 316.598724,488.749542
	C324.279633,493.845856 331.996216,499.041016 340.247650,503.087341
	C351.198578,508.457520 355.382935,506.539825 359.011963,495.403717
M307.771240,449.914459
	C301.442444,449.612122 295.107880,449.395416 288.787140,448.972748
	C285.419159,448.747498 282.074982,448.166077 278.720062,447.745392
	C278.357330,448.192444 277.994629,448.639465 277.631927,449.086487
	C286.174103,458.623840 294.691223,468.183929 303.295837,477.664612
	C304.192291,478.652374 305.607574,479.169281 306.782104,479.904663
	C307.187195,478.592804 307.748169,477.306915 307.971924,475.964813
	C309.377441,467.534332 308.963593,458.217712 319.017944,454.508118
	C317.358704,448.179047 312.544861,450.266418 307.771240,449.914459
M710.643982,305.128326
	C713.951538,306.545471 717.493347,308.769379 720.705872,305.639771
	C724.068542,302.363983 725.365723,297.989166 722.101624,294.036011
	C719.166443,290.481140 715.807495,286.826569 711.842651,284.681091
	C706.454834,281.765564 702.426208,284.687164 701.947693,290.906189
	C701.454407,297.316711 704.988953,301.468384 710.643982,305.128326
z"/>
<path fill="currentColor" opacity="1.000000" stroke="none"
	d="
M723.126465,411.043243
	C713.399414,417.212006 703.279175,419.668427 692.265381,416.953400
	C688.962219,416.139130 685.586792,415.253357 682.557495,413.763763
	C674.785217,409.942047 666.489563,408.699677 658.116943,406.958160
	C650.664246,405.407990 644.036682,407.297821 637.401794,408.518799
	C629.159546,410.035583 621.838318,414.690765 614.848877,419.655426
	C603.254761,427.890900 591.985107,437.070770 578.388367,441.616638
	C570.214172,444.349548 561.182678,445.075317 552.474976,445.532867
	C537.007324,446.345581 522.242249,448.301941 509.994904,459.196686
	C507.069214,461.799255 503.793121,465.678040 498.626251,463.428314
	C496.390045,458.965271 499.526031,456.349457 502.396667,454.364624
	C507.942841,450.529846 513.798523,447.113708 519.684082,443.805420
	C528.799866,438.681396 538.907349,438.265289 549.045959,437.958832
	C560.859924,437.601715 572.620544,436.446991 583.202454,430.643005
	C588.948730,427.491272 594.249573,423.515778 599.694031,419.827271
	C615.005371,409.454010 630.215515,398.768829 649.826477,398.759186
	C658.082581,398.755157 666.218323,399.369995 674.122986,402.587463
	C681.271423,405.497162 688.792480,407.570374 696.265198,409.581879
	C703.471008,411.521545 709.909851,408.706360 716.267334,405.571472
	C717.793457,404.818939 720.554138,404.471680 721.575989,405.330811
	C722.827820,406.383331 722.848328,408.900360 723.126465,411.043243
z"/>
<path fill="currentColor" opacity="1.000000" stroke="none"
	d="
M646.694214,347.309631
	C646.732178,348.504486 646.922974,349.863220 646.537292,350.053558
	C644.561218,351.028778 642.405884,352.332520 640.375916,352.233734
	C639.254944,352.179169 638.257019,349.596130 637.203674,348.152954
	C639.223083,347.085693 641.156311,345.720734 643.304688,345.099365
	C644.149231,344.855072 645.474670,346.273376 646.694214,347.309631
z"/>
<path fill="currentColor" opacity="1.000000" stroke="none"
	d="
M608.858032,358.097351
	C607.174805,354.836029 608.695496,352.745697 611.319580,352.216858
	C613.066589,351.864746 615.304077,352.883820 616.994995,353.857300
	C617.639954,354.228638 617.864014,357.016968 617.433289,357.271484
	C615.790894,358.242218 613.835083,358.797302 611.930054,359.157196
	C611.083130,359.317200 610.078735,358.643616 608.858032,358.097351
z"/>
<path fill="currentColor" opacity="1.000000" stroke="none"
	d="
M497.013214,346.878265
	C494.583374,362.014313 486.102600,372.751740 473.847778,380.237885
	C468.369507,383.584442 461.688324,385.757324 455.301514,386.637146
	C445.383881,388.003448 435.359436,387.813110 425.562622,384.209015
	C407.049652,377.398346 395.740723,364.840942 392.954620,345.132751
	C390.336914,326.615326 399.093384,310.092194 415.068604,299.907837
	C429.583130,290.654694 444.894745,288.246429 460.895447,293.149200
	C478.957367,298.683533 492.587433,309.652863 496.375122,329.396484
	C497.434967,334.921021 496.871185,340.757019 497.013214,346.878265
M478.546967,316.963440
	C475.936157,311.974030 471.463348,309.234039 466.438873,307.397522
	C462.198242,305.847565 458.070709,307.398804 456.028259,310.890594
	C454.520630,313.468109 454.528870,317.385132 455.007294,320.531128
	C455.404816,323.144958 457.202698,325.704193 458.855194,327.935944
	C462.334808,332.635193 467.233185,335.965118 472.981812,335.638824
	C475.992493,335.467987 479.762787,332.711823 481.517914,330.029205
	C484.343140,325.711029 482.401703,321.208710 478.546967,316.963440
z"/>
<path fill="currentColor" opacity="1.000000" stroke="none"
	d="
M326.541809,488.313782
	C325.933899,484.456970 325.143005,480.416321 325.731415,476.587585
	C325.930603,475.291382 330.344391,473.123932 331.587341,473.765686
	C337.504333,476.820526 343.006500,480.684540 348.601471,484.344360
	C348.975494,484.588989 348.896362,485.526306 349.204254,486.964905
	C347.082275,486.656891 345.408600,486.552704 343.819794,486.129700
	C342.910583,485.887665 342.181732,485.039429 341.299622,484.613312
	C331.228912,479.748932 331.830719,478.502441 326.541809,488.313782
z"/>

</svg>
