<svg fill="none" height="32" viewBox="0 0 125 32" width="125" xmlns="http://www.w3.org/2000/svg"><g fill="#21201c"><path d="m124.276 14.9815-2.493.1535c-.043-.2131-.134-.4049-.275-.5753-.14-.1747-.326-.3132-.556-.4155-.226-.1065-.496-.1598-.812-.1598-.422 0-.777.0895-1.067.2684-.29.1748-.435.4091-.435.7032 0 .2343.094.4325.281.5944.188.162.51.2919.966.3899l1.777.358c.954.196 1.666.5114 2.135.946.468.4347.703 1.0057.703 1.7131 0 .6435-.19 1.2081-.569 1.6939-.375.4858-.891.865-1.547 1.1378-.652.2684-1.404.4027-2.256.4027-1.3 0-2.336-.2706-3.107-.8118-.767-.5455-1.217-1.287-1.349-2.2245l2.679-.1406c.081.3963.277.6989.588.9077.311.2045.709.3068 1.195.3068.477 0 .861-.0916 1.151-.2748.294-.1875.443-.4283.447-.7223-.004-.2472-.109-.4496-.313-.6073-.205-.1619-.52-.2855-.946-.3707l-1.701-.3388c-.958-.1918-1.672-.5242-2.141-.9972-.464-.473-.697-1.076-.697-1.8089 0-.6307.171-1.174.512-1.63.345-.456.829-.8075 1.451-1.0547.626-.2471 1.359-.3707 2.199-.3707 1.24 0 2.216.2621 2.927.7862.716.5242 1.134 1.2379 1.253 2.1413z"/><path d="m115.256 12.1818v2.0455h-5.912v-2.0455zm-4.57-2.35226h2.723v9.15346c0 .2514.038.4474.115.588.077.1364.183.2323.32.2877.14.0554.302.0831.485.0831.128 0 .256-.0107.384-.032.128-.0256.226-.0447.294-.0575l.428 2.0263c-.136.0426-.328.0916-.575.147-.247.0596-.548.0958-.901.1086-.657.0256-1.232-.0618-1.726-.262-.49-.2003-.872-.5114-1.144-.9333-.273-.4219-.407-.9545-.403-1.598z"/><path d="m102.36 16.3239v5.6761h-2.7233v-9.8182h2.5953v1.7323h.115c.217-.5711.582-1.0228 1.093-1.3551.511-.3367 1.131-.505 1.86-.505.682 0 1.276.1491 1.783.4474s.902.7245 1.183 1.2784c.281.5498.422 1.206.422 1.9688v6.2514h-2.723v-5.7656c.004-.6009-.149-1.0696-.46-1.4063-.312-.3409-.74-.5113-1.285-.5113-.367 0-.691.0788-.972.2365-.277.1576-.494.3878-.652.6903-.153.2983-.232.6584-.236 1.0803z"/><path d="m94.1533 22.1918c-1.01 0-1.8793-.2046-2.608-.6137-.7244-.4133-1.2827-.9971-1.6747-1.7514-.392-.7585-.5881-1.6555-.5881-2.691 0-1.01.1961-1.8963.5881-2.6591s.9439-1.3573 1.6555-1.7834c.7159-.4261 1.5554-.6392 2.5185-.6392.6477 0 1.2507.1044 1.809.3132.5625.2045 1.0525.5135 1.4701.9268.4219.4134.75.9333.9844 1.5597.2344.6222.3516 1.3509.3516 2.1861v.7479h-8.2905v-1.6875h5.7273c0-.3921-.0853-.7394-.2557-1.042-.1705-.3025-.407-.539-.7095-.7095-.2983-.1747-.6456-.262-1.0419-.262-.4134 0-.7799.0958-1.0995.2876-.3153.1875-.5625.441-.7415.7607-.1789.3153-.2706.6669-.2748 1.0546v1.6044c0 .4858.0895.9056.2685 1.2593.1832.3537.441.6264.7734.8182.3324.1917.7265.2876 1.1825.2876.3026 0 .5796-.0426.831-.1278.2514-.0853.4666-.2131.6456-.3836.179-.1704.3153-.3792.4091-.6264l2.5184.1662c-.1278.6051-.3899 1.1335-.7862 1.5852-.392.4475-.8991.7969-1.5213 1.0483-.6179.2472-1.3317.3708-2.1413.3708z"/><path d="m88.8105 12.1818v2.0455h-5.9126v-2.0455zm-4.5703-2.35226h2.723v9.15346c0 .2514.0384.4474.1151.588.0767.1364.1832.2323.3196.2877.1406.0554.3025.0831.4858.0831.1278 0 .2557-.0107.3835-.032.1278-.0256.2259-.0447.294-.0575l.4283 2.0263c-.1364.0426-.3281.0916-.5753.147-.2471.0596-.5476.0958-.9013.1086-.6562.0256-1.2315-.0618-1.7258-.262-.4901-.2003-.8715-.5114-1.1442-.9333s-.4069-.9545-.4027-1.598z"/><path d="m75.9139 16.3239v5.6761h-2.723v-9.8182h2.5952v1.7323h.115c.2174-.5711.5817-1.0228 1.0931-1.3551.5113-.3367 1.1314-.505 1.8601-.505.6818 0 1.2762.1491 1.7834.4474.5071.2983.9012.7245 1.1825 1.2784.2812.5498.4219 1.206.4219 1.9688v6.2514h-2.7231v-5.7656c.0043-.6009-.1491-1.0696-.4602-1.4063-.3111-.3409-.7393-.5113-1.2848-.5113-.3665 0-.6903.0788-.9716.2365-.277.1576-.4943.3878-.652.6903-.1534.2983-.2322.6584-.2365 1.0803z"/><path d="m69.0866 22v-9.8182h2.7231v9.8182zm1.3679-11.0838c-.4048 0-.7521-.1342-1.0419-.4027-.2855-.2727-.4282-.59872-.4282-.97799 0-.375.1427-.69673.4282-.96519.2898-.27273.6371-.4091 1.0419-.4091.4049 0 .75.13637 1.0356.4091.2897.26846.4346.59019.4346.96519 0 .37927-.1449.70529-.4346.97799-.2856.2685-.6307.4027-1.0356.4027z"/></g><path d="m0 10c0-5.52285 4.47715-10 10-10h37.4575c3.4479 0 6.6526 1.7762 8.48 4.70001l7.0625 11.29999-7.0625 11.3c-1.8274 2.9238-5.0321 4.7-8.48 4.7h-37.4575c-5.52285 0-10-4.4772-10-10z" fill="#4dd092"/><path d="m41.0831 22v-9.8182h2.6399v1.7131h.1023c.179-.6094.4794-1.0696.9013-1.3807.4219-.3153.9077-.473 1.4574-.473.1363 0 .2834.0085.441.0256.1577.017.2962.0405.4155.0703v2.4162c-.1278-.0384-.3047-.0725-.5305-.1023-.2259-.0298-.4326-.0447-.6201-.0447-.4005 0-.7585.0873-1.0738.262-.3111.1705-.5583.4091-.7415.7159-.179.3069-.2685.6605-.2685 1.0611v5.5547z" fill="#21201c"/><path d="m34.2414 22.1854c-.6264 0-1.1846-.1087-1.6747-.326-.49-.2216-.8778-.5476-1.1633-.978-.2813-.4347-.4219-.9759-.4219-1.6236 0-.5454.1001-1.0035.3004-1.3743.2003-.3707.473-.669.8182-.8949.3452-.2258.7372-.3963 1.1762-.5113.4431-.1151.9076-.196 1.3934-.2429.571-.0597 1.0313-.1151 1.3807-.1662.3494-.0554.603-.1364.7607-.2429.1576-.1065.2365-.2642.2365-.473v-.0384c0-.4048-.1279-.718-.3836-.9396-.2514-.2216-.6093-.3324-1.0738-.3324-.4901 0-.88.1087-1.1698.326-.2897.2131-.4815.4815-.5753.8054l-2.5184-.2045c.1278-.5966.3792-1.1123.7542-1.5469.375-.4389.8587-.7756 1.451-1.01.5966-.2386 1.287-.3579 2.0711-.3579.5454 0 1.0674.0639 1.566.1917.5028.1279.9482.326 1.3359.5945.3921.2685.701.6136.9269 1.0355.2258.4176.3388.9183.3388 1.5021v6.6222h-2.5824v-1.3615h-.0767c-.1577.3068-.3686.5774-.6328.8118-.2642.2301-.5817.4112-.9524.5433-.3708.1279-.7991.1918-1.2849.1918zm.7799-1.8793c.4005 0 .7542-.0788 1.0611-.2365.3068-.1619.5475-.3793.7223-.652.1747-.2727.262-.5817.262-.9268v-1.0419c-.0852.0554-.2024.1065-.3515.1534-.1449.0426-.309.0831-.4922.1214-.1833.0341-.3665.0661-.5497.0959-.1833.0256-.3495.049-.4986.0703-.3196.0469-.5987.1215-.8374.2237-.2386.1023-.424.2408-.5561.4155-.1321.1705-.1981.3836-.1981.6392 0 .3708.1342.6542.4027.8502.2727.1917.6179.2876 1.0355.2876z" fill="#21201c"/><path d="m25.9583 22.1918c-1.0099 0-1.8792-.2046-2.6079-.6137-.7245-.4133-1.2827-.9971-1.6747-1.7514-.3921-.7585-.5881-1.6555-.5881-2.691 0-1.01.196-1.8963.5881-2.6591.392-.7628.9438-1.3573 1.6555-1.7834.7159-.4261 1.5554-.6392 2.5185-.6392.6477 0 1.2507.1044 1.8089.3132.5625.2045 1.0526.5135 1.4702.9268.4219.4134.75.9333.9844 1.5597.2343.6222.3515 1.3509.3515 2.1861v.7479h-8.2905v-1.6875h5.7273c0-.3921-.0852-.7394-.2557-1.042-.1704-.3025-.4069-.539-.7095-.7095-.2983-.1747-.6456-.262-1.0419-.262-.4133 0-.7798.0958-1.0994.2876-.3154.1875-.5625.441-.7415.7607-.179.3153-.2706.6669-.2749 1.0546v1.6044c0 .4858.0895.9056.2685 1.2593.1832.3537.4411.6264.7734.8182.3324.1917.7266.2876 1.1826.2876.3025 0 .5795-.0426.8309-.1278.2515-.0853.4667-.2131.6456-.3836.179-.1704.3154-.3792.4091-.6264l2.5185.1662c-.1279.6051-.3899 1.1335-.7862 1.5852-.3921.4475-.8992.7969-1.5213 1.0483-.6179.2472-1.3317.3708-2.1414.3708z" fill="#21201c"/><path d="m13.8097 16.3239v5.6761h-2.7231v-9.8182h2.5952v1.7323h.1151c.2173-.5711.5816-1.0228 1.093-1.3551.5114-.3367 1.1314-.505 1.8601-.505.6818 0 1.2763.1491 1.7834.4474s.9013.7245 1.1825 1.2784c.2813.5498.4219 1.206.4219 1.9688v6.2514h-2.723v-5.7656c.0042-.6009-.1492-1.0696-.4603-1.4063-.311-.3409-.7393-.5113-1.2848-.5113-.3664 0-.6903.0788-.9716.2365-.2769.1576-.4943.3878-.6519.6903-.1535.2983-.2323.6584-.2365 1.0803z" fill="#21201c"/></svg>